SplineFontDB: 3.0
FontName: Sintony-Bold
FullName: Sintony Bold
FamilyName: Sintony
Weight: Bold
Copyright: Copyright (c) 2013, Eduardo Tunni (http://www.tipo.net.ar), with Reserved Font Name 'Sintony'
Version: 1.001
ItalicAngle: 0
UnderlinePosition: 1
UnderlineWidth: 3
Ascent: 800
Descent: 200
sfntRevision: 0x00010042
LayerCount: 2
Layer: 0 1 "Back"  1
Layer: 1 1 "Fore"  0
XUID: [1021 47 473870690 14703490]
FSType: 0
OS2Version: 3
OS2_WeightWidthSlopeOnly: 0
OS2_UseTypoMetrics: 1
CreationTime: 1307112960
ModificationTime: 1359384347
PfmFamily: 17
TTFWeight: 700
TTFWidth: 5
LineGap: 0
VLineGap: 0
Panose: 2 0 5 3 5 0 0 2 0 4
OS2TypoAscent: 995
OS2TypoAOffset: 0
OS2TypoDescent: -308
OS2TypoDOffset: 0
OS2TypoLinegap: 0
OS2WinAscent: 995
OS2WinAOffset: 0
OS2WinDescent: 308
OS2WinDOffset: 0
HheadAscent: 995
HheadAOffset: 0
HheadDescent: -308
HheadDOffset: 0
OS2SubXSize: 650
OS2SubYSize: 600
OS2SubXOff: 0
OS2SubYOff: 75
OS2SupXSize: 650
OS2SupYSize: 600
OS2SupXOff: 0
OS2SupYOff: 350
OS2StrikeYSize: 3
OS2StrikeYPos: 343
OS2Vendor: 'TIPO'
OS2CodePages: 20000001.00000000
OS2UnicodeRanges: 800000af.4000204a.00000000.00000000
Lookup: 4 0 1 "'liga' Standard Ligatures lookup 0"  {"'liga' Standard Ligatures lookup 0 subtable"  } ['liga' ('DFLT' <'dflt' > ) ]
Lookup: 258 0 0 "'kern' Horizontal Kerning lookup 0"  {"'kern' Horizontal Kerning lookup 0 per glyph data 0"  "'kern' Horizontal Kerning lookup 0 per glyph data 1"  "'kern' Horizontal Kerning lookup 0 kerning class 2"  } ['kern' ('DFLT' <'dflt' > ) ]
DEI: 91125
KernClass2: 4+ 6 "'kern' Horizontal Kerning lookup 0 kerning class 2" 
 50 A Agrave Aacute Acircumflex Atilde Adieresis Aring
 18 Y Yacute Ydieresis
 8 L Lslash
 68 quotedbl quotesingle quoteleft quoteright quotedblleft quotedblright
 18 Y Yacute Ydieresis
 68 quotedbl quotesingle quoteleft quoteright quotedblleft quotedblright
 50 A Agrave Aacute Acircumflex Atilde Adieresis Aring

StartChar: exclam
Encoding: 33 33 4
Width: 298
GlyphClass: 2
Flags: W
LayerCount: 2
Fore
SplineSet
198 5 m 128,-1,1
 181 -8 181 -8 149.5 -8 c 128,-1,2
 118 -8 118 -8 101.5 5 c 128,-1,3
 85 18 85 18 81.5 32.5 c 128,-1,4
 78 47 78 47 78 67 c 128,-1,5
 78 87 78 87 80 98.5 c 128,-1,6
 82 110 82 110 88.5 123 c 128,-1,7
 95 136 95 136 110 142.5 c 128,-1,8
 125 149 125 149 149 149 c 128,-1,9
 173 149 173 149 189 142.5 c 128,-1,10
 205 136 205 136 212 123 c 0,11,12
 222 102 222 102 222 74.5 c 128,-1,13
 222 47 222 47 218.5 32.5 c 128,-1,0
 215 18 215 18 198 5 c 128,-1,1
75 730 m 1,14,-1
 223 730 l 1,15,-1
 223 548 l 1,16,-1
 189 209 l 1,17,-1
 109 209 l 1,18,-1
 75 548 l 1,19,-1
 75 730 l 1,14,-1
EndSplineSet
EndChar

StartChar: quotedbl
Encoding: 34 34 5
Width: 416
GlyphClass: 2
Flags: W
LayerCount: 2
Fore
SplineSet
240 730 m 1,0,-1
 368 730 l 1,1,-1
 368 664 l 1,2,-1
 342 467 l 1,3,-1
 266 467 l 1,4,-1
 240 664 l 1,5,-1
 240 730 l 1,0,-1
48 730 m 1,6,-1
 176 730 l 1,7,-1
 176 664 l 1,8,-1
 150 467 l 1,9,-1
 74 467 l 1,10,-1
 48 664 l 1,11,-1
 48 730 l 1,6,-1
EndSplineSet
EndChar

StartChar: numbersign
Encoding: 35 35 6
Width: 814
GlyphClass: 2
Flags: W
LayerCount: 2
Fore
SplineSet
415 -76 m 1,0,-1
 457 156 l 1,1,-1
 282 156 l 1,2,-1
 240 -76 l 1,3,-1
 105 -76 l 1,4,-1
 147 156 l 1,5,-1
 44 156 l 1,6,-1
 63 261 l 1,7,-1
 166 261 l 1,8,-1
 203 468 l 1,9,-1
 100 468 l 1,10,-1
 119 573 l 1,11,-1
 222 573 l 1,12,-1
 265 805 l 1,13,-1
 400 805 l 1,14,-1
 357 573 l 1,15,-1
 532 573 l 1,16,-1
 575 805 l 1,17,-1
 710 805 l 1,18,-1
 667 573 l 1,19,-1
 770 573 l 1,20,-1
 751 468 l 1,21,-1
 648 468 l 1,22,-1
 611 261 l 1,23,-1
 715 261 l 1,24,-1
 696 156 l 1,25,-1
 592 156 l 1,26,-1
 550 -76 l 1,27,-1
 415 -76 l 1,0,-1
338 468 m 1,28,-1
 301 261 l 1,29,-1
 476 261 l 1,30,-1
 513 468 l 1,31,-1
 338 468 l 1,28,-1
EndSplineSet
EndChar

StartChar: dollar
Encoding: 36 36 7
Width: 630
GlyphClass: 2
Flags: W
LayerCount: 2
Fore
SplineSet
115 381 m 128,-1,1
 70 432 70 432 70 525 c 128,-1,2
 70 618 70 618 117.5 671.5 c 128,-1,3
 165 725 165 725 272 734 c 1,4,-1
 272 843 l 1,5,-1
 363 843 l 1,6,-1
 363 734 l 1,7,8
 468 725 468 725 513.5 674 c 128,-1,9
 559 623 559 623 559 526 c 1,10,-1
 441 517 l 1,11,12
 441 575 441 575 414 602.5 c 128,-1,13
 387 630 387 630 322 630 c 128,-1,14
 257 630 257 630 230.5 604 c 128,-1,15
 204 578 204 578 204 524 c 0,16,17
 204 438 204 438 289 427 c 2,18,-1
 377 415 l 1,19,20
 576 389 576 389 576 200 c 128,-1,21
 576 11 576 11 363 -5 c 1,22,-1
 363 -113 l 1,23,-1
 272 -113 l 1,24,-1
 272 -5 l 1,25,26
 160 3 160 3 113 54 c 128,-1,27
 66 105 66 105 66 203 c 1,28,-1
 184 212 l 1,29,30
 184 154 184 154 213.5 124.5 c 128,-1,31
 243 95 243 95 314 95 c 128,-1,32
 385 95 385 95 414 121.5 c 128,-1,33
 443 148 443 148 443 200 c 0,34,35
 443 286 443 286 345 301 c 2,36,-1
 258 315 l 2,37,0
 160 330 160 330 115 381 c 128,-1,1
EndSplineSet
EndChar

StartChar: percent
Encoding: 37 37 8
Width: 976
GlyphClass: 2
Flags: W
LayerCount: 2
Fore
SplineSet
320 -66 m 1,0,-1
 534 735 l 1,1,-1
 619 735 l 1,2,-1
 404 -66 l 1,3,-1
 320 -66 l 1,0,-1
750 -8 m 128,-1,5
 656 -8 656 -8 620.5 46.5 c 128,-1,6
 585 101 585 101 585 202 c 128,-1,7
 585 303 585 303 620.5 358.5 c 128,-1,8
 656 414 656 414 750 414 c 128,-1,9
 844 414 844 414 880 358.5 c 128,-1,10
 916 303 916 303 916 202 c 128,-1,11
 916 101 916 101 880 46.5 c 128,-1,4
 844 -8 844 -8 750 -8 c 128,-1,5
710 105 m 128,-1,13
 720 77 720 77 750.5 77 c 128,-1,14
 781 77 781 77 791 105 c 128,-1,15
 801 133 801 133 801 203 c 128,-1,16
 801 273 801 273 791 300.5 c 128,-1,17
 781 328 781 328 750.5 328 c 128,-1,18
 720 328 720 328 710 300.5 c 128,-1,19
 700 273 700 273 700 203 c 128,-1,12
 700 133 700 133 710 105 c 128,-1,13
199 318 m 128,-1,21
 105 318 105 318 69.5 372.5 c 128,-1,22
 34 427 34 427 34 528 c 128,-1,23
 34 629 34 629 69.5 684.5 c 128,-1,24
 105 740 105 740 199 740 c 128,-1,25
 293 740 293 740 329 684.5 c 128,-1,26
 365 629 365 629 365 528 c 128,-1,27
 365 427 365 427 329 372.5 c 128,-1,20
 293 318 293 318 199 318 c 128,-1,21
159 431 m 128,-1,29
 169 403 169 403 199.5 403 c 128,-1,30
 230 403 230 403 240 431 c 128,-1,31
 250 459 250 459 250 529 c 128,-1,32
 250 599 250 599 240 626.5 c 128,-1,33
 230 654 230 654 199.5 654 c 128,-1,34
 169 654 169 654 159 626.5 c 128,-1,35
 149 599 149 599 149 529 c 128,-1,28
 149 459 149 459 159 431 c 128,-1,29
EndSplineSet
EndChar

StartChar: ampersand
Encoding: 38 38 9
Width: 645
GlyphClass: 2
Flags: W
LayerCount: 2
Fore
SplineSet
294 637 m 0,0,1
 240 637 240 637 216.5 609.5 c 128,-1,2
 193 582 193 582 193 530 c 128,-1,3
 193 478 193 478 216 446 c 128,-1,4
 239 414 239 414 279 414 c 2,5,-1
 290 414 l 1,6,-1
 290 321 l 1,7,8
 231 321 231 321 202 293.5 c 128,-1,9
 173 266 173 266 173 205.5 c 128,-1,10
 173 145 173 145 202.5 118.5 c 128,-1,11
 232 92 232 92 299 92 c 128,-1,12
 366 92 366 92 394.5 121 c 128,-1,13
 423 150 423 150 423 211 c 2,14,-1
 423 321 l 1,15,-1
 359 321 l 1,16,-1
 359 414 l 1,17,-1
 653 414 l 1,18,-1
 653 321 l 1,19,-1
 541 321 l 1,20,-1
 541 226 l 2,21,22
 541 160 541 160 531.5 118.5 c 128,-1,23
 522 77 522 77 495.5 45 c 128,-1,24
 469 13 469 13 419 -1 c 128,-1,25
 369 -15 369 -15 289 -15 c 0,26,27
 159 -15 159 -15 99 41.5 c 128,-1,28
 39 98 39 98 39 195 c 0,29,30
 39 265 39 265 77.5 312.5 c 128,-1,31
 116 360 116 360 180 376 c 1,32,33
 127 395 127 395 93 440 c 128,-1,34
 59 485 59 485 59 544 c 0,35,36
 59 635 59 635 112.5 689.5 c 128,-1,37
 166 744 166 744 275.5 744 c 128,-1,38
 385 744 385 744 435.5 708 c 128,-1,39
 486 672 486 672 500 593 c 1,40,-1
 386 557 l 1,41,42
 373 637 373 637 294 637 c 0,0,1
EndSplineSet
EndChar

StartChar: quotesingle
Encoding: 39 39 10
Width: 224
GlyphClass: 2
Flags: W
LayerCount: 2
Fore
SplineSet
48 730 m 1,0,-1
 176 730 l 1,1,-1
 176 664 l 1,2,-1
 150 467 l 1,3,-1
 74 467 l 1,4,-1
 48 664 l 1,5,-1
 48 730 l 1,0,-1
EndSplineSet
EndChar

StartChar: parenleft
Encoding: 40 40 11
Width: 318
GlyphClass: 2
Flags: W
LayerCount: 2
Fore
SplineSet
309 28 m 1,0,-1
 309 -66 l 1,1,2
 188 -66 188 -66 130 -6 c 0,3,4
 71 54 71 54 54 142 c 0,5,6
 37 226 37 226 37 315 c 128,-1,7
 37 404 37 404 41.5 455 c 128,-1,8
 46 506 46 506 63 562 c 128,-1,9
 80 618 80 618 108.5 653.5 c 128,-1,10
 137 689 137 689 188 712 c 128,-1,11
 239 735 239 735 309 735 c 1,12,-1
 309 641 l 1,13,14
 250 641 250 641 222 595.5 c 128,-1,15
 194 550 194 550 187.5 497.5 c 128,-1,16
 181 445 181 445 179.5 412 c 128,-1,17
 178 379 178 379 178 335 c 128,-1,18
 178 291 178 291 179.5 258 c 128,-1,19
 181 225 181 225 185.5 187 c 128,-1,20
 190 149 190 149 199 122.5 c 128,-1,21
 208 96 208 96 222 74 c 0,22,23
 250 28 250 28 309 28 c 1,0,-1
EndSplineSet
EndChar

StartChar: parenright
Encoding: 41 41 12
Width: 318
GlyphClass: 2
Flags: W
LayerCount: 2
Fore
SplineSet
9 641 m 1,0,-1
 9 735 l 1,1,2
 130 735 130 735 188 676 c 0,3,4
 247 615 247 615 264 528 c 0,5,6
 281 443 281 443 281 354 c 128,-1,7
 281 265 281 265 276.5 214 c 128,-1,8
 272 163 272 163 255 107 c 128,-1,9
 238 51 238 51 209.5 15.5 c 128,-1,10
 181 -20 181 -20 130 -43 c 128,-1,11
 79 -66 79 -66 9 -66 c 1,12,-1
 9 28 l 1,13,14
 68 28 68 28 96 73.5 c 128,-1,15
 124 119 124 119 130.5 171.5 c 128,-1,16
 137 224 137 224 138.5 257 c 128,-1,17
 140 290 140 290 140 334 c 128,-1,18
 140 378 140 378 138.5 411 c 128,-1,19
 137 444 137 444 132.5 482 c 128,-1,20
 128 520 128 520 119 546.5 c 128,-1,21
 110 573 110 573 96 596 c 0,22,23
 68 641 68 641 9 641 c 1,0,-1
EndSplineSet
EndChar

StartChar: asterisk
Encoding: 42 42 13
Width: 557
GlyphClass: 2
Flags: W
LayerCount: 2
Fore
SplineSet
214 779 m 1,0,-1
 342 779 l 1,1,-1
 342 684 l 1,2,-1
 298 577 l 1,3,-1
 258 577 l 1,4,-1
 214 684 l 1,5,-1
 214 779 l 1,0,-1
24 554 m 1,6,-1
 60 661 l 1,7,-1
 151 631 l 1,8,-1
 241 564 l 1,9,-1
 228 526 l 1,10,-1
 115 523 l 1,11,-1
 24 554 l 1,6,-1
181 293 m 1,12,-1
 84 366 l 1,13,-1
 140 447 l 1,14,-1
 235 506 l 1,15,-1
 267 481 l 1,16,-1
 239 373 l 1,17,-1
 181 293 l 1,12,-1
473 366 m 1,18,-1
 376 293 l 1,19,-1
 318 373 l 1,20,-1
 289 481 l 1,21,-1
 322 505 l 1,22,-1
 417 447 l 1,23,-1
 473 366 l 1,18,-1
497 661 m 1,24,-1
 533 554 l 1,25,-1
 442 523 l 1,26,-1
 329 525 l 1,27,-1
 317 564 l 1,28,-1
 405 631 l 1,29,-1
 497 661 l 1,24,-1
EndSplineSet
EndChar

StartChar: plus
Encoding: 43 43 14
Width: 580
GlyphClass: 2
Flags: W
LayerCount: 2
Fore
SplineSet
86 272 m 1,0,-1
 86 364 l 1,1,-1
 244 364 l 1,2,-1
 244 522 l 1,3,-1
 336 522 l 1,4,-1
 336 364 l 1,5,-1
 494 364 l 1,6,-1
 494 272 l 1,7,-1
 336 272 l 1,8,-1
 336 114 l 1,9,-1
 244 114 l 1,10,-1
 244 272 l 1,11,-1
 86 272 l 1,0,-1
EndSplineSet
EndChar

StartChar: comma
Encoding: 44 44 15
Width: 226
GlyphClass: 2
Flags: W
LayerCount: 2
Fore
SplineSet
55 24.5 m 128,-1,1
 45 54 45 54 45 72 c 128,-1,2
 45 90 45 90 47 101 c 128,-1,3
 49 112 49 112 55 124 c 0,4,5
 68 149 68 149 105 149 c 128,-1,6
 142 149 142 149 158.5 136.5 c 128,-1,7
 175 124 175 124 178 110 c 128,-1,8
 181 96 181 96 181 74 c 0,9,10
 181 -37 181 -37 54 -138 c 1,11,-1
 19 -97 l 1,12,13
 65 -53 65 -53 65 -18 c 0,14,0
 65 -5 65 -5 55 24.5 c 128,-1,1
EndSplineSet
EndChar

StartChar: hyphen
Encoding: 45 45 16
Width: 476
GlyphClass: 2
Flags: W
LayerCount: 2
Fore
SplineSet
62 272 m 1,0,-1
 62 364 l 1,1,-1
 414 364 l 1,2,-1
 414 272 l 1,3,-1
 62 272 l 1,0,-1
EndSplineSet
EndChar

StartChar: period
Encoding: 46 46 17
Width: 234
GlyphClass: 2
Flags: W
LayerCount: 2
Fore
SplineSet
156.5 -1.5 m 128,-1,1
 141 -8 141 -8 113 -8 c 128,-1,2
 85 -8 85 -8 68.5 5 c 128,-1,3
 52 18 52 18 48.5 32.5 c 128,-1,4
 45 47 45 47 45 67 c 128,-1,5
 45 87 45 87 47 98.5 c 128,-1,6
 49 110 49 110 56 123 c 0,7,8
 68 149 68 149 116 149 c 0,9,10
 166 149 166 149 178 123 c 1,11,12
 189 102 189 102 189 77.5 c 128,-1,13
 189 53 189 53 187 42 c 128,-1,14
 185 31 185 31 178.5 18 c 128,-1,0
 172 5 172 5 156.5 -1.5 c 128,-1,1
EndSplineSet
EndChar

StartChar: slash
Encoding: 47 47 18
Width: 356
GlyphClass: 2
Flags: W
LayerCount: 2
Fore
SplineSet
-8 -106 m 1,0,-1
 229 775 l 1,1,-1
 364 775 l 1,2,-1
 127 -106 l 1,3,-1
 -8 -106 l 1,0,-1
EndSplineSet
EndChar

StartChar: zero
Encoding: 48 48 19
Width: 646
GlyphClass: 2
Flags: W
LayerCount: 2
Fore
SplineSet
323 -14 m 128,-1,1
 243 -14 243 -14 188 14.5 c 128,-1,2
 133 43 133 43 104 97.5 c 128,-1,3
 75 152 75 152 63 216 c 128,-1,4
 51 280 51 280 51 365 c 128,-1,5
 51 450 51 450 63 514 c 128,-1,6
 75 578 75 578 104 632.5 c 128,-1,7
 133 687 133 687 188 716 c 128,-1,8
 243 745 243 745 323 745 c 128,-1,9
 403 745 403 745 458.5 716 c 128,-1,10
 514 687 514 687 543 632.5 c 128,-1,11
 572 578 572 578 584 514 c 128,-1,12
 596 450 596 450 596 365 c 128,-1,13
 596 280 596 280 584 216 c 128,-1,14
 572 152 572 152 543 97.5 c 128,-1,15
 514 43 514 43 458.5 14.5 c 128,-1,0
 403 -14 403 -14 323 -14 c 128,-1,1
323 91 m 128,-1,17
 402 91 402 91 431.5 158 c 128,-1,18
 461 225 461 225 461 365 c 128,-1,19
 461 505 461 505 431.5 572 c 128,-1,20
 402 639 402 639 323 639 c 0,21,22
 269 639 269 639 238 605 c 128,-1,23
 207 571 207 571 196.5 514 c 128,-1,24
 186 457 186 457 186 341 c 128,-1,25
 186 225 186 225 215 158 c 128,-1,16
 244 91 244 91 323 91 c 128,-1,17
EndSplineSet
EndChar

StartChar: one
Encoding: 49 49 20
Width: 646
GlyphClass: 2
Flags: W
LayerCount: 2
Fore
SplineSet
129 596 m 1,0,-1
 129 675 l 1,1,2
 246 688 246 688 305 730 c 1,3,-1
 412 730 l 1,4,-1
 412 106 l 1,5,-1
 557 106 l 1,6,-1
 557 0 l 1,7,-1
 131 0 l 1,8,-1
 131 106 l 1,9,-1
 276 106 l 1,10,-1
 276 596 l 1,11,-1
 129 596 l 1,0,-1
EndSplineSet
EndChar

StartChar: two
Encoding: 50 50 21
Width: 646
GlyphClass: 2
Flags: W
LayerCount: 2
Fore
SplineSet
324 744 m 0,0,1
 439 744 439 744 499.5 688.5 c 128,-1,2
 560 633 560 633 560 539 c 0,3,4
 560 482 560 482 532.5 431.5 c 128,-1,5
 505 381 505 381 452 323 c 2,6,-1
 252 106 l 1,7,-1
 571 106 l 1,8,-1
 571 0 l 1,9,-1
 68 0 l 1,10,-1
 68 96 l 1,11,-1
 334 385 l 2,12,13
 383 438 383 438 404.5 470.5 c 128,-1,14
 426 503 426 503 426 543.5 c 128,-1,15
 426 584 426 584 398 611 c 128,-1,16
 370 638 370 638 315 638 c 0,17,18
 200 638 200 638 194 526 c 1,19,-1
 77 543 l 1,20,21
 94 744 94 744 324 744 c 0,0,1
EndSplineSet
EndChar

StartChar: three
Encoding: 51 51 22
Width: 646
GlyphClass: 2
Flags: W
LayerCount: 2
Fore
SplineSet
307 92 m 0,0,1
 440 92 440 92 440 198 c 0,2,3
 440 312 440 312 297 312 c 2,4,-1
 223 312 l 1,5,-1
 223 410 l 1,6,-1
 298 410 l 2,7,8
 369 410 369 410 399.5 440 c 128,-1,9
 430 470 430 470 430 524.5 c 128,-1,10
 430 579 430 579 398.5 608.5 c 128,-1,11
 367 638 367 638 307 638 c 0,12,13
 195 638 195 638 189 525 c 1,14,-1
 72 541 l 1,15,16
 87 744 87 744 316 744 c 0,17,18
 436 744 436 744 500 684.5 c 128,-1,19
 564 625 564 625 564 526 c 0,20,21
 564 415 564 415 456 364 c 1,22,23
 573 317 573 317 573 189 c 0,24,25
 573 99 573 99 502.5 42.5 c 128,-1,26
 432 -14 432 -14 313 -14 c 128,-1,27
 194 -14 194 -14 131.5 33 c 128,-1,28
 69 80 69 80 59 178 c 1,29,-1
 176 193 l 1,30,31
 188 92 188 92 307 92 c 0,0,1
EndSplineSet
EndChar

StartChar: four
Encoding: 52 52 23
Width: 646
GlyphClass: 2
Flags: W
LayerCount: 2
Fore
SplineSet
504 0 m 1,0,-1
 373 0 l 1,1,-1
 373 154 l 1,2,-1
 20 154 l 1,3,-1
 20 252 l 1,4,-1
 305 730 l 1,5,-1
 504 730 l 1,6,-1
 504 260 l 1,7,-1
 581 260 l 1,8,-1
 581 154 l 1,9,-1
 504 154 l 1,10,-1
 504 0 l 1,0,-1
373 260 m 1,11,-1
 373 605 l 1,12,-1
 172 260 l 1,13,-1
 373 260 l 1,11,-1
EndSplineSet
EndChar

StartChar: five
Encoding: 53 53 24
Width: 646
GlyphClass: 2
Flags: W
LayerCount: 2
Fore
SplineSet
327 91 m 0,0,1
 391 91 391 91 422.5 125 c 128,-1,2
 454 159 454 159 454 218.5 c 128,-1,3
 454 278 454 278 404 313 c 128,-1,4
 354 348 354 348 222 348 c 2,5,-1
 98 348 l 1,6,-1
 123 730 l 1,7,-1
 543 730 l 1,8,-1
 543 624 l 1,9,-1
 236 624 l 1,10,-1
 225 457 l 1,11,-1
 269 457 l 2,12,13
 433 457 433 457 511 393 c 128,-1,14
 589 329 589 329 589 214 c 0,15,16
 589 117 589 117 521.5 51.5 c 128,-1,17
 454 -14 454 -14 327 -14 c 0,18,19
 99 -14 99 -14 86 208 c 1,20,-1
 203 218 l 1,21,22
 209 91 209 91 327 91 c 0,0,1
EndSplineSet
EndChar

StartChar: six
Encoding: 54 54 25
Width: 646
GlyphClass: 2
Flags: W
LayerCount: 2
Fore
SplineSet
334 638 m 0,0,1
 259 638 259 638 229 582.5 c 128,-1,2
 199 527 199 527 195 415 c 1,3,4
 280 434 280 434 353 434 c 0,5,6
 594 434 594 434 594 220 c 0,7,8
 594 107 594 107 530 46.5 c 128,-1,9
 466 -14 466 -14 328 -14 c 0,10,11
 63 -14 63 -14 63 334 c 0,12,13
 63 537 63 537 123 640.5 c 128,-1,14
 183 744 183 744 334 744 c 0,15,16
 565 744 565 744 578 533 c 1,17,-1
 461 521 l 1,18,19
 455 638 455 638 334 638 c 0,0,1
323 334 m 0,20,21
 257 334 257 334 195 317 c 1,22,23
 199 192 199 192 231 141.5 c 128,-1,24
 263 91 263 91 334 91 c 0,25,26
 462 91 462 91 462 220 c 0,27,28
 462 334 462 334 323 334 c 0,20,21
EndSplineSet
EndChar

StartChar: seven
Encoding: 55 55 26
Width: 646
GlyphClass: 2
Flags: W
LayerCount: 2
Fore
SplineSet
68 624 m 1,0,-1
 68 730 l 1,1,-1
 570 730 l 1,2,-1
 570 638 l 1,3,-1
 294 0 l 1,4,-1
 149 0 l 1,5,-1
 423 624 l 1,6,-1
 68 624 l 1,0,-1
EndSplineSet
EndChar

StartChar: eight
Encoding: 56 56 27
Width: 646
GlyphClass: 2
Flags: W
LayerCount: 2
Fore
SplineSet
58 190 m 0,0,1
 58 309 58 309 165 363 c 1,2,3
 68 413 68 413 68 533 c 0,4,5
 68 625 68 625 133.5 684.5 c 128,-1,6
 199 744 199 744 323.5 744 c 128,-1,7
 448 744 448 744 513.5 684.5 c 128,-1,8
 579 625 579 625 579 533 c 0,9,10
 579 423 579 423 483 370 c 1,11,12
 589 318 589 318 589 190 c 0,13,14
 589 101 589 101 517 43.5 c 128,-1,15
 445 -14 445 -14 323.5 -14 c 128,-1,16
 202 -14 202 -14 130 43.5 c 128,-1,17
 58 101 58 101 58 190 c 0,0,1
194 193 m 0,18,19
 194 146 194 146 227 117 c 128,-1,20
 260 88 260 88 323 88 c 128,-1,21
 386 88 386 88 420 117.5 c 128,-1,22
 454 147 454 147 454 196.5 c 128,-1,23
 454 246 454 246 432 276.5 c 128,-1,24
 410 307 410 307 356 316 c 1,25,-1
 288 326 l 1,26,27
 194 306 194 306 194 193 c 0,18,19
232.5 609.5 m 128,-1,29
 203 577 203 577 203 527 c 128,-1,30
 203 477 203 477 224.5 450 c 128,-1,31
 246 423 246 423 301 414 c 2,32,-1
 357 405 l 1,33,34
 400 416 400 416 422 448 c 128,-1,35
 444 480 444 480 444 528.5 c 128,-1,36
 444 577 444 577 414.5 609.5 c 128,-1,37
 385 642 385 642 323.5 642 c 128,-1,28
 262 642 262 642 232.5 609.5 c 128,-1,29
EndSplineSet
EndChar

StartChar: nine
Encoding: 57 57 28
Width: 646
GlyphClass: 2
Flags: W
LayerCount: 2
Fore
SplineSet
308 91 m 0,0,1
 382 91 382 91 412 141.5 c 128,-1,2
 442 192 442 192 447 310 c 1,3,4
 374 291 374 291 293 291 c 0,5,6
 165 291 165 291 108 350 c 128,-1,7
 51 409 51 409 51 509 c 128,-1,8
 51 609 51 609 123.5 676.5 c 128,-1,9
 196 744 196 744 330 744 c 128,-1,10
 464 744 464 744 523.5 652.5 c 128,-1,11
 583 561 583 561 583 390 c 0,12,13
 583 289 583 289 571 218.5 c 128,-1,14
 559 148 559 148 529 94 c 0,15,16
 470 -14 470 -14 309 -14 c 0,17,18
 74 -14 74 -14 63 194 c 1,19,-1
 179 207 l 1,20,21
 185 91 185 91 308 91 c 0,0,1
219.5 427.5 m 128,-1,23
 252 393 252 393 321 393 c 128,-1,24
 390 393 390 393 447 408 c 1,25,26
 444 528 444 528 416.5 583 c 128,-1,27
 389 638 389 638 322.5 638 c 128,-1,28
 256 638 256 638 221.5 603 c 128,-1,29
 187 568 187 568 187 515 c 128,-1,22
 187 462 187 462 219.5 427.5 c 128,-1,23
EndSplineSet
EndChar

StartChar: colon
Encoding: 58 58 29
Width: 234
GlyphClass: 2
Flags: W
LayerCount: 2
Fore
SplineSet
156.5 -1.5 m 128,-1,1
 141 -8 141 -8 113 -8 c 128,-1,2
 85 -8 85 -8 68.5 5 c 128,-1,3
 52 18 52 18 48.5 32.5 c 128,-1,4
 45 47 45 47 45 67 c 128,-1,5
 45 87 45 87 47 98.5 c 128,-1,6
 49 110 49 110 56 123 c 0,7,8
 68 149 68 149 116 149 c 0,9,10
 166 149 166 149 178 123 c 1,11,12
 189 102 189 102 189 77.5 c 128,-1,13
 189 53 189 53 187 42 c 128,-1,14
 185 31 185 31 178.5 18 c 128,-1,0
 172 5 172 5 156.5 -1.5 c 128,-1,1
156.5 395.5 m 128,-1,16
 141 389 141 389 113 389 c 128,-1,17
 85 389 85 389 68.5 402 c 128,-1,18
 52 415 52 415 48.5 429.5 c 128,-1,19
 45 444 45 444 45 464 c 128,-1,20
 45 484 45 484 47 495.5 c 128,-1,21
 49 507 49 507 56 520 c 0,22,23
 68 546 68 546 116 546 c 0,24,25
 166 546 166 546 178 520 c 1,26,27
 189 499 189 499 189 474.5 c 128,-1,28
 189 450 189 450 187 439 c 128,-1,29
 185 428 185 428 178.5 415 c 128,-1,15
 172 402 172 402 156.5 395.5 c 128,-1,16
EndSplineSet
EndChar

StartChar: semicolon
Encoding: 59 59 30
Width: 226
GlyphClass: 2
Flags: W
LayerCount: 2
Fore
SplineSet
55 24.5 m 128,-1,1
 45 54 45 54 45 72 c 128,-1,2
 45 90 45 90 47 101 c 128,-1,3
 49 112 49 112 55 124 c 0,4,5
 68 149 68 149 105 149 c 128,-1,6
 142 149 142 149 158.5 136.5 c 128,-1,7
 175 124 175 124 178 110 c 128,-1,8
 181 96 181 96 181 74 c 0,9,10
 181 -37 181 -37 54 -138 c 1,11,-1
 19 -97 l 1,12,13
 65 -53 65 -53 65 -18 c 0,14,0
 65 -5 65 -5 55 24.5 c 128,-1,1
152.5 395.5 m 128,-1,16
 137 389 137 389 109 389 c 128,-1,17
 81 389 81 389 64.5 402 c 128,-1,18
 48 415 48 415 44.5 429.5 c 128,-1,19
 41 444 41 444 41 464 c 128,-1,20
 41 484 41 484 43 495.5 c 128,-1,21
 45 507 45 507 52 520 c 0,22,23
 64 546 64 546 112 546 c 0,24,25
 162 546 162 546 174 520 c 1,26,27
 185 499 185 499 185 474.5 c 128,-1,28
 185 450 185 450 183 439 c 128,-1,29
 181 428 181 428 174.5 415 c 128,-1,15
 168 402 168 402 152.5 395.5 c 128,-1,16
EndSplineSet
EndChar

StartChar: less
Encoding: 60 60 31
Width: 580
GlyphClass: 2
Flags: W
LayerCount: 2
Fore
SplineSet
89 259 m 1,0,-1
 89 375 l 1,1,-1
 491 547 l 1,2,-1
 491 445 l 1,3,-1
 173 317 l 1,4,-1
 491 189 l 1,5,-1
 491 87 l 1,6,-1
 89 259 l 1,0,-1
EndSplineSet
EndChar

StartChar: equal
Encoding: 61 61 32
Width: 580
GlyphClass: 2
Flags: W
LayerCount: 2
Fore
SplineSet
86 380 m 1,0,-1
 86 472 l 1,1,-1
 494 472 l 1,2,-1
 494 380 l 1,3,-1
 86 380 l 1,0,-1
86 164 m 1,4,-1
 86 256 l 1,5,-1
 494 256 l 1,6,-1
 494 164 l 1,7,-1
 86 164 l 1,4,-1
EndSplineSet
EndChar

StartChar: greater
Encoding: 62 62 33
Width: 580
GlyphClass: 2
Flags: W
LayerCount: 2
Fore
SplineSet
491 375 m 1,0,-1
 491 259 l 1,1,-1
 89 87 l 1,2,-1
 89 189 l 1,3,-1
 406 317 l 1,4,-1
 89 445 l 1,5,-1
 89 547 l 1,6,-1
 491 375 l 1,0,-1
EndSplineSet
EndChar

StartChar: question
Encoding: 63 63 34
Width: 468
GlyphClass: 2
Flags: W
LayerCount: 2
Fore
SplineSet
249.5 -1.5 m 128,-1,1
 234 -8 234 -8 206 -8 c 128,-1,2
 178 -8 178 -8 161.5 5 c 128,-1,3
 145 18 145 18 141.5 32.5 c 128,-1,4
 138 47 138 47 138 67 c 128,-1,5
 138 87 138 87 140 98.5 c 128,-1,6
 142 110 142 110 148 123 c 0,7,8
 162 149 162 149 209 149 c 0,9,10
 258 149 258 149 272 123 c 1,11,12
 282 102 282 102 282 77.5 c 128,-1,13
 282 53 282 53 280 42 c 128,-1,14
 278 31 278 31 271.5 18 c 128,-1,0
 265 5 265 5 249.5 -1.5 c 128,-1,1
82.5 698.5 m 128,-1,16
 137 744 137 744 239 744 c 128,-1,17
 341 744 341 744 400.5 682.5 c 128,-1,18
 460 621 460 621 460 537.5 c 128,-1,19
 460 454 460 454 404.5 399.5 c 128,-1,20
 349 345 349 345 261 319 c 1,21,-1
 250 209 l 1,22,-1
 166 209 l 1,23,-1
 157 365 l 1,24,25
 248 393 248 393 287 432.5 c 128,-1,26
 326 472 326 472 326 524 c 128,-1,27
 326 576 326 576 302.5 609.5 c 128,-1,28
 279 643 279 643 231 643 c 0,29,30
 143 643 143 643 135 555 c 1,31,-1
 20 571 l 1,32,15
 28 653 28 653 82.5 698.5 c 128,-1,16
EndSplineSet
EndChar

StartChar: at
Encoding: 64 64 35
Width: 1052
GlyphClass: 2
Flags: W
LayerCount: 2
Fore
SplineSet
534 -113 m 2,0,1
 234 -113 234 -113 134 60 c 0,2,3
 74 163 74 163 74 328 c 0,4,5
 74 533 74 533 188 651 c 128,-1,6
 302 769 302 769 524 769 c 128,-1,7
 746 769 746 769 862 662 c 128,-1,8
 978 555 978 555 978 365 c 0,9,10
 978 253 978 253 934 192 c 1,11,12
 884 125 884 125 749 125 c 2,13,-1
 630 125 l 1,14,-1
 597 173 l 1,15,16
 535 115 535 115 463 115 c 0,17,18
 310 115 310 115 310 340 c 128,-1,19
 310 565 310 565 496 565 c 0,20,21
 565 565 565 565 631 533 c 1,22,-1
 656 565 l 1,23,-1
 708 565 l 1,24,-1
 708 213 l 1,25,-1
 737 213 l 2,26,27
 807 213 807 213 834 247 c 128,-1,28
 861 281 861 281 861 365 c 0,29,30
 861 504 861 504 784 589 c 128,-1,31
 707 674 707 674 534 674 c 0,32,33
 350 674 350 674 272 578 c 0,34,35
 200 489 200 489 200 328 c 0,36,37
 200 262 200 262 207.5 212.5 c 128,-1,38
 215 163 215 163 237 117.5 c 128,-1,39
 259 72 259 72 296 44 c 1,40,41
 374 -18 374 -18 534 -18 c 2,42,-1
 708 -18 l 1,43,-1
 708 -113 l 1,44,-1
 534 -113 l 2,0,1
513 206 m 0,45,46
 551 206 551 206 586 241 c 1,47,-1
 586 463 l 1,48,49
 560 473 560 473 529 473 c 0,50,51
 476 473 476 473 453 440 c 128,-1,52
 430 407 430 407 430 340 c 0,53,54
 430 206 430 206 513 206 c 0,45,46
EndSplineSet
EndChar

StartChar: A
Encoding: 65 65 36
Width: 642
GlyphClass: 2
Flags: W
LayerCount: 2
Fore
SplineSet
233 730 m 1,0,-1
 410 730 l 1,1,-1
 634 0 l 1,2,-1
 503 0 l 1,3,-1
 441 202 l 1,4,-1
 201 202 l 1,5,-1
 140 0 l 1,6,-1
 8 0 l 1,7,-1
 233 730 l 1,0,-1
321 601 m 1,8,-1
 232 305 l 1,9,-1
 410 305 l 1,10,-1
 321 601 l 1,8,-1
EndSplineSet
EndChar

StartChar: B
Encoding: 66 66 37
Width: 625
GlyphClass: 2
Flags: W
LayerCount: 2
Fore
SplineSet
358 0 m 2,0,-1
 94 0 l 1,1,-1
 94 730 l 1,2,-1
 324 730 l 2,3,4
 459 730 459 730 512 670 c 0,5,6
 559 616 559 616 559 543 c 0,7,8
 559 418 559 418 452 377 c 1,9,10
 524 357 524 357 557.5 307 c 128,-1,11
 591 257 591 257 591 195 c 0,12,13
 591 118 591 118 544 63 c 0,14,15
 520 34 520 34 472 17 c 128,-1,16
 424 0 424 0 358 0 c 2,0,-1
230 105 m 1,17,-1
 350 105 l 2,18,19
 402 105 402 105 428.5 134 c 128,-1,20
 455 163 455 163 455 213 c 128,-1,21
 455 263 455 263 428.5 292 c 128,-1,22
 402 321 402 321 350 321 c 2,23,-1
 230 321 l 1,24,-1
 230 105 l 1,17,-1
230 425 m 1,25,-1
 322 425 l 2,26,27
 370 425 370 425 396.5 451.5 c 128,-1,28
 423 478 423 478 423 524.5 c 128,-1,29
 423 571 423 571 396.5 598 c 128,-1,30
 370 625 370 625 322 625 c 2,31,-1
 230 625 l 1,32,-1
 230 425 l 1,25,-1
EndSplineSet
EndChar

StartChar: C
Encoding: 67 67 38
Width: 626
GlyphClass: 2
Flags: W
LayerCount: 2
Fore
SplineSet
352 634 m 0,0,1
 258 634 258 634 225 572.5 c 128,-1,2
 192 511 192 511 192 365.5 c 128,-1,3
 192 220 192 220 225 158 c 128,-1,4
 258 96 258 96 352 96 c 0,5,6
 425 96 425 96 455.5 136 c 128,-1,7
 486 176 486 176 488 252 c 1,8,-1
 598 247 l 1,9,10
 590 118 590 118 536.5 52 c 128,-1,11
 483 -14 483 -14 352 -14 c 0,12,13
 181 -14 181 -14 116 86 c 0,14,15
 83 136 83 136 69.5 202.5 c 128,-1,16
 56 269 56 269 56 365 c 128,-1,17
 56 461 56 461 69.5 527.5 c 128,-1,18
 83 594 83 594 116 644 c 0,19,20
 181 744 181 744 352 744 c 0,21,22
 475 744 475 744 529 689 c 128,-1,23
 583 634 583 634 595 527 c 1,24,-1
 485 510 l 1,25,26
 479 570 479 570 448 602 c 128,-1,27
 417 634 417 634 352 634 c 0,0,1
EndSplineSet
EndChar

StartChar: D
Encoding: 68 68 39
Width: 698
GlyphClass: 2
Flags: W
LayerCount: 2
Fore
SplineSet
94 730 m 1,0,-1
 337 730 l 2,1,2
 514 730 514 730 577 622 c 0,3,4
 608 570 608 570 620 509 c 128,-1,5
 632 448 632 448 632 373.5 c 128,-1,6
 632 299 632 299 625 248 c 128,-1,7
 618 197 618 197 598.5 148.5 c 128,-1,8
 579 100 579 100 547 69 c 0,9,10
 476 0 476 0 337 0 c 2,11,-1
 94 0 l 1,12,-1
 94 730 l 1,0,-1
319 625 m 2,13,-1
 230 625 l 1,14,-1
 230 105 l 1,15,-1
 319 105 l 2,16,17
 426 105 426 105 464 182 c 0,18,19
 496 249 496 249 496 365 c 128,-1,20
 496 481 496 481 464 548 c 0,21,22
 426 625 426 625 319 625 c 2,13,-1
EndSplineSet
EndChar

StartChar: E
Encoding: 69 69 40
Width: 560
GlyphClass: 2
Flags: W
LayerCount: 2
Fore
SplineSet
94 730 m 1,0,-1
 506 730 l 1,1,-1
 506 625 l 1,2,-1
 230 625 l 1,3,-1
 230 423 l 1,4,-1
 481 423 l 1,5,-1
 481 319 l 1,6,-1
 230 319 l 1,7,-1
 230 105 l 1,8,-1
 526 105 l 1,9,-1
 526 0 l 1,10,-1
 94 0 l 1,11,-1
 94 730 l 1,0,-1
EndSplineSet
EndChar

StartChar: F
Encoding: 70 70 41
Width: 512
GlyphClass: 2
Flags: W
LayerCount: 2
Fore
SplineSet
94 730 m 1,0,-1
 486 730 l 1,1,-1
 486 625 l 1,2,-1
 230 625 l 1,3,-1
 230 423 l 1,4,-1
 453 423 l 1,5,-1
 453 319 l 1,6,-1
 230 319 l 1,7,-1
 230 0 l 1,8,-1
 94 0 l 1,9,-1
 94 730 l 1,0,-1
EndSplineSet
PairPos2: "'kern' Horizontal Kerning lookup 0 per glyph data 1" oe dx=0 dy=0 dh=-40 dv=0 dx=0 dy=0 dh=0 dv=0
PairPos2: "'kern' Horizontal Kerning lookup 0 per glyph data 1" oslash dx=0 dy=0 dh=-40 dv=0 dx=0 dy=0 dh=0 dv=0
PairPos2: "'kern' Horizontal Kerning lookup 0 per glyph data 1" odieresis dx=0 dy=0 dh=-40 dv=0 dx=0 dy=0 dh=0 dv=0
PairPos2: "'kern' Horizontal Kerning lookup 0 per glyph data 1" otilde dx=0 dy=0 dh=-40 dv=0 dx=0 dy=0 dh=0 dv=0
PairPos2: "'kern' Horizontal Kerning lookup 0 per glyph data 1" ocircumflex dx=0 dy=0 dh=-40 dv=0 dx=0 dy=0 dh=0 dv=0
PairPos2: "'kern' Horizontal Kerning lookup 0 per glyph data 1" oacute dx=0 dy=0 dh=-40 dv=0 dx=0 dy=0 dh=0 dv=0
PairPos2: "'kern' Horizontal Kerning lookup 0 per glyph data 1" ograve dx=0 dy=0 dh=-40 dv=0 dx=0 dy=0 dh=0 dv=0
PairPos2: "'kern' Horizontal Kerning lookup 0 per glyph data 1" edieresis dx=0 dy=0 dh=-40 dv=0 dx=0 dy=0 dh=0 dv=0
PairPos2: "'kern' Horizontal Kerning lookup 0 per glyph data 1" ecircumflex dx=0 dy=0 dh=-40 dv=0 dx=0 dy=0 dh=0 dv=0
PairPos2: "'kern' Horizontal Kerning lookup 0 per glyph data 1" eacute dx=0 dy=0 dh=-40 dv=0 dx=0 dy=0 dh=0 dv=0
PairPos2: "'kern' Horizontal Kerning lookup 0 per glyph data 1" egrave dx=0 dy=0 dh=-40 dv=0 dx=0 dy=0 dh=0 dv=0
PairPos2: "'kern' Horizontal Kerning lookup 0 per glyph data 1" ccedilla dx=0 dy=0 dh=-40 dv=0 dx=0 dy=0 dh=0 dv=0
PairPos2: "'kern' Horizontal Kerning lookup 0 per glyph data 1" AE dx=0 dy=0 dh=-110 dv=0 dx=0 dy=0 dh=0 dv=0
PairPos2: "'kern' Horizontal Kerning lookup 0 per glyph data 1" Aring dx=0 dy=0 dh=-80 dv=0 dx=0 dy=0 dh=0 dv=0
PairPos2: "'kern' Horizontal Kerning lookup 0 per glyph data 1" Adieresis dx=0 dy=0 dh=-80 dv=0 dx=0 dy=0 dh=0 dv=0
PairPos2: "'kern' Horizontal Kerning lookup 0 per glyph data 1" Atilde dx=0 dy=0 dh=-80 dv=0 dx=0 dy=0 dh=0 dv=0
PairPos2: "'kern' Horizontal Kerning lookup 0 per glyph data 1" Acircumflex dx=0 dy=0 dh=-80 dv=0 dx=0 dy=0 dh=0 dv=0
PairPos2: "'kern' Horizontal Kerning lookup 0 per glyph data 1" Aacute dx=0 dy=0 dh=-80 dv=0 dx=0 dy=0 dh=0 dv=0
PairPos2: "'kern' Horizontal Kerning lookup 0 per glyph data 1" Agrave dx=0 dy=0 dh=-80 dv=0 dx=0 dy=0 dh=0 dv=0
PairPos2: "'kern' Horizontal Kerning lookup 0 per glyph data 1" q dx=0 dy=0 dh=-40 dv=0 dx=0 dy=0 dh=0 dv=0
PairPos2: "'kern' Horizontal Kerning lookup 0 per glyph data 1" o dx=0 dy=0 dh=-40 dv=0 dx=0 dy=0 dh=0 dv=0
PairPos2: "'kern' Horizontal Kerning lookup 0 per glyph data 1" g dx=0 dy=0 dh=-40 dv=0 dx=0 dy=0 dh=0 dv=0
PairPos2: "'kern' Horizontal Kerning lookup 0 per glyph data 1" e dx=0 dy=0 dh=-40 dv=0 dx=0 dy=0 dh=0 dv=0
PairPos2: "'kern' Horizontal Kerning lookup 0 per glyph data 1" d dx=0 dy=0 dh=-40 dv=0 dx=0 dy=0 dh=0 dv=0
PairPos2: "'kern' Horizontal Kerning lookup 0 per glyph data 1" c dx=0 dy=0 dh=-40 dv=0 dx=0 dy=0 dh=0 dv=0
PairPos2: "'kern' Horizontal Kerning lookup 0 per glyph data 1" A dx=0 dy=0 dh=-80 dv=0 dx=0 dy=0 dh=0 dv=0
EndChar

StartChar: G
Encoding: 71 71 42
Width: 695
GlyphClass: 2
Flags: W
LayerCount: 2
Fore
SplineSet
348 96 m 0,0,1
 492 96 492 96 494 252 c 1,2,-1
 494 286 l 1,3,-1
 382 286 l 1,4,-1
 382 373 l 1,5,-1
 611 373 l 1,6,-1
 611 0 l 1,7,-1
 543 0 l 1,8,-1
 520 73 l 1,9,10
 456 -14 456 -14 340 -14 c 0,11,12
 176 -14 176 -14 114 88 c 0,13,14
 82 140 82 140 69 206 c 128,-1,15
 56 272 56 272 56 366.5 c 128,-1,16
 56 461 56 461 69.5 527.5 c 128,-1,17
 83 594 83 594 116 644 c 0,18,19
 181 744 181 744 352 744 c 0,20,21
 475 744 475 744 529 689 c 128,-1,22
 583 634 583 634 595 527 c 1,23,-1
 485 510 l 1,24,25
 479 570 479 570 448 602 c 128,-1,26
 417 634 417 634 352 634 c 0,27,28
 258 634 258 634 225 572 c 128,-1,29
 192 510 192 510 192 367 c 128,-1,30
 192 224 192 224 224.5 160 c 128,-1,31
 257 96 257 96 348 96 c 0,0,1
EndSplineSet
EndChar

StartChar: H
Encoding: 72 72 43
Width: 730
GlyphClass: 2
Flags: W
LayerCount: 2
Fore
SplineSet
500 730 m 1,0,-1
 636 730 l 1,1,-1
 636 0 l 1,2,-1
 500 0 l 1,3,-1
 500 313 l 1,4,-1
 230 313 l 1,5,-1
 230 0 l 1,6,-1
 94 0 l 1,7,-1
 94 730 l 1,8,-1
 230 730 l 1,9,-1
 230 417 l 1,10,-1
 500 417 l 1,11,-1
 500 730 l 1,0,-1
EndSplineSet
EndChar

StartChar: I
Encoding: 73 73 44
Width: 324
GlyphClass: 2
Flags: W
LayerCount: 2
Fore
SplineSet
94 730 m 1,0,-1
 230 730 l 1,1,-1
 230 0 l 1,2,-1
 94 0 l 1,3,-1
 94 730 l 1,0,-1
EndSplineSet
EndChar

StartChar: J
Encoding: 74 74 45
Width: 485
GlyphClass: 2
Flags: W
LayerCount: 2
Fore
SplineSet
406 730 m 1,0,-1
 406 183 l 2,1,2
 406 137 406 137 399.5 107 c 128,-1,3
 393 77 393 77 373 46 c 0,4,5
 333 -14 333 -14 194 -14 c 0,6,7
 81 -14 81 -14 42 34 c 0,8,9
 16 67 16 67 11 101 c 0,10,11
 4 148 4 148 4 207 c 1,12,-1
 122 207 l 1,13,14
 122 145 122 145 138 120.5 c 128,-1,15
 154 96 154 96 196.5 96 c 128,-1,16
 239 96 239 96 254.5 115 c 128,-1,17
 270 134 270 134 270 183 c 2,18,-1
 270 730 l 1,19,-1
 406 730 l 1,0,-1
EndSplineSet
EndChar

StartChar: K
Encoding: 75 75 46
Width: 621
GlyphClass: 2
Flags: W
LayerCount: 2
Fore
SplineSet
230 319 m 1,0,-1
 230 0 l 1,1,-1
 94 0 l 1,2,-1
 94 730 l 1,3,-1
 230 730 l 1,4,-1
 230 422 l 1,5,-1
 281 422 l 1,6,-1
 466 730 l 1,7,-1
 606 730 l 1,8,-1
 386 370 l 1,9,-1
 625 0 l 1,10,-1
 480 0 l 1,11,-1
 275 319 l 1,12,-1
 230 319 l 1,0,-1
EndSplineSet
EndChar

StartChar: L
Encoding: 76 76 47
Width: 483
GlyphClass: 2
Flags: W
LayerCount: 2
Fore
SplineSet
94 0 m 1,0,-1
 94 730 l 1,1,-1
 230 730 l 1,2,-1
 230 105 l 1,3,-1
 479 105 l 1,4,-1
 479 0 l 1,5,-1
 94 0 l 1,0,-1
EndSplineSet
EndChar

StartChar: M
Encoding: 77 77 48
Width: 885
GlyphClass: 2
Flags: W
LayerCount: 2
Fore
SplineSet
592 730 m 1,0,-1
 782 730 l 1,1,-1
 801 0 l 1,2,-1
 667 0 l 1,3,-1
 656 562 l 1,4,-1
 493 87 l 1,5,-1
 375 87 l 1,6,-1
 228 546 l 1,7,-1
 218 0 l 1,8,-1
 84 0 l 1,9,-1
 102 730 l 1,10,-1
 293 730 l 1,11,-1
 436 269 l 1,12,-1
 592 730 l 1,0,-1
EndSplineSet
EndChar

StartChar: N
Encoding: 78 78 49
Width: 757
GlyphClass: 2
Flags: W
LayerCount: 2
Fore
SplineSet
527 730 m 1,0,-1
 663 730 l 1,1,-1
 663 0 l 1,2,-1
 519 0 l 1,3,-1
 230 496 l 1,4,-1
 230 0 l 1,5,-1
 94 0 l 1,6,-1
 94 730 l 1,7,-1
 238 730 l 1,8,-1
 527 233 l 1,9,-1
 527 730 l 1,0,-1
EndSplineSet
EndChar

StartChar: O
Encoding: 79 79 50
Width: 709
GlyphClass: 2
Flags: W
LayerCount: 2
Fore
SplineSet
502.5 14.5 m 128,-1,1
 442 -14 442 -14 362.5 -14 c 128,-1,2
 283 -14 283 -14 230 5.5 c 128,-1,3
 177 25 177 25 144 57.5 c 128,-1,4
 111 90 111 90 91 140 c 0,5,6
 56 228 56 228 56 365 c 0,7,8
 56 450 56 450 69 514 c 128,-1,9
 82 578 82 578 114 632 c 0,10,11
 178 744 178 744 354 744 c 0,12,13
 554 744 554 744 618 589 c 0,14,15
 653 502 653 502 653 365 c 0,16,17
 653 279 653 279 640 215 c 128,-1,18
 627 151 627 151 595 97 c 128,-1,0
 563 43 563 43 502.5 14.5 c 128,-1,1
354 96 m 0,19,20
 445 96 445 96 481 167 c 128,-1,21
 517 238 517 238 517 365 c 128,-1,22
 517 492 517 492 481 563 c 128,-1,23
 445 634 445 634 354 634 c 0,24,25
 258 634 258 634 223 556 c 0,26,27
 192 485 192 485 192 365 c 0,28,29
 192 165 192 165 273 116 c 0,30,31
 306 96 306 96 354 96 c 0,19,20
EndSplineSet
EndChar

StartChar: P
Encoding: 80 80 51
Width: 597
GlyphClass: 2
Flags: W
LayerCount: 2
Fore
SplineSet
346 259 m 2,0,-1
 230 259 l 1,1,-1
 230 0 l 1,2,-1
 94 0 l 1,3,-1
 94 730 l 1,4,-1
 346 730 l 2,5,6
 478 730 478 730 532 658 c 1,7,8
 579 593 579 593 579 494 c 0,9,10
 579 396 579 396 532 332 c 0,11,12
 478 259 478 259 346 259 c 2,0,-1
230 364 m 1,13,-1
 325 364 l 2,14,15
 443 364 443 364 443 494.5 c 128,-1,16
 443 625 443 625 325 625 c 2,17,-1
 230 625 l 1,18,-1
 230 364 l 1,13,-1
EndSplineSet
PairPos2: "'kern' Horizontal Kerning lookup 0 per glyph data 1" AE dx=0 dy=0 dh=-95 dv=0 dx=0 dy=0 dh=0 dv=0
PairPos2: "'kern' Horizontal Kerning lookup 0 per glyph data 1" Aring dx=0 dy=0 dh=-65 dv=0 dx=0 dy=0 dh=0 dv=0
PairPos2: "'kern' Horizontal Kerning lookup 0 per glyph data 1" Adieresis dx=0 dy=0 dh=-65 dv=0 dx=0 dy=0 dh=0 dv=0
PairPos2: "'kern' Horizontal Kerning lookup 0 per glyph data 1" Atilde dx=0 dy=0 dh=-65 dv=0 dx=0 dy=0 dh=0 dv=0
PairPos2: "'kern' Horizontal Kerning lookup 0 per glyph data 1" Acircumflex dx=0 dy=0 dh=-65 dv=0 dx=0 dy=0 dh=0 dv=0
PairPos2: "'kern' Horizontal Kerning lookup 0 per glyph data 1" Aacute dx=0 dy=0 dh=-65 dv=0 dx=0 dy=0 dh=0 dv=0
PairPos2: "'kern' Horizontal Kerning lookup 0 per glyph data 1" Agrave dx=0 dy=0 dh=-65 dv=0 dx=0 dy=0 dh=0 dv=0
PairPos2: "'kern' Horizontal Kerning lookup 0 per glyph data 1" A dx=0 dy=0 dh=-65 dv=0 dx=0 dy=0 dh=0 dv=0
EndChar

StartChar: Q
Encoding: 81 81 52
Width: 699
GlyphClass: 2
Flags: W
LayerCount: 2
Fore
SplineSet
63 239 m 128,-1,1
 56 293 56 293 56 376 c 128,-1,2
 56 459 56 459 68.5 524.5 c 128,-1,3
 81 590 81 590 113 642 c 128,-1,4
 145 694 145 694 203.5 719 c 128,-1,5
 262 744 262 744 349 744 c 128,-1,6
 436 744 436 744 495 718.5 c 128,-1,7
 554 693 554 693 585.5 641.5 c 128,-1,8
 617 590 617 590 630 524.5 c 128,-1,9
 643 459 643 459 643 343 c 128,-1,10
 643 227 643 227 613 141.5 c 128,-1,11
 583 56 583 56 507 17 c 1,12,-1
 639 -39 l 1,13,-1
 585 -144 l 1,14,-1
 321 -13 l 1,15,16
 139 -4 139 -4 88 137 c 0,17,0
 70 185 70 185 63 239 c 128,-1,1
225.5 162.5 m 128,-1,19
 259 96 259 96 349.5 96 c 128,-1,20
 440 96 440 96 473.5 162.5 c 128,-1,21
 507 229 507 229 507 365 c 128,-1,22
 507 501 507 501 473.5 567.5 c 128,-1,23
 440 634 440 634 349.5 634 c 128,-1,24
 259 634 259 634 225.5 567.5 c 128,-1,25
 192 501 192 501 192 365 c 128,-1,18
 192 229 192 229 225.5 162.5 c 128,-1,19
EndSplineSet
EndChar

StartChar: R
Encoding: 82 82 53
Width: 660
GlyphClass: 2
Flags: W
LayerCount: 2
Fore
SplineSet
94 730 m 1,0,-1
 349 730 l 2,1,2
 488 730 488 730 542 657 c 0,3,4
 588 594 588 594 588 509 c 0,5,6
 588 358 588 358 470 309 c 1,7,8
 492 285 492 285 508 249 c 2,9,-1
 619 0 l 1,10,-1
 474 0 l 1,11,-1
 370 237 l 2,12,13
 356 267 356 267 339.5 278 c 128,-1,14
 323 289 323 289 290 289 c 2,15,-1
 230 289 l 1,16,-1
 230 0 l 1,17,-1
 94 0 l 1,18,-1
 94 730 l 1,0,-1
230 394 m 1,19,-1
 333 394 l 2,20,21
 393 394 393 394 422.5 427 c 128,-1,22
 452 460 452 460 452 509.5 c 128,-1,23
 452 559 452 559 422.5 592 c 128,-1,24
 393 625 393 625 333 625 c 2,25,-1
 230 625 l 1,26,-1
 230 394 l 1,19,-1
EndSplineSet
EndChar

StartChar: S
Encoding: 83 83 54
Width: 603
GlyphClass: 2
Flags: W
LayerCount: 2
Fore
SplineSet
515 341 m 128,-1,1
 559 293 559 293 559 197 c 128,-1,2
 559 101 559 101 493 43.5 c 128,-1,3
 427 -14 427 -14 299 -14 c 128,-1,4
 171 -14 171 -14 114 40.5 c 128,-1,5
 57 95 57 95 44 199 c 1,6,-1
 153 216 l 1,7,8
 159 157 159 157 193.5 124.5 c 128,-1,9
 228 92 228 92 290 92 c 0,10,11
 423 92 423 92 423 193 c 0,12,13
 423 236 423 236 398 258 c 128,-1,14
 373 280 373 280 302 298 c 2,15,-1
 245 312 l 2,16,17
 145 337 145 337 102 386 c 128,-1,18
 59 435 59 435 59 532.5 c 128,-1,19
 59 630 59 630 122 687 c 128,-1,20
 185 744 185 744 308.5 744 c 128,-1,21
 432 744 432 744 486.5 689.5 c 128,-1,22
 541 635 541 635 554 531 c 1,23,-1
 446 514 l 1,24,25
 433 638 433 638 318 638 c 0,26,27
 255 638 255 638 225 610.5 c 128,-1,28
 195 583 195 583 195 538 c 128,-1,29
 195 493 195 493 218 471 c 128,-1,30
 241 449 241 449 306 432 c 2,31,-1
 369 415 l 1,32,0
 471 389 471 389 515 341 c 128,-1,1
EndSplineSet
EndChar

StartChar: T
Encoding: 84 84 55
Width: 515
GlyphClass: 2
Flags: W
LayerCount: 2
Fore
SplineSet
-2 627 m 1,0,-1
 -2 730 l 1,1,-1
 517 730 l 1,2,-1
 517 627 l 1,3,-1
 326 627 l 1,4,-1
 326 0 l 1,5,-1
 190 0 l 1,6,-1
 190 627 l 1,7,-1
 -2 627 l 1,0,-1
EndSplineSet
PairPos2: "'kern' Horizontal Kerning lookup 0 per glyph data 1" ellipsis dx=0 dy=0 dh=-80 dv=0 dx=0 dy=0 dh=0 dv=0
PairPos2: "'kern' Horizontal Kerning lookup 0 per glyph data 1" quotedblbase dx=0 dy=0 dh=-80 dv=0 dx=0 dy=0 dh=0 dv=0
PairPos2: "'kern' Horizontal Kerning lookup 0 per glyph data 1" quotesinglbase dx=0 dy=0 dh=-80 dv=0 dx=0 dy=0 dh=0 dv=0
PairPos2: "'kern' Horizontal Kerning lookup 0 per glyph data 1" oe dx=0 dy=0 dh=-60 dv=0 dx=0 dy=0 dh=0 dv=0
PairPos2: "'kern' Horizontal Kerning lookup 0 per glyph data 1" oslash dx=0 dy=0 dh=-60 dv=0 dx=0 dy=0 dh=0 dv=0
PairPos2: "'kern' Horizontal Kerning lookup 0 per glyph data 1" odieresis dx=0 dy=0 dh=-60 dv=0 dx=0 dy=0 dh=0 dv=0
PairPos2: "'kern' Horizontal Kerning lookup 0 per glyph data 1" otilde dx=0 dy=0 dh=-60 dv=0 dx=0 dy=0 dh=0 dv=0
PairPos2: "'kern' Horizontal Kerning lookup 0 per glyph data 1" ocircumflex dx=0 dy=0 dh=-60 dv=0 dx=0 dy=0 dh=0 dv=0
PairPos2: "'kern' Horizontal Kerning lookup 0 per glyph data 1" oacute dx=0 dy=0 dh=-60 dv=0 dx=0 dy=0 dh=0 dv=0
PairPos2: "'kern' Horizontal Kerning lookup 0 per glyph data 1" ograve dx=0 dy=0 dh=-60 dv=0 dx=0 dy=0 dh=0 dv=0
PairPos2: "'kern' Horizontal Kerning lookup 0 per glyph data 1" edieresis dx=0 dy=0 dh=-60 dv=0 dx=0 dy=0 dh=0 dv=0
PairPos2: "'kern' Horizontal Kerning lookup 0 per glyph data 1" ecircumflex dx=0 dy=0 dh=-60 dv=0 dx=0 dy=0 dh=0 dv=0
PairPos2: "'kern' Horizontal Kerning lookup 0 per glyph data 1" eacute dx=0 dy=0 dh=-60 dv=0 dx=0 dy=0 dh=0 dv=0
PairPos2: "'kern' Horizontal Kerning lookup 0 per glyph data 1" egrave dx=0 dy=0 dh=-60 dv=0 dx=0 dy=0 dh=0 dv=0
PairPos2: "'kern' Horizontal Kerning lookup 0 per glyph data 1" ccedilla dx=0 dy=0 dh=-60 dv=0 dx=0 dy=0 dh=0 dv=0
PairPos2: "'kern' Horizontal Kerning lookup 0 per glyph data 1" AE dx=0 dy=0 dh=-65 dv=0 dx=0 dy=0 dh=0 dv=0
PairPos2: "'kern' Horizontal Kerning lookup 0 per glyph data 1" Aring dx=0 dy=0 dh=-35 dv=0 dx=0 dy=0 dh=0 dv=0
PairPos2: "'kern' Horizontal Kerning lookup 0 per glyph data 1" Adieresis dx=0 dy=0 dh=-35 dv=0 dx=0 dy=0 dh=0 dv=0
PairPos2: "'kern' Horizontal Kerning lookup 0 per glyph data 1" Atilde dx=0 dy=0 dh=-35 dv=0 dx=0 dy=0 dh=0 dv=0
PairPos2: "'kern' Horizontal Kerning lookup 0 per glyph data 1" Acircumflex dx=0 dy=0 dh=-35 dv=0 dx=0 dy=0 dh=0 dv=0
PairPos2: "'kern' Horizontal Kerning lookup 0 per glyph data 1" Aacute dx=0 dy=0 dh=-35 dv=0 dx=0 dy=0 dh=0 dv=0
PairPos2: "'kern' Horizontal Kerning lookup 0 per glyph data 1" Agrave dx=0 dy=0 dh=-35 dv=0 dx=0 dy=0 dh=0 dv=0
PairPos2: "'kern' Horizontal Kerning lookup 0 per glyph data 1" q dx=0 dy=0 dh=-60 dv=0 dx=0 dy=0 dh=0 dv=0
PairPos2: "'kern' Horizontal Kerning lookup 0 per glyph data 1" o dx=0 dy=0 dh=-60 dv=0 dx=0 dy=0 dh=0 dv=0
PairPos2: "'kern' Horizontal Kerning lookup 0 per glyph data 1" g dx=0 dy=0 dh=-60 dv=0 dx=0 dy=0 dh=0 dv=0
PairPos2: "'kern' Horizontal Kerning lookup 0 per glyph data 1" e dx=0 dy=0 dh=-60 dv=0 dx=0 dy=0 dh=0 dv=0
PairPos2: "'kern' Horizontal Kerning lookup 0 per glyph data 1" d dx=0 dy=0 dh=-60 dv=0 dx=0 dy=0 dh=0 dv=0
PairPos2: "'kern' Horizontal Kerning lookup 0 per glyph data 1" c dx=0 dy=0 dh=-60 dv=0 dx=0 dy=0 dh=0 dv=0
PairPos2: "'kern' Horizontal Kerning lookup 0 per glyph data 1" A dx=0 dy=0 dh=-35 dv=0 dx=0 dy=0 dh=0 dv=0
PairPos2: "'kern' Horizontal Kerning lookup 0 per glyph data 1" period dx=0 dy=0 dh=-80 dv=0 dx=0 dy=0 dh=0 dv=0
PairPos2: "'kern' Horizontal Kerning lookup 0 per glyph data 1" comma dx=0 dy=0 dh=-80 dv=0 dx=0 dy=0 dh=0 dv=0
EndChar

StartChar: U
Encoding: 85 85 56
Width: 703
GlyphClass: 2
Flags: W
LayerCount: 2
Fore
SplineSet
488 730 m 1,0,-1
 624 730 l 1,1,-1
 624 241 l 2,2,3
 624 174 624 174 607 126 c 128,-1,4
 590 78 590 78 565 51.5 c 128,-1,5
 540 25 540 25 501 9.5 c 128,-1,6
 462 -6 462 -6 428.5 -10 c 128,-1,7
 395 -14 395 -14 351 -14 c 128,-1,8
 307 -14 307 -14 273.5 -10 c 128,-1,9
 240 -6 240 -6 201 9.5 c 128,-1,10
 162 25 162 25 137.5 51.5 c 128,-1,11
 113 78 113 78 96 126 c 128,-1,12
 79 174 79 174 79 241 c 2,13,-1
 79 730 l 1,14,-1
 215 730 l 1,15,-1
 215 251 l 2,16,17
 215 158 215 158 251 127.5 c 128,-1,18
 287 97 287 97 351 97 c 0,19,20
 382 97 382 97 403 102 c 128,-1,21
 424 107 424 107 445 122 c 0,22,23
 488 153 488 153 488 251 c 2,24,-1
 488 730 l 1,0,-1
EndSplineSet
EndChar

StartChar: V
Encoding: 86 86 57
Width: 629
GlyphClass: 2
Flags: W
LayerCount: 2
Fore
SplineSet
402 0 m 1,0,-1
 226 0 l 1,1,-1
 10 730 l 1,2,-1
 146 730 l 1,3,-1
 314 132 l 1,4,-1
 482 730 l 1,5,-1
 619 730 l 1,6,-1
 402 0 l 1,0,-1
EndSplineSet
PairPos2: "'kern' Horizontal Kerning lookup 0 per glyph data 1" ellipsis dx=0 dy=0 dh=-120 dv=0 dx=0 dy=0 dh=0 dv=0
PairPos2: "'kern' Horizontal Kerning lookup 0 per glyph data 1" quotedblbase dx=0 dy=0 dh=-120 dv=0 dx=0 dy=0 dh=0 dv=0
PairPos2: "'kern' Horizontal Kerning lookup 0 per glyph data 1" quotesinglbase dx=0 dy=0 dh=-120 dv=0 dx=0 dy=0 dh=0 dv=0
PairPos2: "'kern' Horizontal Kerning lookup 0 per glyph data 1" oe dx=0 dy=0 dh=-40 dv=0 dx=0 dy=0 dh=0 dv=0
PairPos2: "'kern' Horizontal Kerning lookup 0 per glyph data 1" oslash dx=0 dy=0 dh=-40 dv=0 dx=0 dy=0 dh=0 dv=0
PairPos2: "'kern' Horizontal Kerning lookup 0 per glyph data 1" odieresis dx=0 dy=0 dh=-40 dv=0 dx=0 dy=0 dh=0 dv=0
PairPos2: "'kern' Horizontal Kerning lookup 0 per glyph data 1" otilde dx=0 dy=0 dh=-40 dv=0 dx=0 dy=0 dh=0 dv=0
PairPos2: "'kern' Horizontal Kerning lookup 0 per glyph data 1" ocircumflex dx=0 dy=0 dh=-40 dv=0 dx=0 dy=0 dh=0 dv=0
PairPos2: "'kern' Horizontal Kerning lookup 0 per glyph data 1" oacute dx=0 dy=0 dh=-40 dv=0 dx=0 dy=0 dh=0 dv=0
PairPos2: "'kern' Horizontal Kerning lookup 0 per glyph data 1" ograve dx=0 dy=0 dh=-40 dv=0 dx=0 dy=0 dh=0 dv=0
PairPos2: "'kern' Horizontal Kerning lookup 0 per glyph data 1" edieresis dx=0 dy=0 dh=-40 dv=0 dx=0 dy=0 dh=0 dv=0
PairPos2: "'kern' Horizontal Kerning lookup 0 per glyph data 1" ecircumflex dx=0 dy=0 dh=-40 dv=0 dx=0 dy=0 dh=0 dv=0
PairPos2: "'kern' Horizontal Kerning lookup 0 per glyph data 1" eacute dx=0 dy=0 dh=-40 dv=0 dx=0 dy=0 dh=0 dv=0
PairPos2: "'kern' Horizontal Kerning lookup 0 per glyph data 1" egrave dx=0 dy=0 dh=-40 dv=0 dx=0 dy=0 dh=0 dv=0
PairPos2: "'kern' Horizontal Kerning lookup 0 per glyph data 1" ccedilla dx=0 dy=0 dh=-40 dv=0 dx=0 dy=0 dh=0 dv=0
PairPos2: "'kern' Horizontal Kerning lookup 0 per glyph data 1" AE dx=0 dy=0 dh=-80 dv=0 dx=0 dy=0 dh=0 dv=0
PairPos2: "'kern' Horizontal Kerning lookup 0 per glyph data 1" Aring dx=0 dy=0 dh=-50 dv=0 dx=0 dy=0 dh=0 dv=0
PairPos2: "'kern' Horizontal Kerning lookup 0 per glyph data 1" Adieresis dx=0 dy=0 dh=-50 dv=0 dx=0 dy=0 dh=0 dv=0
PairPos2: "'kern' Horizontal Kerning lookup 0 per glyph data 1" Atilde dx=0 dy=0 dh=-50 dv=0 dx=0 dy=0 dh=0 dv=0
PairPos2: "'kern' Horizontal Kerning lookup 0 per glyph data 1" Acircumflex dx=0 dy=0 dh=-50 dv=0 dx=0 dy=0 dh=0 dv=0
PairPos2: "'kern' Horizontal Kerning lookup 0 per glyph data 1" Aacute dx=0 dy=0 dh=-50 dv=0 dx=0 dy=0 dh=0 dv=0
PairPos2: "'kern' Horizontal Kerning lookup 0 per glyph data 1" Agrave dx=0 dy=0 dh=-50 dv=0 dx=0 dy=0 dh=0 dv=0
PairPos2: "'kern' Horizontal Kerning lookup 0 per glyph data 1" q dx=0 dy=0 dh=-40 dv=0 dx=0 dy=0 dh=0 dv=0
PairPos2: "'kern' Horizontal Kerning lookup 0 per glyph data 1" o dx=0 dy=0 dh=-40 dv=0 dx=0 dy=0 dh=0 dv=0
PairPos2: "'kern' Horizontal Kerning lookup 0 per glyph data 1" g dx=0 dy=0 dh=-40 dv=0 dx=0 dy=0 dh=0 dv=0
PairPos2: "'kern' Horizontal Kerning lookup 0 per glyph data 1" e dx=0 dy=0 dh=-40 dv=0 dx=0 dy=0 dh=0 dv=0
PairPos2: "'kern' Horizontal Kerning lookup 0 per glyph data 1" d dx=0 dy=0 dh=-40 dv=0 dx=0 dy=0 dh=0 dv=0
PairPos2: "'kern' Horizontal Kerning lookup 0 per glyph data 1" c dx=0 dy=0 dh=-40 dv=0 dx=0 dy=0 dh=0 dv=0
PairPos2: "'kern' Horizontal Kerning lookup 0 per glyph data 1" A dx=0 dy=0 dh=-50 dv=0 dx=0 dy=0 dh=0 dv=0
PairPos2: "'kern' Horizontal Kerning lookup 0 per glyph data 1" period dx=0 dy=0 dh=-120 dv=0 dx=0 dy=0 dh=0 dv=0
PairPos2: "'kern' Horizontal Kerning lookup 0 per glyph data 1" comma dx=0 dy=0 dh=-120 dv=0 dx=0 dy=0 dh=0 dv=0
EndChar

StartChar: W
Encoding: 87 87 58
Width: 907
GlyphClass: 2
Flags: W
LayerCount: 2
Fore
SplineSet
360 0 m 1,0,-1
 163 0 l 1,1,-1
 22 730 l 1,2,-1
 158 730 l 1,3,-1
 266 135 l 1,4,-1
 386 730 l 1,5,-1
 521 730 l 1,6,-1
 640 135 l 1,7,-1
 749 730 l 1,8,-1
 885 730 l 1,9,-1
 744 0 l 1,10,-1
 547 0 l 1,11,-1
 453 455 l 1,12,-1
 360 0 l 1,0,-1
EndSplineSet
PairPos2: "'kern' Horizontal Kerning lookup 0 per glyph data 1" ellipsis dx=0 dy=0 dh=-110 dv=0 dx=0 dy=0 dh=0 dv=0
PairPos2: "'kern' Horizontal Kerning lookup 0 per glyph data 1" quotedblbase dx=0 dy=0 dh=-110 dv=0 dx=0 dy=0 dh=0 dv=0
PairPos2: "'kern' Horizontal Kerning lookup 0 per glyph data 1" quotesinglbase dx=0 dy=0 dh=-110 dv=0 dx=0 dy=0 dh=0 dv=0
PairPos2: "'kern' Horizontal Kerning lookup 0 per glyph data 1" oe dx=0 dy=0 dh=-30 dv=0 dx=0 dy=0 dh=0 dv=0
PairPos2: "'kern' Horizontal Kerning lookup 0 per glyph data 1" oslash dx=0 dy=0 dh=-30 dv=0 dx=0 dy=0 dh=0 dv=0
PairPos2: "'kern' Horizontal Kerning lookup 0 per glyph data 1" odieresis dx=0 dy=0 dh=-30 dv=0 dx=0 dy=0 dh=0 dv=0
PairPos2: "'kern' Horizontal Kerning lookup 0 per glyph data 1" otilde dx=0 dy=0 dh=-30 dv=0 dx=0 dy=0 dh=0 dv=0
PairPos2: "'kern' Horizontal Kerning lookup 0 per glyph data 1" ocircumflex dx=0 dy=0 dh=-30 dv=0 dx=0 dy=0 dh=0 dv=0
PairPos2: "'kern' Horizontal Kerning lookup 0 per glyph data 1" oacute dx=0 dy=0 dh=-30 dv=0 dx=0 dy=0 dh=0 dv=0
PairPos2: "'kern' Horizontal Kerning lookup 0 per glyph data 1" ograve dx=0 dy=0 dh=-30 dv=0 dx=0 dy=0 dh=0 dv=0
PairPos2: "'kern' Horizontal Kerning lookup 0 per glyph data 1" edieresis dx=0 dy=0 dh=-30 dv=0 dx=0 dy=0 dh=0 dv=0
PairPos2: "'kern' Horizontal Kerning lookup 0 per glyph data 1" ecircumflex dx=0 dy=0 dh=-30 dv=0 dx=0 dy=0 dh=0 dv=0
PairPos2: "'kern' Horizontal Kerning lookup 0 per glyph data 1" eacute dx=0 dy=0 dh=-30 dv=0 dx=0 dy=0 dh=0 dv=0
PairPos2: "'kern' Horizontal Kerning lookup 0 per glyph data 1" egrave dx=0 dy=0 dh=-30 dv=0 dx=0 dy=0 dh=0 dv=0
PairPos2: "'kern' Horizontal Kerning lookup 0 per glyph data 1" ccedilla dx=0 dy=0 dh=-30 dv=0 dx=0 dy=0 dh=0 dv=0
PairPos2: "'kern' Horizontal Kerning lookup 0 per glyph data 1" AE dx=0 dy=0 dh=-75 dv=0 dx=0 dy=0 dh=0 dv=0
PairPos2: "'kern' Horizontal Kerning lookup 0 per glyph data 1" Aring dx=0 dy=0 dh=-40 dv=0 dx=0 dy=0 dh=0 dv=0
PairPos2: "'kern' Horizontal Kerning lookup 0 per glyph data 1" Adieresis dx=0 dy=0 dh=-40 dv=0 dx=0 dy=0 dh=0 dv=0
PairPos2: "'kern' Horizontal Kerning lookup 0 per glyph data 1" Atilde dx=0 dy=0 dh=-40 dv=0 dx=0 dy=0 dh=0 dv=0
PairPos2: "'kern' Horizontal Kerning lookup 0 per glyph data 1" Acircumflex dx=0 dy=0 dh=-40 dv=0 dx=0 dy=0 dh=0 dv=0
PairPos2: "'kern' Horizontal Kerning lookup 0 per glyph data 1" Aacute dx=0 dy=0 dh=-40 dv=0 dx=0 dy=0 dh=0 dv=0
PairPos2: "'kern' Horizontal Kerning lookup 0 per glyph data 1" Agrave dx=0 dy=0 dh=-40 dv=0 dx=0 dy=0 dh=0 dv=0
PairPos2: "'kern' Horizontal Kerning lookup 0 per glyph data 1" q dx=0 dy=0 dh=-30 dv=0 dx=0 dy=0 dh=0 dv=0
PairPos2: "'kern' Horizontal Kerning lookup 0 per glyph data 1" o dx=0 dy=0 dh=-30 dv=0 dx=0 dy=0 dh=0 dv=0
PairPos2: "'kern' Horizontal Kerning lookup 0 per glyph data 1" g dx=0 dy=0 dh=-30 dv=0 dx=0 dy=0 dh=0 dv=0
PairPos2: "'kern' Horizontal Kerning lookup 0 per glyph data 1" e dx=0 dy=0 dh=-30 dv=0 dx=0 dy=0 dh=0 dv=0
PairPos2: "'kern' Horizontal Kerning lookup 0 per glyph data 1" d dx=0 dy=0 dh=-30 dv=0 dx=0 dy=0 dh=0 dv=0
PairPos2: "'kern' Horizontal Kerning lookup 0 per glyph data 1" c dx=0 dy=0 dh=-30 dv=0 dx=0 dy=0 dh=0 dv=0
PairPos2: "'kern' Horizontal Kerning lookup 0 per glyph data 1" A dx=0 dy=0 dh=-40 dv=0 dx=0 dy=0 dh=0 dv=0
PairPos2: "'kern' Horizontal Kerning lookup 0 per glyph data 1" period dx=0 dy=0 dh=-110 dv=0 dx=0 dy=0 dh=0 dv=0
PairPos2: "'kern' Horizontal Kerning lookup 0 per glyph data 1" comma dx=0 dy=0 dh=-110 dv=0 dx=0 dy=0 dh=0 dv=0
EndChar

StartChar: X
Encoding: 88 88 59
Width: 622
GlyphClass: 2
Flags: W
LayerCount: 2
Fore
SplineSet
5 730 m 1,0,-1
 160 730 l 1,1,-1
 324 477 l 1,2,-1
 476 730 l 1,3,-1
 619 730 l 1,4,-1
 396 366 l 1,5,-1
 634 0 l 1,6,-1
 479 0 l 1,7,-1
 306 266 l 1,8,-1
 149 0 l 1,9,-1
 7 0 l 1,10,-1
 235 376 l 1,11,-1
 5 730 l 1,0,-1
EndSplineSet
EndChar

StartChar: Y
Encoding: 89 89 60
Width: 574
GlyphClass: 2
Flags: W
LayerCount: 2
Fore
SplineSet
355 0 m 1,0,-1
 219 0 l 1,1,-1
 219 254 l 1,2,-1
 -6 730 l 1,3,-1
 130 730 l 1,4,-1
 287 381 l 1,5,-1
 444 730 l 1,6,-1
 580 730 l 1,7,-1
 355 254 l 1,8,-1
 355 0 l 1,0,-1
EndSplineSet
EndChar

StartChar: Z
Encoding: 90 90 61
Width: 562
GlyphClass: 2
Flags: W
LayerCount: 2
Fore
SplineSet
42 625 m 1,0,-1
 42 730 l 1,1,-1
 530 730 l 1,2,-1
 530 644 l 1,3,-1
 185 105 l 1,4,-1
 540 105 l 1,5,-1
 540 0 l 1,6,-1
 22 0 l 1,7,-1
 22 86 l 1,8,-1
 367 625 l 1,9,-1
 42 625 l 1,0,-1
EndSplineSet
EndChar

StartChar: bracketleft
Encoding: 91 91 62
Width: 328
GlyphClass: 2
Flags: W
LayerCount: 2
Fore
SplineSet
72 -66 m 1,0,-1
 72 735 l 1,1,-1
 319 735 l 1,2,-1
 319 643 l 1,3,-1
 209 643 l 1,4,-1
 209 26 l 1,5,-1
 319 26 l 1,6,-1
 319 -66 l 1,7,-1
 72 -66 l 1,0,-1
EndSplineSet
EndChar

StartChar: backslash
Encoding: 92 92 63
Width: 356
GlyphClass: 2
Flags: W
LayerCount: 2
Fore
SplineSet
127 775 m 1,0,-1
 364 -106 l 1,1,-1
 229 -106 l 1,2,-1
 -8 775 l 1,3,-1
 127 775 l 1,0,-1
EndSplineSet
EndChar

StartChar: bracketright
Encoding: 93 93 64
Width: 328
GlyphClass: 2
Flags: W
LayerCount: 2
Fore
SplineSet
256 735 m 1,0,-1
 256 -66 l 1,1,-1
 9 -66 l 1,2,-1
 9 26 l 1,3,-1
 119 26 l 1,4,-1
 119 643 l 1,5,-1
 9 643 l 1,6,-1
 9 735 l 1,7,-1
 256 735 l 1,0,-1
EndSplineSet
EndChar

StartChar: asciicircum
Encoding: 94 94 65
Width: 580
GlyphClass: 2
Flags: W
LayerCount: 2
Fore
SplineSet
232 618 m 1,0,-1
 348 618 l 1,1,-1
 500 316 l 1,2,-1
 398 316 l 1,3,-1
 290 545 l 1,4,-1
 182 316 l 1,5,-1
 80 316 l 1,6,-1
 232 618 l 1,0,-1
EndSplineSet
EndChar

StartChar: underscore
Encoding: 95 95 66
Width: 564
GlyphClass: 2
Flags: W
LayerCount: 2
Fore
SplineSet
62 -92 m 1,0,-1
 62 0 l 1,1,-1
 502 0 l 1,2,-1
 502 -92 l 1,3,-1
 62 -92 l 1,0,-1
EndSplineSet
EndChar

StartChar: grave
Encoding: 96 96 67
Width: 298
GlyphClass: 2
Flags: W
LayerCount: 2
Fore
SplineSet
271 692 m 1,0,-1
 226 620 l 1,1,-1
 16 729 l 1,2,-1
 76 825 l 1,3,-1
 271 692 l 1,0,-1
EndSplineSet
EndChar

StartChar: a
Encoding: 97 97 68
Width: 597
GlyphClass: 2
Flags: W
LayerCount: 2
Fore
SplineSet
295 586 m 0,0,1
 513 586 513 586 513 387 c 2,2,-1
 513 0 l 1,3,-1
 426 0 l 1,4,-1
 388 70 l 1,5,6
 308 -14 308 -14 201 -14 c 0,7,8
 125 -14 125 -14 85.5 28.5 c 128,-1,9
 46 71 46 71 46 142.5 c 128,-1,10
 46 214 46 214 91 258 c 128,-1,11
 136 302 136 302 259 320 c 2,12,-1
 379 338 l 1,13,-1
 379 386 l 2,14,15
 379 483 379 483 287 483 c 0,16,17
 200 483 200 483 184 395 c 1,18,-1
 80 426 l 1,19,20
 118 586 118 586 295 586 c 0,0,1
244 84 m 0,21,22
 312 84 312 84 379 151 c 1,23,-1
 379 254 l 1,24,-1
 283 237 l 2,25,26
 218 226 218 226 197 202 c 128,-1,27
 176 178 176 178 176 148 c 128,-1,28
 176 118 176 118 194 101 c 128,-1,29
 212 84 212 84 244 84 c 0,21,22
EndSplineSet
EndChar

StartChar: b
Encoding: 98 98 69
Width: 628
GlyphClass: 2
Flags: W
LayerCount: 2
Fore
SplineSet
362 -14 m 0,0,1
 271 -14 271 -14 189 38 c 1,2,-1
 158 0 l 1,3,-1
 94 0 l 1,4,-1
 94 752 l 1,5,-1
 228 762 l 1,6,-1
 228 558 l 1,7,8
 296 586 296 586 362 586 c 0,9,10
 592 586 592 586 592 286 c 128,-1,11
 592 -14 592 -14 362 -14 c 0,0,1
325 483 m 0,12,13
 277 483 277 483 228 463 c 1,14,-1
 228 112 l 1,15,16
 271 89 271 89 322 89 c 0,17,18
 458 89 458 89 458 286 c 128,-1,19
 458 483 458 483 325 483 c 0,12,13
EndSplineSet
EndChar

StartChar: c
Encoding: 99 99 70
Width: 536
GlyphClass: 2
Flags: W
LayerCount: 2
Fore
SplineSet
170 286 m 128,-1,1
 170 185 170 185 195.5 137 c 128,-1,2
 221 89 221 89 284.5 89 c 128,-1,3
 348 89 348 89 375.5 115 c 128,-1,4
 403 141 403 141 405 197 c 1,5,-1
 510 192 l 1,6,7
 504 90 504 90 450.5 38 c 128,-1,8
 397 -14 397 -14 275 -14 c 0,9,10
 132 -14 132 -14 80 79 c 0,11,12
 55 124 55 124 45.5 173 c 128,-1,13
 36 222 36 222 36 286.5 c 128,-1,14
 36 351 36 351 45.5 400.5 c 128,-1,15
 55 450 55 450 80 494 c 0,16,17
 131 586 131 586 275 586 c 0,18,19
 396 586 396 586 449 536.5 c 128,-1,20
 502 487 502 487 509 389 c 1,21,-1
 405 375 l 1,22,23
 403 431 403 431 375.5 457 c 128,-1,24
 348 483 348 483 284.5 483 c 128,-1,25
 221 483 221 483 195.5 435 c 128,-1,0
 170 387 170 387 170 286 c 128,-1,1
EndSplineSet
EndChar

StartChar: d
Encoding: 100 100 71
Width: 628
GlyphClass: 2
Flags: W
LayerCount: 2
Fore
SplineSet
229 -14 m 0,0,1
 36 -14 36 -14 36 286 c 128,-1,2
 36 586 36 586 270 586 c 0,3,4
 336 586 336 586 400 562 c 1,5,-1
 400 752 l 1,6,-1
 534 762 l 1,7,-1
 534 0 l 1,8,-1
 447 0 l 1,9,-1
 410 71 l 1,10,11
 327 -14 327 -14 229 -14 c 0,0,1
282 89 m 0,12,13
 344 89 344 89 400 153 c 1,14,-1
 400 463 l 1,15,16
 351 483 351 483 304 483 c 0,17,18
 232 483 232 483 201 433 c 128,-1,19
 170 383 170 383 170 286 c 0,20,21
 170 89 170 89 282 89 c 0,12,13
EndSplineSet
EndChar

StartChar: e
Encoding: 101 101 72
Width: 563
GlyphClass: 2
Flags: W
LayerCount: 2
Fore
SplineSet
292 -14 m 0,0,1
 154 -14 154 -14 95 60.5 c 128,-1,2
 36 135 36 135 36 286 c 0,3,4
 36 586 36 586 288 586 c 0,5,6
 433 586 433 586 486 496 c 0,7,8
 532 419 532 419 532 296 c 2,9,-1
 532 260 l 1,10,-1
 166 260 l 1,11,12
 167 166 167 166 197 127.5 c 128,-1,13
 227 89 227 89 296 89 c 0,14,15
 407 89 407 89 414 169 c 1,16,-1
 524 165 l 1,17,18
 508 -14 508 -14 292 -14 c 0,0,1
287 483 m 128,-1,20
 230 483 230 483 203.5 451.5 c 128,-1,21
 177 420 177 420 169 351 c 1,22,-1
 400 351 l 1,23,24
 394 418 394 418 369 450.5 c 128,-1,19
 344 483 344 483 287 483 c 128,-1,20
EndSplineSet
EndChar

StartChar: f
Encoding: 102 102 73
Width: 351
GlyphClass: 2
Flags: W
LayerCount: 2
Fore
SplineSet
293 670 m 0,0,1
 240 670 240 670 240 611 c 2,2,-1
 240 572 l 1,3,-1
 348 572 l 1,4,-1
 348 485 l 1,5,-1
 240 485 l 1,6,-1
 240 0 l 1,7,-1
 106 0 l 1,8,-1
 106 485 l 1,9,-1
 44 485 l 1,10,-1
 44 572 l 1,11,-1
 106 572 l 1,12,-1
 106 611 l 2,13,14
 106 775 106 775 279 775 c 0,15,16
 344 775 344 775 393 757 c 1,17,-1
 360 656 l 1,18,19
 326 670 326 670 293 670 c 0,0,1
EndSplineSet
EndChar

StartChar: g
Encoding: 103 103 74
Width: 578
GlyphClass: 2
Flags: W
LayerCount: 2
Fore
SplineSet
401 186.5 m 128,-1,1
 354 168 354 168 290.5 168 c 128,-1,2
 227 168 227 168 185 183 c 1,3,-1
 157 153 l 2,4,5
 140 136 140 136 140 120 c 0,6,7
 140 96 140 96 173 96 c 2,8,-1
 386 96 l 2,9,10
 465 96 465 96 510.5 53 c 128,-1,11
 556 10 556 10 556 -48 c 128,-1,12
 556 -106 556 -106 532 -140 c 128,-1,13
 508 -174 508 -174 463 -190 c 0,14,15
 387 -217 387 -217 268.5 -217 c 128,-1,16
 150 -217 150 -217 86 -188.5 c 128,-1,17
 22 -160 22 -160 22 -91 c 0,18,19
 22 -58 22 -58 41 -31.5 c 128,-1,20
 60 -5 60 -5 88 9 c 1,21,22
 27 28 27 28 27 98 c 0,23,24
 27 144 27 144 63 183 c 2,25,-1
 109 231 l 1,26,27
 62 285 62 285 62 377 c 0,28,29
 62 458 62 458 106 517 c 1,30,31
 156 586 156 586 288 586 c 0,32,33
 345 586 345 586 387 572 c 1,34,-1
 554 572 l 1,35,-1
 554 493 l 1,36,-1
 488 493 l 1,37,38
 515 444 515 444 515 390.5 c 128,-1,39
 515 337 515 337 505 303 c 128,-1,40
 495 269 495 269 471.5 237 c 128,-1,0
 448 205 448 205 401 186.5 c 128,-1,1
190 377 m 128,-1,42
 190 257 190 257 288.5 257 c 128,-1,43
 387 257 387 257 387 377 c 128,-1,44
 387 497 387 497 288.5 497 c 128,-1,41
 190 497 190 497 190 377 c 128,-1,42
176.5 -107 m 128,-1,46
 209 -117 209 -117 284 -117 c 128,-1,47
 359 -117 359 -117 390.5 -105.5 c 128,-1,48
 422 -94 422 -94 422 -56 c 0,49,50
 422 0 422 0 344 0 c 2,51,-1
 173 0 l 1,52,53
 144 -26 144 -26 144 -61.5 c 128,-1,45
 144 -97 144 -97 176.5 -107 c 128,-1,46
EndSplineSet
EndChar

StartChar: h
Encoding: 104 104 75
Width: 663
GlyphClass: 2
Flags: W
LayerCount: 2
Fore
SplineSet
228 537 m 1,0,1
 310 586 310 586 400.5 586 c 128,-1,2
 491 586 491 586 535 537.5 c 128,-1,3
 579 489 579 489 579 404 c 2,4,-1
 579 0 l 1,5,-1
 445 0 l 1,6,-1
 445 390 l 2,7,8
 445 441 445 441 426.5 462 c 128,-1,9
 408 483 408 483 362 483 c 0,10,11
 290 483 290 483 228 438 c 1,12,-1
 228 0 l 1,13,-1
 94 0 l 1,14,-1
 94 752 l 1,15,-1
 228 762 l 1,16,-1
 228 537 l 1,0,1
EndSplineSet
EndChar

StartChar: i
Encoding: 105 105 76
Width: 322
GlyphClass: 2
Flags: W
LayerCount: 2
Fore
SplineSet
94 572 m 1,0,-1
 228 572 l 1,1,-1
 228 0 l 1,2,-1
 94 0 l 1,3,-1
 94 572 l 1,0,-1
161 640 m 0,4,5
 86 640 86 640 86 717.5 c 128,-1,6
 86 795 86 795 161 795 c 0,7,8
 238 795 238 795 238 717.5 c 128,-1,9
 238 640 238 640 161 640 c 0,4,5
EndSplineSet
EndChar

StartChar: j
Encoding: 106 106 77
Width: 322
GlyphClass: 2
Flags: W
LayerCount: 2
Fore
SplineSet
41 -104 m 0,0,1
 94 -104 94 -104 94 -45 c 2,2,-1
 94 572 l 1,3,-1
 228 572 l 1,4,-1
 228 -45 l 2,5,6
 228 -209 228 -209 55 -209 c 0,7,8
 -9 -209 -9 -209 -60 -192 c 1,9,-1
 -27 -91 l 1,10,11
 6 -104 6 -104 41 -104 c 0,0,1
161 640 m 0,12,13
 86 640 86 640 86 717.5 c 128,-1,14
 86 795 86 795 161 795 c 0,15,16
 238 795 238 795 238 717.5 c 128,-1,17
 238 640 238 640 161 640 c 0,12,13
EndSplineSet
EndChar

StartChar: k
Encoding: 107 107 78
Width: 575
GlyphClass: 2
Flags: W
LayerCount: 2
Fore
SplineSet
228 0 m 1,0,-1
 94 0 l 1,1,-1
 94 752 l 1,2,-1
 228 762 l 1,3,-1
 228 354 l 1,4,-1
 269 354 l 1,5,-1
 420 572 l 1,6,-1
 565 572 l 1,7,-1
 373 300 l 1,8,-1
 583 0 l 1,9,-1
 438 0 l 1,10,-1
 256 264 l 1,11,-1
 228 264 l 1,12,-1
 228 0 l 1,0,-1
EndSplineSet
EndChar

StartChar: l
Encoding: 108 108 79
Width: 322
GlyphClass: 2
Flags: W
LayerCount: 2
Fore
SplineSet
228 0 m 1,0,-1
 94 0 l 1,1,-1
 94 752 l 1,2,-1
 228 770 l 1,3,-1
 228 0 l 1,0,-1
EndSplineSet
EndChar

StartChar: m
Encoding: 109 109 80
Width: 998
GlyphClass: 2
Flags: W
LayerCount: 2
Fore
SplineSet
371 586 m 0,0,1
 491 586 491 586 539 517 c 1,2,3
 625 586 625 586 722.5 586 c 128,-1,4
 820 586 820 586 867 537.5 c 128,-1,5
 914 489 914 489 914 404 c 2,6,-1
 914 0 l 1,7,-1
 780 0 l 1,8,-1
 780 382 l 2,9,10
 780 434 780 434 761 458.5 c 128,-1,11
 742 483 742 483 694 483 c 0,12,13
 626 483 626 483 569 436 c 1,14,15
 571 416 571 416 571 404 c 2,16,-1
 571 0 l 1,17,-1
 437 0 l 1,18,-1
 437 382 l 2,19,20
 437 434 437 434 417 458.5 c 128,-1,21
 397 483 397 483 340.5 483 c 128,-1,22
 284 483 284 483 228 443 c 1,23,-1
 228 0 l 1,24,-1
 94 0 l 1,25,-1
 94 572 l 1,26,-1
 165 572 l 1,27,-1
 200 525 l 1,28,29
 281 586 281 586 371 586 c 0,0,1
EndSplineSet
EndChar

StartChar: n
Encoding: 110 110 81
Width: 663
GlyphClass: 2
Flags: W
LayerCount: 2
Fore
SplineSet
200 520 m 1,0,1
 294 586 294 586 392.5 586 c 128,-1,2
 491 586 491 586 535 537.5 c 128,-1,3
 579 489 579 489 579 404 c 2,4,-1
 579 0 l 1,5,-1
 445 0 l 1,6,-1
 445 390 l 2,7,8
 445 441 445 441 426.5 462 c 128,-1,9
 408 483 408 483 362 483 c 0,10,11
 290 483 290 483 228 438 c 1,12,-1
 228 0 l 1,13,-1
 94 0 l 1,14,-1
 94 572 l 1,15,-1
 157 572 l 1,16,-1
 200 520 l 1,0,1
EndSplineSet
EndChar

StartChar: o
Encoding: 111 111 82
Width: 592
GlyphClass: 2
Flags: W
LayerCount: 2
Fore
SplineSet
296 89 m 128,-1,1
 370 89 370 89 396 139 c 128,-1,2
 422 189 422 189 422 286 c 128,-1,3
 422 383 422 383 396 433 c 128,-1,4
 370 483 370 483 296 483 c 128,-1,5
 222 483 222 483 196 433 c 128,-1,6
 170 383 170 383 170 286 c 128,-1,7
 170 189 170 189 196 139 c 128,-1,0
 222 89 222 89 296 89 c 128,-1,1
296 -14 m 128,-1,9
 36 -14 36 -14 36 286 c 128,-1,10
 36 586 36 586 296 586 c 128,-1,11
 556 586 556 586 556 286 c 128,-1,8
 556 -14 556 -14 296 -14 c 128,-1,9
EndSplineSet
EndChar

StartChar: p
Encoding: 112 112 83
Width: 628
GlyphClass: 2
Flags: W
LayerCount: 2
Fore
SplineSet
362 586 m 0,0,1
 592 586 592 586 592 286 c 128,-1,2
 592 -14 592 -14 358 -14 c 0,3,4
 298 -14 298 -14 228 6 c 1,5,-1
 228 -205 l 1,6,-1
 94 -223 l 1,7,-1
 94 572 l 1,8,-1
 158 572 l 1,9,-1
 193 529 l 1,10,11
 278 586 278 586 362 586 c 0,0,1
325 483 m 0,12,13
 274 483 274 483 228 455 c 1,14,-1
 228 103 l 1,15,16
 275 89 275 89 324 89 c 0,17,18
 396 89 396 89 427 139.5 c 128,-1,19
 458 190 458 190 458 286 c 0,20,21
 458 483 458 483 325 483 c 0,12,13
EndSplineSet
EndChar

StartChar: q
Encoding: 113 113 84
Width: 628
GlyphClass: 2
Flags: W
LayerCount: 2
Fore
SplineSet
269 586 m 0,0,1
 363 586 363 586 439 534 c 1,2,-1
 471 572 l 1,3,-1
 534 572 l 1,4,-1
 534 -205 l 1,5,-1
 400 -223 l 1,6,-1
 400 12 l 1,7,8
 329 -14 329 -14 269 -14 c 0,9,10
 36 -14 36 -14 36 286 c 128,-1,11
 36 586 36 586 269 586 c 0,0,1
305 89 m 0,12,13
 354 89 354 89 400 107 c 1,14,-1
 400 459 l 1,15,16
 356 483 356 483 305 483 c 0,17,18
 170 483 170 483 170 286 c 128,-1,19
 170 89 170 89 305 89 c 0,12,13
EndSplineSet
EndChar

StartChar: r
Encoding: 114 114 85
Width: 407
GlyphClass: 2
Flags: W
LayerCount: 2
Fore
SplineSet
228 0 m 1,0,-1
 94 0 l 1,1,-1
 94 572 l 1,2,-1
 157 572 l 1,3,-1
 210 483 l 1,4,5
 279 581 279 581 405 586 c 1,6,-1
 405 471 l 1,7,8
 287 468 287 468 228 399 c 1,9,-1
 228 0 l 1,0,-1
EndSplineSet
EndChar

StartChar: s
Encoding: 115 115 86
Width: 546
GlyphClass: 2
Flags: W
LayerCount: 2
Fore
SplineSet
503 160 m 0,0,1
 503 -11 503 -11 263 -11 c 0,2,3
 158 -11 158 -11 107 34.5 c 128,-1,4
 56 80 56 80 43 167 c 1,5,-1
 147 183 l 1,6,7
 158 87 158 87 266.5 87 c 128,-1,8
 375 87 375 87 375 155 c 0,9,10
 375 183 375 183 353.5 197 c 128,-1,11
 332 211 332 211 267 226 c 2,12,-1
 221 237 l 2,13,14
 132 258 132 258 93.5 298.5 c 128,-1,15
 55 339 55 339 55 416 c 0,16,17
 55 586 55 586 287 586 c 0,18,19
 387 586 387 586 436.5 540.5 c 128,-1,20
 486 495 486 495 498 408 c 1,21,-1
 394 393 l 1,22,23
 383 488 383 488 283.5 488 c 128,-1,24
 184 488 184 488 184 420 c 0,25,26
 184 392 184 392 203.5 377.5 c 128,-1,27
 223 363 223 363 283 349 c 2,28,-1
 335 336 l 2,29,30
 424 314 424 314 463.5 274.5 c 128,-1,31
 503 235 503 235 503 160 c 0,0,1
EndSplineSet
EndChar

StartChar: t
Encoding: 116 116 87
Width: 360
GlyphClass: 2
Flags: W
LayerCount: 2
Fore
SplineSet
9 485 m 1,0,-1
 9 572 l 1,1,-1
 101 572 l 1,2,-1
 101 676 l 1,3,-1
 235 710 l 1,4,-1
 235 572 l 1,5,-1
 344 572 l 1,6,-1
 344 485 l 1,7,-1
 235 485 l 1,8,-1
 235 162 l 2,9,10
 235 119 235 119 247.5 101 c 128,-1,11
 260 83 260 83 284.5 83 c 128,-1,12
 309 83 309 83 338 91 c 1,13,-1
 355 8 l 1,14,15
 296 -14 296 -14 249.5 -14 c 128,-1,16
 203 -14 203 -14 175 -3 c 128,-1,17
 147 8 147 8 133 22.5 c 128,-1,18
 119 37 119 37 112 62 c 0,19,20
 101 97 101 97 101 149 c 2,21,-1
 101 485 l 1,22,-1
 9 485 l 1,0,-1
EndSplineSet
EndChar

StartChar: u
Encoding: 117 117 88
Width: 664
GlyphClass: 2
Flags: W
LayerCount: 2
Fore
SplineSet
260 -14 m 0,0,1
 84 -14 84 -14 84 168 c 2,2,-1
 84 572 l 1,3,-1
 218 572 l 1,4,-1
 218 190 l 2,5,6
 218 138 218 138 238.5 113.5 c 128,-1,7
 259 89 259 89 307 89 c 0,8,9
 375 89 375 89 436 153 c 1,10,-1
 436 572 l 1,11,-1
 570 572 l 1,12,-1
 570 0 l 1,13,-1
 483 0 l 1,14,-1
 445 69 l 1,15,16
 367 -14 367 -14 260 -14 c 0,0,1
EndSplineSet
EndChar

StartChar: v
Encoding: 118 118 89
Width: 545
GlyphClass: 2
Flags: W
LayerCount: 2
Fore
SplineSet
347 0 m 1,0,-1
 198 0 l 1,1,-1
 4 572 l 1,2,-1
 139 572 l 1,3,-1
 272 158 l 1,4,-1
 406 572 l 1,5,-1
 541 572 l 1,6,-1
 347 0 l 1,0,-1
EndSplineSet
EndChar

StartChar: w
Encoding: 119 119 90
Width: 758
GlyphClass: 2
Flags: W
LayerCount: 2
Fore
SplineSet
282 0 m 1,0,-1
 156 0 l 1,1,-1
 9 572 l 1,2,-1
 144 572 l 1,3,-1
 228 180 l 1,4,-1
 322 522 l 1,5,-1
 435 522 l 1,6,-1
 529 180 l 1,7,-1
 614 572 l 1,8,-1
 749 572 l 1,9,-1
 603 0 l 1,10,-1
 476 0 l 1,11,-1
 379 346 l 1,12,-1
 282 0 l 1,0,-1
EndSplineSet
EndChar

StartChar: x
Encoding: 120 120 91
Width: 530
GlyphClass: 2
Flags: W
LayerCount: 2
Fore
SplineSet
137 0 m 1,0,-1
 2 0 l 1,1,-1
 195 287 l 1,2,-1
 11 572 l 1,3,-1
 158 572 l 1,4,-1
 270 398 l 1,5,-1
 384 572 l 1,6,-1
 519 572 l 1,7,-1
 337 294 l 1,8,-1
 528 0 l 1,9,-1
 381 0 l 1,10,-1
 261 184 l 1,11,-1
 137 0 l 1,0,-1
EndSplineSet
EndChar

StartChar: y
Encoding: 121 121 92
Width: 542
GlyphClass: 2
Flags: W
LayerCount: 2
Fore
SplineSet
251 -237 m 1,0,-1
 132 -219 l 1,1,-1
 213 -8 l 1,2,-1
 4 572 l 1,3,-1
 139 572 l 1,4,-1
 276 174 l 1,5,-1
 400 572 l 1,6,-1
 537 572 l 1,7,-1
 251 -237 l 1,0,-1
EndSplineSet
EndChar

StartChar: z
Encoding: 122 122 93
Width: 509
GlyphClass: 2
Flags: W
LayerCount: 2
Fore
SplineSet
43 478 m 1,0,-1
 43 572 l 1,1,-1
 467 572 l 1,2,-1
 467 490 l 1,3,-1
 193 94 l 1,4,-1
 476 94 l 1,5,-1
 476 0 l 1,6,-1
 33 0 l 1,7,-1
 33 82 l 1,8,-1
 309 478 l 1,9,-1
 43 478 l 1,0,-1
EndSplineSet
EndChar

StartChar: braceleft
Encoding: 123 123 94
Width: 329
GlyphClass: 2
Flags: W
LayerCount: 2
Fore
SplineSet
209 512 m 1,0,-1
 217 404 l 1,1,2
 217 376 217 376 202.5 359.5 c 128,-1,3
 188 343 188 343 168 343 c 1,4,-1
 168 338 l 1,5,6
 188 338 188 338 202.5 321 c 128,-1,7
 217 304 217 304 217 277 c 1,8,-1
 209 164 l 1,9,10
 209 28 209 28 320 28 c 1,11,-1
 320 -66 l 1,12,13
 189 -66 189 -66 130 -10.5 c 128,-1,14
 71 45 71 45 71 137 c 1,15,-1
 79 250 l 1,16,17
 79 274 79 274 57 284 c 128,-1,18
 35 294 35 294 12 294 c 1,19,-1
 12 376 l 1,20,21
 35 376 35 376 57 386 c 128,-1,22
 79 396 79 396 79 420 c 1,23,24
 79 420 79 420 71 533 c 1,25,26
 71 625 71 625 130 680.5 c 128,-1,27
 189 736 189 736 320 736 c 1,28,-1
 320 642 l 1,29,30
 209 642 209 642 209 512 c 1,0,-1
EndSplineSet
EndChar

StartChar: bar
Encoding: 124 124 95
Width: 337
GlyphClass: 2
Flags: W
LayerCount: 2
Fore
SplineSet
96 -106 m 1,0,-1
 96 775 l 1,1,-1
 241 775 l 1,2,-1
 241 -106 l 1,3,-1
 96 -106 l 1,0,-1
EndSplineSet
EndChar

StartChar: braceright
Encoding: 125 125 96
Width: 329
GlyphClass: 2
Flags: W
LayerCount: 2
Fore
SplineSet
120 167 m 1,0,-1
 113 282 l 1,1,2
 113 310 113 310 127 327 c 128,-1,3
 141 344 141 344 161 344 c 1,4,-1
 161 349 l 1,5,6
 141 349 141 349 127 366 c 128,-1,7
 113 383 113 383 113 411 c 1,8,-1
 120 526 l 1,9,10
 120 581 120 581 95 611.5 c 128,-1,11
 70 642 70 642 9 642 c 1,12,-1
 9 736 l 1,13,14
 141 736 141 736 199.5 681 c 128,-1,15
 258 626 258 626 258 533 c 1,16,-1
 250 420 l 1,17,18
 250 396 250 396 271 386 c 128,-1,19
 292 376 292 376 317 376 c 1,20,-1
 317 294 l 1,21,22
 292 294 292 294 271 284 c 128,-1,23
 250 274 250 274 250 250 c 1,24,25
 250 250 250 250 258 137 c 1,26,27
 258 44 258 44 199.5 -11 c 128,-1,28
 141 -66 141 -66 9 -66 c 1,29,-1
 9 28 l 1,30,31
 120 28 120 28 120 167 c 1,0,-1
EndSplineSet
EndChar

StartChar: asciitilde
Encoding: 126 126 97
Width: 580
GlyphClass: 2
Flags: W
LayerCount: 2
Fore
SplineSet
86 364 m 1,0,1
 120 340 120 340 166.5 340 c 128,-1,2
 213 340 213 340 289.5 361.5 c 128,-1,3
 366 383 366 383 411.5 383 c 128,-1,4
 457 383 457 383 494 364 c 1,5,-1
 494 272 l 1,6,7
 456 293 456 293 411 293 c 128,-1,8
 366 293 366 293 289.5 271.5 c 128,-1,9
 213 250 213 250 168 250 c 128,-1,10
 123 250 123 250 86 272 c 1,11,-1
 86 364 l 1,0,1
EndSplineSet
EndChar

StartChar: exclamdown
Encoding: 161 161 99
Width: 298
GlyphClass: 2
Flags: W
LayerCount: 2
Fore
SplineSet
100 573 m 128,-1,1
 117 586 117 586 148.5 586 c 128,-1,2
 180 586 180 586 197 573 c 128,-1,3
 214 560 214 560 217 545.5 c 128,-1,4
 220 531 220 531 220 507.5 c 128,-1,5
 220 484 220 484 217 469.5 c 128,-1,6
 214 455 214 455 197 442 c 128,-1,7
 180 429 180 429 152.5 429 c 128,-1,8
 125 429 125 429 109 435.5 c 128,-1,9
 93 442 93 442 86 455 c 0,10,11
 76 476 76 476 76 503.5 c 128,-1,12
 76 531 76 531 79.5 545.5 c 128,-1,0
 83 560 83 560 100 573 c 128,-1,1
223 -152 m 1,13,-1
 76 -152 l 1,14,-1
 76 30 l 1,15,-1
 110 369 l 1,16,-1
 189 369 l 1,17,-1
 223 30 l 1,18,-1
 223 -152 l 1,13,-1
EndSplineSet
EndChar

StartChar: cent
Encoding: 162 162 100
Width: 630
GlyphClass: 2
Flags: W
LayerCount: 2
Fore
SplineSet
376 -81 m 1,0,-1
 286 -81 l 1,1,-1
 286 40 l 1,2,3
 67 66 67 66 67 360.5 c 128,-1,4
 67 655 67 655 286 688 c 1,5,-1
 286 810 l 1,6,-1
 376 810 l 1,7,-1
 376 691 l 1,8,9
 555 675 555 675 571 471 c 1,10,-1
 465 466 l 1,11,12
 463 520 463 520 433.5 554 c 128,-1,13
 404 588 404 588 353 588 c 128,-1,14
 302 588 302 588 271.5 571 c 128,-1,15
 241 554 241 554 226 520 c 0,16,17
 201 462 201 462 201 365 c 0,18,19
 201 142 201 142 335.5 142 c 128,-1,20
 470 142 470 142 473 249 c 1,21,-1
 579 242 l 1,22,23
 564 57 564 57 376 40 c 1,24,-1
 376 -81 l 1,0,-1
EndSplineSet
EndChar

StartChar: sterling
Encoding: 163 163 101
Width: 630
GlyphClass: 2
Flags: W
LayerCount: 2
Fore
SplineSet
62 298 m 1,0,-1
 62 389 l 1,1,-1
 127 389 l 1,2,-1
 127 524 l 2,3,4
 127 631 127 631 179.5 687.5 c 128,-1,5
 232 744 232 744 355 744 c 128,-1,6
 478 744 478 744 529.5 689 c 128,-1,7
 581 634 581 634 581 522 c 1,8,-1
 463 513 l 1,9,10
 463 638 463 638 361 638 c 0,11,12
 305 638 305 638 284 609.5 c 128,-1,13
 263 581 263 581 263 524 c 2,14,-1
 263 389 l 1,15,-1
 473 389 l 1,16,-1
 473 298 l 1,17,-1
 263 298 l 1,18,-1
 263 217 l 2,19,20
 263 175 263 175 252.5 151 c 128,-1,21
 242 127 242 127 217 106 c 1,22,-1
 592 106 l 1,23,-1
 592 0 l 1,24,-1
 67 0 l 1,25,-1
 67 83 l 1,26,27
 127 123 127 123 127 195 c 2,28,-1
 127 298 l 1,29,-1
 62 298 l 1,0,-1
EndSplineSet
EndChar

StartChar: currency
Encoding: 164 164 102
Width: 630
GlyphClass: 2
Flags: W
LayerCount: 2
Fore
SplineSet
187 557 m 1,0,1
 243 593 243 593 320 593 c 128,-1,2
 397 593 397 593 448 562 c 1,3,-1
 533 647 l 1,4,-1
 597 583 l 1,5,-1
 511 497 l 1,6,7
 543 442 543 442 543 365.5 c 128,-1,8
 543 289 543 289 510 233 c 1,9,-1
 597 147 l 1,10,-1
 533 83 l 1,11,-1
 446 169 l 1,12,13
 392 137 392 137 314 137 c 128,-1,14
 236 137 236 137 185 172 c 1,15,-1
 97 83 l 1,16,-1
 33 147 l 1,17,-1
 125 238 l 1,18,19
 97 291 97 291 97 363.5 c 128,-1,20
 97 436 97 436 126 490 c 1,21,-1
 33 583 l 1,22,-1
 97 647 l 1,23,-1
 187 557 l 1,0,1
239 284.5 m 128,-1,25
 262 252 262 252 317.5 252 c 128,-1,26
 373 252 373 252 398.5 284.5 c 128,-1,27
 424 317 424 317 424 365 c 128,-1,28
 424 413 424 413 401 445.5 c 128,-1,29
 378 478 378 478 322.5 478 c 128,-1,30
 267 478 267 478 241.5 445.5 c 128,-1,31
 216 413 216 413 216 365 c 128,-1,24
 216 317 216 317 239 284.5 c 128,-1,25
EndSplineSet
EndChar

StartChar: yen
Encoding: 165 165 103
Width: 630
GlyphClass: 2
Flags: W
LayerCount: 2
Fore
SplineSet
69 381 m 1,0,-1
 69 471 l 1,1,-1
 163 471 l 1,2,-1
 31 730 l 1,3,-1
 169 730 l 1,4,-1
 315 430 l 1,5,-1
 462 730 l 1,6,-1
 599 730 l 1,7,-1
 467 471 l 1,8,-1
 563 471 l 1,9,-1
 563 381 l 1,10,-1
 421 381 l 1,11,-1
 384 308 l 1,12,-1
 563 308 l 1,13,-1
 563 217 l 1,14,-1
 381 217 l 1,15,-1
 381 0 l 1,16,-1
 249 0 l 1,17,-1
 249 217 l 1,18,-1
 69 217 l 1,19,-1
 69 308 l 1,20,-1
 246 308 l 1,21,-1
 209 381 l 1,22,-1
 69 381 l 1,0,-1
EndSplineSet
EndChar

StartChar: brokenbar
Encoding: 166 166 104
Width: 337
GlyphClass: 2
Flags: W
LayerCount: 2
Fore
SplineSet
96 421 m 1,0,-1
 96 775 l 1,1,-1
 241 775 l 1,2,-1
 241 421 l 1,3,-1
 96 421 l 1,0,-1
96 -106 m 1,4,-1
 96 248 l 1,5,-1
 241 248 l 1,6,-1
 241 -106 l 1,7,-1
 96 -106 l 1,4,-1
EndSplineSet
EndChar

StartChar: section
Encoding: 167 167 105
Width: 504
GlyphClass: 2
Flags: W
LayerCount: 2
Fore
SplineSet
480 217 m 0,0,1
 480 99 480 99 354 38 c 1,2,3
 402 -26 402 -26 402 -100.5 c 128,-1,4
 402 -175 402 -175 343.5 -229 c 128,-1,5
 285 -283 285 -283 182 -308 c 1,6,-1
 151 -211 l 1,7,8
 197 -201 197 -201 232.5 -176.5 c 128,-1,9
 268 -152 268 -152 268 -119.5 c 128,-1,10
 268 -87 268 -87 259 -68 c 128,-1,11
 250 -49 250 -49 223 -17 c 2,12,-1
 96 133 l 2,13,14
 24 218 24 218 24 298 c 0,15,16
 24 417 24 417 151 477 c 1,17,18
 102 545 102 545 102 617.5 c 128,-1,19
 102 690 102 690 161 744 c 128,-1,20
 220 798 220 798 322 822 c 1,21,-1
 353 726 l 1,22,23
 307 716 307 716 271.5 691.5 c 128,-1,24
 236 667 236 667 236 634.5 c 128,-1,25
 236 602 236 602 243.5 584 c 128,-1,26
 251 566 251 566 272 542 c 2,27,-1
 405 384 l 1,28,29
 480 306 480 306 480 217 c 0,0,1
346 197 m 0,30,31
 346 227 346 227 337.5 246 c 128,-1,32
 329 265 329 265 301 297 c 2,33,-1
 219 393 l 1,34,35
 158 363 158 363 158 317 c 0,36,37
 158 288 158 288 165.5 270 c 128,-1,38
 173 252 173 252 194 228 c 2,39,-1
 284 120 l 1,40,41
 346 149 346 149 346 197 c 0,30,31
EndSplineSet
EndChar

StartChar: dieresis
Encoding: 168 168 106
Width: 372
GlyphClass: 2
Flags: W
LayerCount: 2
Fore
SplineSet
76 643 m 128,-1,1
 53 643 53 643 39 649 c 128,-1,2
 25 655 25 655 19 667 c 0,3,4
 9 687 9 687 9 710 c 128,-1,5
 9 733 9 733 11 743.5 c 128,-1,6
 13 754 13 754 19 766 c 0,7,8
 31 792 31 792 76 792 c 0,9,10
 123 792 123 792 135 766 c 0,11,12
 145 746 145 746 145 723 c 128,-1,13
 145 700 145 700 143 689.5 c 128,-1,14
 141 679 141 679 135 667 c 128,-1,15
 129 655 129 655 114 649 c 128,-1,0
 99 643 99 643 76 643 c 128,-1,1
294 643 m 128,-1,17
 271 643 271 643 257 649 c 128,-1,18
 243 655 243 655 237 667 c 0,19,20
 227 687 227 687 227 710 c 128,-1,21
 227 733 227 733 229 743.5 c 128,-1,22
 231 754 231 754 237 766 c 0,23,24
 249 792 249 792 294 792 c 0,25,26
 341 792 341 792 353 766 c 0,27,28
 363 746 363 746 363 723 c 128,-1,29
 363 700 363 700 361 689.5 c 128,-1,30
 359 679 359 679 353 667 c 128,-1,31
 347 655 347 655 332 649 c 128,-1,16
 317 643 317 643 294 643 c 128,-1,17
EndSplineSet
EndChar

StartChar: copyright
Encoding: 169 169 107
Width: 735
GlyphClass: 2
Flags: W
LayerCount: 2
Fore
SplineSet
360 711 m 0,0,1
 279 711 279 711 279 561 c 128,-1,2
 279 411 279 411 361 411 c 0,3,4
 434 411 434 411 437 500 c 1,5,-1
 503 497 l 1,6,7
 495 352 495 352 359 352 c 0,8,9
 272 352 272 352 237.5 404 c 128,-1,10
 203 456 203 456 203 560 c 128,-1,11
 203 664 203 664 239 716.5 c 128,-1,12
 275 769 275 769 358 769 c 0,13,14
 490 769 490 769 502 642 c 1,15,-1
 435 637 l 1,16,17
 432 675 432 675 414.5 693 c 128,-1,18
 397 711 397 711 360 711 c 0,0,1
131 324.5 m 128,-1,20
 50 406 50 406 50 560.5 c 128,-1,21
 50 715 50 715 131.5 796.5 c 128,-1,22
 213 878 213 878 367.5 878 c 128,-1,23
 522 878 522 878 603.5 796 c 128,-1,24
 685 714 685 714 685 560 c 128,-1,25
 685 406 685 406 603.5 324.5 c 128,-1,26
 522 243 522 243 367 243 c 128,-1,19
 212 243 212 243 131 324.5 c 128,-1,20
122 560.5 m 128,-1,28
 122 310 122 310 367.5 310 c 128,-1,29
 613 310 613 310 613 560.5 c 128,-1,30
 613 811 613 811 367.5 811 c 128,-1,27
 122 811 122 811 122 560.5 c 128,-1,28
EndSplineSet
EndChar

StartChar: ordfeminine
Encoding: 170 170 108
Width: 444
GlyphClass: 2
Flags: W
LayerCount: 2
Fore
SplineSet
221 760 m 0,0,1
 382 760 382 760 382 621 c 2,2,-1
 382 350 l 1,3,-1
 304 350 l 1,4,-1
 269 389 l 1,5,6
 218 340 218 340 158.5 340 c 128,-1,7
 99 340 99 340 69 371 c 128,-1,8
 39 402 39 402 39 454 c 128,-1,9
 39 506 39 506 71.5 538 c 128,-1,10
 104 570 104 570 194 583 c 2,11,-1
 261 592 l 1,12,-1
 261 620 l 2,13,14
 261 669 261 669 212.5 669 c 128,-1,15
 164 669 164 669 156 618 c 1,16,-1
 63 646 l 1,17,18
 78 704 78 704 115 732 c 128,-1,19
 152 760 152 760 221 760 c 0,0,1
155 460 m 0,20,21
 155 427 155 427 191 427 c 128,-1,22
 227 427 227 427 261 456 c 1,23,-1
 261 520 l 1,24,-1
 219 512 l 2,25,26
 155 500 155 500 155 460 c 0,20,21
32 204 m 1,27,-1
 32 281 l 1,28,-1
 389 281 l 1,29,-1
 389 204 l 1,30,-1
 32 204 l 1,27,-1
EndSplineSet
EndChar

StartChar: guillemotleft
Encoding: 171 171 109
Width: 536
GlyphClass: 2
Flags: W
LayerCount: 2
Fore
SplineSet
267 466 m 1,0,-1
 153 315 l 1,1,-1
 267 164 l 1,2,-1
 202 100 l 1,3,-1
 22 291 l 1,4,-1
 22 339 l 1,5,-1
 202 530 l 1,6,-1
 267 466 l 1,0,-1
498 466 m 1,7,-1
 384 315 l 1,8,-1
 498 164 l 1,9,-1
 433 100 l 1,10,-1
 253 291 l 1,11,-1
 253 339 l 1,12,-1
 433 530 l 1,13,-1
 498 466 l 1,7,-1
EndSplineSet
EndChar

StartChar: logicalnot
Encoding: 172 172 110
Width: 580
GlyphClass: 2
Flags: W
LayerCount: 2
Fore
SplineSet
86 272 m 1,0,-1
 86 364 l 1,1,-1
 494 364 l 1,2,-1
 494 134 l 1,3,-1
 406 134 l 1,4,-1
 406 272 l 1,5,-1
 86 272 l 1,0,-1
EndSplineSet
EndChar

StartChar: registered
Encoding: 174 174 111
Width: 735
GlyphClass: 2
Flags: W
LayerCount: 2
Fore
SplineSet
131 324.5 m 128,-1,1
 50 406 50 406 50 560.5 c 128,-1,2
 50 715 50 715 131.5 796.5 c 128,-1,3
 213 878 213 878 367.5 878 c 128,-1,4
 522 878 522 878 603.5 796 c 128,-1,5
 685 714 685 714 685 560 c 128,-1,6
 685 406 685 406 603.5 324.5 c 128,-1,7
 522 243 522 243 367 243 c 128,-1,0
 212 243 212 243 131 324.5 c 128,-1,1
122 560.5 m 128,-1,9
 122 310 122 310 367.5 310 c 128,-1,10
 613 310 613 310 613 560.5 c 128,-1,11
 613 811 613 811 367.5 811 c 128,-1,8
 122 811 122 811 122 560.5 c 128,-1,9
242 762 m 1,12,-1
 373 762 l 2,13,14
 458 762 458 762 484 720 c 0,15,16
 505 686 505 686 505 643 c 0,17,18
 505 548 505 548 440 529 c 1,19,20
 454 516 454 516 464 494 c 2,21,-1
 522 360 l 1,22,-1
 442 360 l 1,23,-1
 386 490 l 2,24,25
 375 517 375 517 350 517 c 2,26,-1
 318 517 l 1,27,-1
 318 360 l 1,28,-1
 242 360 l 1,29,-1
 242 762 l 1,12,-1
318 574 m 1,30,-1
 372 574 l 2,31,32
 429 574 429 574 429 639 c 128,-1,33
 429 704 429 704 372 704 c 2,34,-1
 318 704 l 1,35,-1
 318 574 l 1,30,-1
EndSplineSet
EndChar

StartChar: macron
Encoding: 175 175 112
Width: 354
GlyphClass: 2
Flags: W
LayerCount: 2
Fore
SplineSet
42 670 m 1,0,-1
 42 767 l 1,1,-1
 312 767 l 1,2,-1
 312 670 l 1,3,-1
 42 670 l 1,0,-1
EndSplineSet
EndChar

StartChar: degree
Encoding: 176 176 113
Width: 409
GlyphClass: 2
Flags: W
LayerCount: 2
Fore
SplineSet
204 431 m 128,-1,1
 247 431 247 431 259 452 c 128,-1,2
 271 473 271 473 271 525 c 128,-1,3
 271 577 271 577 259 598.5 c 128,-1,4
 247 620 247 620 204 620 c 128,-1,5
 161 620 161 620 149.5 598.5 c 128,-1,6
 138 577 138 577 138 525 c 128,-1,7
 138 473 138 473 149.5 452 c 128,-1,0
 161 431 161 431 204 431 c 128,-1,1
284.5 350.5 m 128,-1,9
 251 340 251 340 198.5 340 c 128,-1,10
 146 340 146 340 108.5 354.5 c 128,-1,11
 71 369 71 369 54 398 c 128,-1,12
 37 427 37 427 31.5 455 c 128,-1,13
 26 483 26 483 26 525 c 128,-1,14
 26 567 26 567 31.5 595.5 c 128,-1,15
 37 624 37 624 54 652.5 c 128,-1,16
 71 681 71 681 108.5 695.5 c 128,-1,17
 146 710 146 710 204 710 c 128,-1,18
 262 710 262 710 300 695.5 c 128,-1,19
 338 681 338 681 355 652.5 c 128,-1,20
 372 624 372 624 377.5 595.5 c 128,-1,21
 383 567 383 567 383 529.5 c 128,-1,22
 383 492 383 492 380 468.5 c 128,-1,23
 377 445 377 445 366.5 419 c 128,-1,24
 356 393 356 393 337 377 c 128,-1,8
 318 361 318 361 284.5 350.5 c 128,-1,9
EndSplineSet
EndChar

StartChar: plusminus
Encoding: 177 177 114
Width: 580
GlyphClass: 2
Flags: W
LayerCount: 2
Fore
SplineSet
86 322 m 1,0,-1
 86 414 l 1,1,-1
 244 414 l 1,2,-1
 244 572 l 1,3,-1
 336 572 l 1,4,-1
 336 414 l 1,5,-1
 494 414 l 1,6,-1
 494 322 l 1,7,-1
 336 322 l 1,8,-1
 336 164 l 1,9,-1
 244 164 l 1,10,-1
 244 322 l 1,11,-1
 86 322 l 1,0,-1
86 0 m 1,12,-1
 86 92 l 1,13,-1
 494 92 l 1,14,-1
 494 0 l 1,15,-1
 86 0 l 1,12,-1
EndSplineSet
EndChar

StartChar: twosuperior
Encoding: 178 178 115
Width: 387
GlyphClass: 2
Flags: W
LayerCount: 2
Fore
SplineSet
39 633 m 1,0,1
 49 754 49 754 191 754 c 0,2,3
 262 754 262 754 297.5 720.5 c 128,-1,4
 333 687 333 687 333 634 c 128,-1,5
 333 581 333 581 272 514 c 2,6,-1
 193 426 l 1,7,-1
 341 426 l 1,8,-1
 341 340 l 1,9,-1
 38 340 l 1,10,-1
 38 407 l 1,11,-1
 175 550 l 2,12,13
 220 598 220 598 220 632 c 128,-1,14
 220 666 220 666 181 666 c 0,15,16
 159 666 159 666 148.5 656 c 128,-1,17
 138 646 138 646 137 622 c 1,18,-1
 39 633 l 1,0,1
EndSplineSet
EndChar

StartChar: threesuperior
Encoding: 179 179 116
Width: 387
GlyphClass: 2
Flags: W
LayerCount: 2
Fore
SplineSet
136 464 m 1,0,1
 139 417 139 417 187 417 c 128,-1,2
 235 417 235 417 235 459 c 0,3,4
 235 507 235 507 161 507 c 2,5,-1
 152 507 l 1,6,-1
 152 574 l 1,7,-1
 162 574 l 2,8,9
 232 574 232 574 232 627 c 0,10,11
 232 644 232 644 221 655 c 128,-1,12
 210 666 210 666 190 666 c 0,13,14
 150 666 150 666 145 623 c 1,15,-1
 46 635 l 1,16,17
 50 700 50 700 86 727 c 128,-1,18
 122 754 122 754 194.5 754 c 128,-1,19
 267 754 267 754 304.5 719 c 128,-1,20
 342 684 342 684 342 626 c 128,-1,21
 342 568 342 568 282 542 c 1,22,23
 348 516 348 516 348 450 c 0,24,25
 348 403 348 403 305 367.5 c 128,-1,26
 262 332 262 332 190 332 c 128,-1,27
 118 332 118 332 80 359.5 c 128,-1,28
 42 387 42 387 38 452 c 1,29,-1
 136 464 l 1,0,1
EndSplineSet
EndChar

StartChar: acute
Encoding: 180 180 117
Width: 298
GlyphClass: 2
Flags: W
LayerCount: 2
Fore
SplineSet
72 620 m 1,0,-1
 27 692 l 1,1,-1
 222 825 l 1,2,-1
 282 729 l 1,3,-1
 72 620 l 1,0,-1
EndSplineSet
EndChar

StartChar: mu
Encoding: 181 181 118
Width: 625
GlyphClass: 2
Flags: W
LayerCount: 2
Fore
SplineSet
230 -227 m 1,0,-1
 96 -227 l 1,1,-1
 96 572 l 1,2,-1
 230 572 l 1,3,-1
 230 129 l 1,4,5
 292 89 292 89 351 89 c 128,-1,6
 410 89 410 89 430 113 c 128,-1,7
 450 137 450 137 450 190 c 2,8,-1
 450 572 l 1,9,-1
 584 572 l 1,10,-1
 584 168 l 2,11,12
 584 -14 584 -14 407 -14 c 0,13,14
 318 -14 318 -14 230 32 c 1,15,-1
 230 -227 l 1,0,-1
EndSplineSet
EndChar

StartChar: paragraph
Encoding: 182 182 119
Width: 513
GlyphClass: 2
Flags: W
LayerCount: 2
Fore
SplineSet
399 0 m 1,0,-1
 263 0 l 1,1,-1
 263 269 l 1,2,-1
 219 269 l 2,3,4
 117 269 117 269 65.5 326.5 c 128,-1,5
 14 384 14 384 14 469 c 128,-1,6
 14 554 14 554 65.5 612 c 128,-1,7
 117 670 117 670 219 670 c 2,8,-1
 399 670 l 1,9,-1
 399 0 l 1,0,-1
EndSplineSet
EndChar

StartChar: periodcentered
Encoding: 183 183 120
Width: 234
GlyphClass: 2
Flags: W
LayerCount: 2
Fore
SplineSet
156.5 263.5 m 128,-1,1
 141 257 141 257 113 257 c 128,-1,2
 85 257 85 257 68.5 270 c 128,-1,3
 52 283 52 283 48.5 297.5 c 128,-1,4
 45 312 45 312 45 332 c 128,-1,5
 45 352 45 352 47 363.5 c 128,-1,6
 49 375 49 375 56 388 c 0,7,8
 68 414 68 414 116 414 c 0,9,10
 166 414 166 414 178 388 c 1,11,12
 189 367 189 367 189 342.5 c 128,-1,13
 189 318 189 318 187 307 c 128,-1,14
 185 296 185 296 178.5 283 c 128,-1,0
 172 270 172 270 156.5 263.5 c 128,-1,1
EndSplineSet
EndChar

StartChar: cedilla
Encoding: 184 184 121
Width: 283
GlyphClass: 2
Flags: W
LayerCount: 2
Fore
SplineSet
26 -130 m 1,0,-1
 110 -130 l 1,1,2
 110 -167 110 -167 142 -167 c 0,3,4
 156 -167 156 -167 164 -160.5 c 128,-1,5
 172 -154 172 -154 173.5 -147 c 128,-1,6
 175 -140 175 -140 175 -129 c 0,7,8
 175 -98 175 -98 139 -92 c 2,9,-1
 86 -83 l 1,10,-1
 95 -35 l 1,11,-1
 139 -35 l 2,12,13
 196 -35 196 -35 226.5 -55.5 c 128,-1,14
 257 -76 257 -76 257 -131 c 128,-1,15
 257 -186 257 -186 231.5 -213.5 c 128,-1,16
 206 -241 206 -241 141 -241 c 0,17,18
 26 -241 26 -241 26 -130 c 1,0,-1
EndSplineSet
EndChar

StartChar: onesuperior
Encoding: 185 185 122
Width: 387
GlyphClass: 2
Flags: W
LayerCount: 2
Fore
SplineSet
67 649 m 1,0,-1
 67 715 l 1,1,2
 136 722 136 722 169 745 c 1,3,-1
 264 745 l 1,4,-1
 264 340 l 1,5,-1
 149 340 l 1,6,-1
 149 649 l 1,7,-1
 67 649 l 1,0,-1
EndSplineSet
EndChar

StartChar: ordmasculine
Encoding: 186 186 123
Width: 409
GlyphClass: 2
Flags: W
LayerCount: 2
Fore
SplineSet
26 204 m 1,0,-1
 26 281 l 1,1,-1
 383 281 l 1,2,-1
 383 204 l 1,3,-1
 26 204 l 1,0,-1
150.5 459 m 128,-1,5
 164 431 164 431 204.5 431 c 128,-1,6
 245 431 245 431 258.5 459 c 128,-1,7
 272 487 272 487 272 550 c 128,-1,8
 272 613 272 613 258.5 641 c 128,-1,9
 245 669 245 669 204.5 669 c 128,-1,10
 164 669 164 669 150.5 641 c 128,-1,11
 137 613 137 613 137 550 c 128,-1,4
 137 487 137 487 150.5 459 c 128,-1,5
393 550 m 128,-1,13
 393 340 393 340 204.5 340 c 128,-1,14
 16 340 16 340 16 550 c 128,-1,15
 16 760 16 760 204.5 760 c 128,-1,12
 393 760 393 760 393 550 c 128,-1,13
EndSplineSet
EndChar

StartChar: guillemotright
Encoding: 187 187 124
Width: 536
GlyphClass: 2
Flags: W
LayerCount: 2
Fore
SplineSet
263 164 m 1,0,-1
 377 315 l 1,1,-1
 263 466 l 1,2,-1
 328 530 l 1,3,-1
 508 339 l 1,4,-1
 508 291 l 1,5,-1
 328 100 l 1,6,-1
 263 164 l 1,0,-1
32 164 m 1,7,-1
 146 315 l 1,8,-1
 32 466 l 1,9,-1
 97 530 l 1,10,-1
 277 339 l 1,11,-1
 277 291 l 1,12,-1
 97 100 l 1,13,-1
 32 164 l 1,7,-1
EndSplineSet
EndChar

StartChar: onequarter
Encoding: 188 188 125
Width: 976
GlyphClass: 2
Flags: W
LayerCount: 2
Fore
SplineSet
865 0 m 1,0,-1
 760 0 l 1,1,-1
 760 69 l 1,2,-1
 567 69 l 1,3,-1
 567 147 l 1,4,-1
 698 405 l 1,5,-1
 865 405 l 1,6,-1
 865 155 l 1,7,-1
 898 155 l 1,8,-1
 898 69 l 1,9,-1
 865 69 l 1,10,-1
 865 0 l 1,0,-1
760 155 m 1,11,-1
 760 322 l 1,12,-1
 677 155 l 1,13,-1
 760 155 l 1,11,-1
72 635 m 1,14,-1
 72 701 l 1,15,16
 141 708 141 708 174 731 c 1,17,-1
 269 731 l 1,18,-1
 269 326 l 1,19,-1
 154 326 l 1,20,-1
 154 635 l 1,21,-1
 72 635 l 1,14,-1
320 -36 m 1,22,-1
 534 765 l 1,23,-1
 619 765 l 1,24,-1
 404 -36 l 1,25,-1
 320 -36 l 1,22,-1
EndSplineSet
EndChar

StartChar: onehalf
Encoding: 189 189 126
Width: 976
GlyphClass: 2
Flags: W
LayerCount: 2
Fore
SplineSet
318 -36 m 1,0,-1
 532 765 l 1,1,-1
 617 765 l 1,2,-1
 402 -36 l 1,3,-1
 318 -36 l 1,0,-1
595 293 m 1,4,5
 605 414 605 414 747 414 c 0,6,7
 818 414 818 414 853.5 380.5 c 128,-1,8
 889 347 889 347 889 294 c 128,-1,9
 889 241 889 241 828 174 c 2,10,-1
 749 86 l 1,11,-1
 897 86 l 1,12,-1
 897 0 l 1,13,-1
 594 0 l 1,14,-1
 594 67 l 1,15,-1
 731 210 l 2,16,17
 776 258 776 258 776 292 c 128,-1,18
 776 326 776 326 737 326 c 0,19,20
 715 326 715 326 704.5 316 c 128,-1,21
 694 306 694 306 693 282 c 1,22,-1
 595 293 l 1,4,5
72 635 m 1,23,-1
 72 701 l 1,24,25
 141 708 141 708 174 731 c 1,26,-1
 269 731 l 1,27,-1
 269 326 l 1,28,-1
 154 326 l 1,29,-1
 154 635 l 1,30,-1
 72 635 l 1,23,-1
EndSplineSet
EndChar

StartChar: threequarters
Encoding: 190 190 127
Width: 976
GlyphClass: 2
Flags: W
LayerCount: 2
Fore
SplineSet
865 0 m 1,0,-1
 760 0 l 1,1,-1
 760 69 l 1,2,-1
 567 69 l 1,3,-1
 567 147 l 1,4,-1
 698 405 l 1,5,-1
 865 405 l 1,6,-1
 865 155 l 1,7,-1
 898 155 l 1,8,-1
 898 69 l 1,9,-1
 865 69 l 1,10,-1
 865 0 l 1,0,-1
760 155 m 1,11,-1
 760 322 l 1,12,-1
 677 155 l 1,13,-1
 760 155 l 1,11,-1
141 450 m 1,14,15
 144 403 144 403 192 403 c 128,-1,16
 240 403 240 403 240 445 c 0,17,18
 240 493 240 493 166 493 c 2,19,-1
 157 493 l 1,20,-1
 157 560 l 1,21,-1
 167 560 l 2,22,23
 237 560 237 560 237 613 c 0,24,25
 237 630 237 630 226 641 c 128,-1,26
 215 652 215 652 195 652 c 0,27,28
 155 652 155 652 150 609 c 1,29,-1
 51 621 l 1,30,31
 55 686 55 686 91 713 c 128,-1,32
 127 740 127 740 199.5 740 c 128,-1,33
 272 740 272 740 309.5 705 c 128,-1,34
 347 670 347 670 347 612 c 128,-1,35
 347 554 347 554 287 528 c 1,36,37
 353 502 353 502 353 436 c 0,38,39
 353 389 353 389 310 353.5 c 128,-1,40
 267 318 267 318 195 318 c 128,-1,41
 123 318 123 318 85 345.5 c 128,-1,42
 47 373 47 373 43 438 c 1,43,-1
 141 450 l 1,14,15
340 -36 m 1,44,-1
 554 765 l 1,45,-1
 639 765 l 1,46,-1
 424 -36 l 1,47,-1
 340 -36 l 1,44,-1
EndSplineSet
EndChar

StartChar: questiondown
Encoding: 191 191 128
Width: 468
GlyphClass: 2
Flags: W
LayerCount: 2
Fore
SplineSet
228.5 579.5 m 128,-1,1
 244 586 244 586 272 586 c 128,-1,2
 300 586 300 586 316.5 573 c 128,-1,3
 333 560 333 560 336.5 545.5 c 128,-1,4
 340 531 340 531 340 511 c 128,-1,5
 340 491 340 491 338 479.5 c 128,-1,6
 336 468 336 468 330 455 c 0,7,8
 316 429 316 429 269 429 c 0,9,10
 220 429 220 429 206 455 c 1,11,12
 196 476 196 476 196 500.5 c 128,-1,13
 196 525 196 525 198 536 c 128,-1,14
 200 547 200 547 206.5 560 c 128,-1,0
 213 573 213 573 228.5 579.5 c 128,-1,1
395.5 -120.5 m 128,-1,16
 341 -166 341 -166 239 -166 c 128,-1,17
 137 -166 137 -166 77.5 -104.5 c 128,-1,18
 18 -43 18 -43 18 40.5 c 128,-1,19
 18 124 18 124 73.5 178.5 c 128,-1,20
 129 233 129 233 217 259 c 1,21,-1
 228 369 l 1,22,-1
 312 369 l 1,23,-1
 321 213 l 1,24,25
 230 185 230 185 191 145.5 c 128,-1,26
 152 106 152 106 152 54 c 128,-1,27
 152 2 152 2 175.5 -31.5 c 128,-1,28
 199 -65 199 -65 247 -65 c 0,29,30
 335 -65 335 -65 343 23 c 1,31,-1
 458 7 l 1,32,15
 450 -75 450 -75 395.5 -120.5 c 128,-1,16
EndSplineSet
EndChar

StartChar: Agrave
Encoding: 192 192 129
Width: 642
GlyphClass: 2
Flags: W
LayerCount: 2
Fore
SplineSet
233 730 m 1,0,-1
 410 730 l 1,1,-1
 634 0 l 1,2,-1
 503 0 l 1,3,-1
 441 202 l 1,4,-1
 201 202 l 1,5,-1
 140 0 l 1,6,-1
 8 0 l 1,7,-1
 233 730 l 1,0,-1
321 601 m 1,8,-1
 232 305 l 1,9,-1
 410 305 l 1,10,-1
 321 601 l 1,8,-1
454 850 m 1,11,-1
 409 778 l 1,12,-1
 199 887 l 1,13,-1
 259 983 l 1,14,-1
 454 850 l 1,11,-1
EndSplineSet
EndChar

StartChar: Aacute
Encoding: 193 193 130
Width: 642
GlyphClass: 2
Flags: W
LayerCount: 2
Fore
SplineSet
233 730 m 1,0,-1
 410 730 l 1,1,-1
 634 0 l 1,2,-1
 503 0 l 1,3,-1
 441 202 l 1,4,-1
 201 202 l 1,5,-1
 140 0 l 1,6,-1
 8 0 l 1,7,-1
 233 730 l 1,0,-1
321 601 m 1,8,-1
 232 305 l 1,9,-1
 410 305 l 1,10,-1
 321 601 l 1,8,-1
254 778 m 1,11,-1
 209 850 l 1,12,-1
 404 983 l 1,13,-1
 464 887 l 1,14,-1
 254 778 l 1,11,-1
EndSplineSet
EndChar

StartChar: Acircumflex
Encoding: 194 194 131
Width: 642
GlyphClass: 2
Flags: W
LayerCount: 2
Fore
SplineSet
233 730 m 1,0,-1
 410 730 l 1,1,-1
 634 0 l 1,2,-1
 503 0 l 1,3,-1
 441 202 l 1,4,-1
 201 202 l 1,5,-1
 140 0 l 1,6,-1
 8 0 l 1,7,-1
 233 730 l 1,0,-1
321 601 m 1,8,-1
 232 305 l 1,9,-1
 410 305 l 1,10,-1
 321 601 l 1,8,-1
221 784 m 1,11,-1
 173 832 l 1,12,-1
 301 979 l 1,13,-1
 362 979 l 1,14,-1
 490 832 l 1,15,-1
 442 784 l 1,16,-1
 331 868 l 1,17,-1
 221 784 l 1,11,-1
EndSplineSet
EndChar

StartChar: Atilde
Encoding: 195 195 132
Width: 642
GlyphClass: 2
Flags: W
LayerCount: 2
Fore
SplineSet
233 730 m 1,0,-1
 410 730 l 1,1,-1
 634 0 l 1,2,-1
 503 0 l 1,3,-1
 441 202 l 1,4,-1
 201 202 l 1,5,-1
 140 0 l 1,6,-1
 8 0 l 1,7,-1
 233 730 l 1,0,-1
321 601 m 1,8,-1
 232 305 l 1,9,-1
 410 305 l 1,10,-1
 321 601 l 1,8,-1
465.5 846 m 128,-1,12
 440 819 440 819 410 819 c 128,-1,13
 380 819 380 819 333 837 c 128,-1,14
 286 855 286 855 271 855 c 0,15,16
 242 855 242 855 229 811 c 1,17,-1
 154 835 l 1,18,19
 171 898 171 898 196.5 925 c 128,-1,20
 222 952 222 952 252 952 c 128,-1,21
 282 952 282 952 329.5 934 c 128,-1,22
 377 916 377 916 392 916 c 0,23,24
 421 916 421 916 434 960 c 1,25,-1
 508 936 l 1,26,11
 491 873 491 873 465.5 846 c 128,-1,12
EndSplineSet
EndChar

StartChar: Adieresis
Encoding: 196 196 133
Width: 642
GlyphClass: 2
Flags: W
LayerCount: 2
Fore
SplineSet
233 730 m 1,0,-1
 410 730 l 1,1,-1
 634 0 l 1,2,-1
 503 0 l 1,3,-1
 441 202 l 1,4,-1
 201 202 l 1,5,-1
 140 0 l 1,6,-1
 8 0 l 1,7,-1
 233 730 l 1,0,-1
321 601 m 1,8,-1
 232 305 l 1,9,-1
 410 305 l 1,10,-1
 321 601 l 1,8,-1
221 801 m 128,-1,12
 198 801 198 801 184 807 c 128,-1,13
 170 813 170 813 164 825 c 0,14,15
 154 845 154 845 154 868 c 128,-1,16
 154 891 154 891 156 901.5 c 128,-1,17
 158 912 158 912 164 924 c 0,18,19
 176 950 176 950 221 950 c 0,20,21
 268 950 268 950 280 924 c 0,22,23
 290 904 290 904 290 881 c 128,-1,24
 290 858 290 858 288 847.5 c 128,-1,25
 286 837 286 837 280 825 c 128,-1,26
 274 813 274 813 259 807 c 128,-1,11
 244 801 244 801 221 801 c 128,-1,12
439 801 m 128,-1,28
 416 801 416 801 402 807 c 128,-1,29
 388 813 388 813 382 825 c 0,30,31
 372 845 372 845 372 868 c 128,-1,32
 372 891 372 891 374 901.5 c 128,-1,33
 376 912 376 912 382 924 c 0,34,35
 394 950 394 950 439 950 c 0,36,37
 486 950 486 950 498 924 c 0,38,39
 508 904 508 904 508 881 c 128,-1,40
 508 858 508 858 506 847.5 c 128,-1,41
 504 837 504 837 498 825 c 128,-1,42
 492 813 492 813 477 807 c 128,-1,27
 462 801 462 801 439 801 c 128,-1,28
EndSplineSet
EndChar

StartChar: Aring
Encoding: 197 197 134
Width: 642
GlyphClass: 2
Flags: W
LayerCount: 2
Fore
SplineSet
233 730 m 1,0,-1
 410 730 l 1,1,-1
 634 0 l 1,2,-1
 503 0 l 1,3,-1
 441 202 l 1,4,-1
 201 202 l 1,5,-1
 140 0 l 1,6,-1
 8 0 l 1,7,-1
 233 730 l 1,0,-1
321 601 m 1,8,-1
 232 305 l 1,9,-1
 410 305 l 1,10,-1
 321 601 l 1,8,-1
330 834 m 0,11,12
 371 834 371 834 371 883 c 128,-1,13
 371 932 371 932 330 932 c 0,14,15
 293 932 293 932 293 883 c 128,-1,16
 293 834 293 834 330 834 c 0,11,12
330 770 m 0,17,18
 219 770 219 770 219 882.5 c 128,-1,19
 219 995 219 995 330 995 c 0,20,21
 395 995 395 995 420 961.5 c 128,-1,22
 445 928 445 928 445 882 c 128,-1,23
 445 836 445 836 420 803 c 128,-1,24
 395 770 395 770 330 770 c 0,17,18
EndSplineSet
EndChar

StartChar: AE
Encoding: 198 198 135
Width: 935
GlyphClass: 2
Flags: W
LayerCount: 2
Fore
SplineSet
881 730 m 1,0,-1
 881 625 l 1,1,-1
 605 625 l 1,2,-1
 605 403 l 1,3,-1
 856 403 l 1,4,-1
 856 299 l 1,5,-1
 605 299 l 1,6,-1
 605 105 l 1,7,-1
 901 105 l 1,8,-1
 901 0 l 1,9,-1
 469 0 l 1,10,-1
 469 299 l 1,11,-1
 266 299 l 1,12,-1
 143 0 l 1,13,-1
 11 0 l 1,14,-1
 316 730 l 1,15,-1
 881 730 l 1,0,-1
469 625 m 1,16,-1
 400 625 l 1,17,-1
 308 403 l 1,18,-1
 469 403 l 1,19,-1
 469 625 l 1,16,-1
EndSplineSet
EndChar

StartChar: Ccedilla
Encoding: 199 199 136
Width: 626
GlyphClass: 2
Flags: W
LayerCount: 2
Fore
SplineSet
352 634 m 0,0,1
 258 634 258 634 225 572.5 c 128,-1,2
 192 511 192 511 192 365.5 c 128,-1,3
 192 220 192 220 225 158 c 128,-1,4
 258 96 258 96 352 96 c 0,5,6
 425 96 425 96 455.5 136 c 128,-1,7
 486 176 486 176 488 252 c 1,8,-1
 598 247 l 1,9,10
 590 118 590 118 536.5 52 c 128,-1,11
 483 -14 483 -14 352 -14 c 0,12,13
 181 -14 181 -14 116 86 c 0,14,15
 83 136 83 136 69.5 202.5 c 128,-1,16
 56 269 56 269 56 365 c 128,-1,17
 56 461 56 461 69.5 527.5 c 128,-1,18
 83 594 83 594 116 644 c 0,19,20
 181 744 181 744 352 744 c 0,21,22
 475 744 475 744 529 689 c 128,-1,23
 583 634 583 634 595 527 c 1,24,-1
 485 510 l 1,25,26
 479 570 479 570 448 602 c 128,-1,27
 417 634 417 634 352 634 c 0,0,1
212 -130 m 1,28,-1
 296 -130 l 1,29,30
 296 -167 296 -167 328 -167 c 0,31,32
 342 -167 342 -167 350 -160.5 c 128,-1,33
 358 -154 358 -154 359.5 -147 c 128,-1,34
 361 -140 361 -140 361 -129 c 0,35,36
 361 -98 361 -98 325 -92 c 2,37,-1
 272 -83 l 1,38,-1
 281 -35 l 1,39,-1
 325 -35 l 2,40,41
 382 -35 382 -35 412.5 -55.5 c 128,-1,42
 443 -76 443 -76 443 -131 c 128,-1,43
 443 -186 443 -186 417.5 -213.5 c 128,-1,44
 392 -241 392 -241 327 -241 c 0,45,46
 212 -241 212 -241 212 -130 c 1,28,-1
EndSplineSet
EndChar

StartChar: Egrave
Encoding: 200 200 137
Width: 560
GlyphClass: 2
Flags: W
LayerCount: 2
Fore
SplineSet
94 730 m 1,0,-1
 506 730 l 1,1,-1
 506 625 l 1,2,-1
 230 625 l 1,3,-1
 230 423 l 1,4,-1
 481 423 l 1,5,-1
 481 319 l 1,6,-1
 230 319 l 1,7,-1
 230 105 l 1,8,-1
 526 105 l 1,9,-1
 526 0 l 1,10,-1
 94 0 l 1,11,-1
 94 730 l 1,0,-1
437 850 m 1,12,-1
 392 778 l 1,13,-1
 182 887 l 1,14,-1
 242 983 l 1,15,-1
 437 850 l 1,12,-1
EndSplineSet
EndChar

StartChar: Eacute
Encoding: 201 201 138
Width: 560
GlyphClass: 2
Flags: W
LayerCount: 2
Fore
SplineSet
94 730 m 1,0,-1
 506 730 l 1,1,-1
 506 625 l 1,2,-1
 230 625 l 1,3,-1
 230 423 l 1,4,-1
 481 423 l 1,5,-1
 481 319 l 1,6,-1
 230 319 l 1,7,-1
 230 105 l 1,8,-1
 526 105 l 1,9,-1
 526 0 l 1,10,-1
 94 0 l 1,11,-1
 94 730 l 1,0,-1
245 778 m 1,12,-1
 200 850 l 1,13,-1
 395 983 l 1,14,-1
 455 887 l 1,15,-1
 245 778 l 1,12,-1
EndSplineSet
EndChar

StartChar: Ecircumflex
Encoding: 202 202 139
Width: 560
GlyphClass: 2
Flags: W
LayerCount: 2
Fore
SplineSet
94 730 m 1,0,-1
 506 730 l 1,1,-1
 506 625 l 1,2,-1
 230 625 l 1,3,-1
 230 423 l 1,4,-1
 481 423 l 1,5,-1
 481 319 l 1,6,-1
 230 319 l 1,7,-1
 230 105 l 1,8,-1
 526 105 l 1,9,-1
 526 0 l 1,10,-1
 94 0 l 1,11,-1
 94 730 l 1,0,-1
204 784 m 1,12,-1
 156 832 l 1,13,-1
 284 979 l 1,14,-1
 345 979 l 1,15,-1
 473 832 l 1,16,-1
 425 784 l 1,17,-1
 314 868 l 1,18,-1
 204 784 l 1,12,-1
EndSplineSet
EndChar

StartChar: Edieresis
Encoding: 203 203 140
Width: 560
GlyphClass: 2
Flags: W
LayerCount: 2
Fore
SplineSet
94 730 m 1,0,-1
 506 730 l 1,1,-1
 506 625 l 1,2,-1
 230 625 l 1,3,-1
 230 423 l 1,4,-1
 481 423 l 1,5,-1
 481 319 l 1,6,-1
 230 319 l 1,7,-1
 230 105 l 1,8,-1
 526 105 l 1,9,-1
 526 0 l 1,10,-1
 94 0 l 1,11,-1
 94 730 l 1,0,-1
204 801 m 128,-1,13
 181 801 181 801 167 807 c 128,-1,14
 153 813 153 813 147 825 c 0,15,16
 137 845 137 845 137 868 c 128,-1,17
 137 891 137 891 139 901.5 c 128,-1,18
 141 912 141 912 147 924 c 0,19,20
 159 950 159 950 204 950 c 0,21,22
 251 950 251 950 263 924 c 0,23,24
 273 904 273 904 273 881 c 128,-1,25
 273 858 273 858 271 847.5 c 128,-1,26
 269 837 269 837 263 825 c 128,-1,27
 257 813 257 813 242 807 c 128,-1,12
 227 801 227 801 204 801 c 128,-1,13
422 801 m 128,-1,29
 399 801 399 801 385 807 c 128,-1,30
 371 813 371 813 365 825 c 0,31,32
 355 845 355 845 355 868 c 128,-1,33
 355 891 355 891 357 901.5 c 128,-1,34
 359 912 359 912 365 924 c 0,35,36
 377 950 377 950 422 950 c 0,37,38
 469 950 469 950 481 924 c 0,39,40
 491 904 491 904 491 881 c 128,-1,41
 491 858 491 858 489 847.5 c 128,-1,42
 487 837 487 837 481 825 c 128,-1,43
 475 813 475 813 460 807 c 128,-1,28
 445 801 445 801 422 801 c 128,-1,29
EndSplineSet
EndChar

StartChar: Igrave
Encoding: 204 204 141
Width: 324
GlyphClass: 2
Flags: W
LayerCount: 2
Fore
SplineSet
94 730 m 1,0,-1
 230 730 l 1,1,-1
 230 0 l 1,2,-1
 94 0 l 1,3,-1
 94 730 l 1,0,-1
285 850 m 1,4,-1
 240 778 l 1,5,-1
 30 887 l 1,6,-1
 90 983 l 1,7,-1
 285 850 l 1,4,-1
EndSplineSet
EndChar

StartChar: Iacute
Encoding: 205 205 142
Width: 324
GlyphClass: 2
Flags: W
LayerCount: 2
Fore
SplineSet
94 730 m 1,0,-1
 230 730 l 1,1,-1
 230 0 l 1,2,-1
 94 0 l 1,3,-1
 94 730 l 1,0,-1
105 778 m 1,4,-1
 60 850 l 1,5,-1
 255 983 l 1,6,-1
 315 887 l 1,7,-1
 105 778 l 1,4,-1
EndSplineSet
EndChar

StartChar: Icircumflex
Encoding: 206 206 143
Width: 324
GlyphClass: 2
Flags: W
LayerCount: 2
Fore
SplineSet
94 730 m 1,0,-1
 230 730 l 1,1,-1
 230 0 l 1,2,-1
 94 0 l 1,3,-1
 94 730 l 1,0,-1
52 784 m 1,4,-1
 4 832 l 1,5,-1
 132 979 l 1,6,-1
 193 979 l 1,7,-1
 321 832 l 1,8,-1
 273 784 l 1,9,-1
 162 868 l 1,10,-1
 52 784 l 1,4,-1
EndSplineSet
EndChar

StartChar: Idieresis
Encoding: 207 207 144
Width: 324
GlyphClass: 2
Flags: W
LayerCount: 2
Fore
SplineSet
94 730 m 1,0,-1
 230 730 l 1,1,-1
 230 0 l 1,2,-1
 94 0 l 1,3,-1
 94 730 l 1,0,-1
52 801 m 128,-1,5
 29 801 29 801 15 807 c 128,-1,6
 1 813 1 813 -5 825 c 0,7,8
 -15 845 -15 845 -15 868 c 128,-1,9
 -15 891 -15 891 -13 901.5 c 128,-1,10
 -11 912 -11 912 -5 924 c 0,11,12
 7 950 7 950 52 950 c 0,13,14
 99 950 99 950 111 924 c 0,15,16
 121 904 121 904 121 881 c 128,-1,17
 121 858 121 858 119 847.5 c 128,-1,18
 117 837 117 837 111 825 c 128,-1,19
 105 813 105 813 90 807 c 128,-1,4
 75 801 75 801 52 801 c 128,-1,5
270 801 m 128,-1,21
 247 801 247 801 233 807 c 128,-1,22
 219 813 219 813 213 825 c 0,23,24
 203 845 203 845 203 868 c 128,-1,25
 203 891 203 891 205 901.5 c 128,-1,26
 207 912 207 912 213 924 c 0,27,28
 225 950 225 950 270 950 c 0,29,30
 317 950 317 950 329 924 c 0,31,32
 339 904 339 904 339 881 c 128,-1,33
 339 858 339 858 337 847.5 c 128,-1,34
 335 837 335 837 329 825 c 128,-1,35
 323 813 323 813 308 807 c 128,-1,20
 293 801 293 801 270 801 c 128,-1,21
EndSplineSet
EndChar

StartChar: Eth
Encoding: 208 208 145
Width: 698
GlyphClass: 2
Flags: W
LayerCount: 2
Fore
SplineSet
52 316 m 1,0,-1
 52 408 l 1,1,-1
 94 408 l 1,2,-1
 94 730 l 1,3,-1
 337 730 l 2,4,5
 514 730 514 730 577 622 c 0,6,7
 608 570 608 570 620 509 c 128,-1,8
 632 448 632 448 632 373.5 c 128,-1,9
 632 299 632 299 625 248 c 128,-1,10
 618 197 618 197 598.5 148.5 c 128,-1,11
 579 100 579 100 547 69 c 0,12,13
 476 0 476 0 337 0 c 2,14,-1
 94 0 l 1,15,-1
 94 316 l 1,16,-1
 52 316 l 1,0,-1
319 625 m 2,17,-1
 230 625 l 1,18,-1
 230 408 l 1,19,-1
 404 408 l 1,20,-1
 404 316 l 1,21,-1
 230 316 l 1,22,-1
 230 105 l 1,23,-1
 319 105 l 2,24,25
 426 105 426 105 464 182 c 0,26,27
 496 249 496 249 496 365 c 128,-1,28
 496 481 496 481 464 548 c 0,29,30
 426 625 426 625 319 625 c 2,17,-1
EndSplineSet
EndChar

StartChar: Ntilde
Encoding: 209 209 146
Width: 757
GlyphClass: 2
Flags: W
LayerCount: 2
Fore
SplineSet
527 730 m 1,0,-1
 663 730 l 1,1,-1
 663 0 l 1,2,-1
 519 0 l 1,3,-1
 230 496 l 1,4,-1
 230 0 l 1,5,-1
 94 0 l 1,6,-1
 94 730 l 1,7,-1
 238 730 l 1,8,-1
 527 233 l 1,9,-1
 527 730 l 1,0,-1
521.5 846 m 128,-1,11
 496 819 496 819 466 819 c 128,-1,12
 436 819 436 819 389 837 c 128,-1,13
 342 855 342 855 327 855 c 0,14,15
 298 855 298 855 285 811 c 1,16,-1
 210 835 l 1,17,18
 227 898 227 898 252.5 925 c 128,-1,19
 278 952 278 952 308 952 c 128,-1,20
 338 952 338 952 385.5 934 c 128,-1,21
 433 916 433 916 448 916 c 0,22,23
 477 916 477 916 490 960 c 1,24,-1
 564 936 l 1,25,10
 547 873 547 873 521.5 846 c 128,-1,11
EndSplineSet
EndChar

StartChar: Ograve
Encoding: 210 210 147
Width: 709
GlyphClass: 2
Flags: W
LayerCount: 2
Fore
SplineSet
502.5 14.5 m 128,-1,1
 442 -14 442 -14 362.5 -14 c 128,-1,2
 283 -14 283 -14 230 5.5 c 128,-1,3
 177 25 177 25 144 57.5 c 128,-1,4
 111 90 111 90 91 140 c 0,5,6
 56 228 56 228 56 365 c 0,7,8
 56 450 56 450 69 514 c 128,-1,9
 82 578 82 578 114 632 c 0,10,11
 178 744 178 744 354 744 c 0,12,13
 554 744 554 744 618 589 c 0,14,15
 653 502 653 502 653 365 c 0,16,17
 653 279 653 279 640 215 c 128,-1,18
 627 151 627 151 595 97 c 128,-1,0
 563 43 563 43 502.5 14.5 c 128,-1,1
354 96 m 0,19,20
 445 96 445 96 481 167 c 128,-1,21
 517 238 517 238 517 365 c 128,-1,22
 517 492 517 492 481 563 c 128,-1,23
 445 634 445 634 354 634 c 0,24,25
 258 634 258 634 223 556 c 0,26,27
 192 485 192 485 192 365 c 0,28,29
 192 165 192 165 273 116 c 0,30,31
 306 96 306 96 354 96 c 0,19,20
477 850 m 1,32,-1
 432 778 l 1,33,-1
 222 887 l 1,34,-1
 282 983 l 1,35,-1
 477 850 l 1,32,-1
EndSplineSet
EndChar

StartChar: Oacute
Encoding: 211 211 148
Width: 709
GlyphClass: 2
Flags: W
LayerCount: 2
Fore
SplineSet
502.5 14.5 m 128,-1,1
 442 -14 442 -14 362.5 -14 c 128,-1,2
 283 -14 283 -14 230 5.5 c 128,-1,3
 177 25 177 25 144 57.5 c 128,-1,4
 111 90 111 90 91 140 c 0,5,6
 56 228 56 228 56 365 c 0,7,8
 56 450 56 450 69 514 c 128,-1,9
 82 578 82 578 114 632 c 0,10,11
 178 744 178 744 354 744 c 0,12,13
 554 744 554 744 618 589 c 0,14,15
 653 502 653 502 653 365 c 0,16,17
 653 279 653 279 640 215 c 128,-1,18
 627 151 627 151 595 97 c 128,-1,0
 563 43 563 43 502.5 14.5 c 128,-1,1
354 96 m 0,19,20
 445 96 445 96 481 167 c 128,-1,21
 517 238 517 238 517 365 c 128,-1,22
 517 492 517 492 481 563 c 128,-1,23
 445 634 445 634 354 634 c 0,24,25
 258 634 258 634 223 556 c 0,26,27
 192 485 192 485 192 365 c 0,28,29
 192 165 192 165 273 116 c 0,30,31
 306 96 306 96 354 96 c 0,19,20
277 778 m 1,32,-1
 232 850 l 1,33,-1
 427 983 l 1,34,-1
 487 887 l 1,35,-1
 277 778 l 1,32,-1
EndSplineSet
EndChar

StartChar: Ocircumflex
Encoding: 212 212 149
Width: 709
GlyphClass: 2
Flags: W
LayerCount: 2
Fore
SplineSet
502.5 14.5 m 128,-1,1
 442 -14 442 -14 362.5 -14 c 128,-1,2
 283 -14 283 -14 230 5.5 c 128,-1,3
 177 25 177 25 144 57.5 c 128,-1,4
 111 90 111 90 91 140 c 0,5,6
 56 228 56 228 56 365 c 0,7,8
 56 450 56 450 69 514 c 128,-1,9
 82 578 82 578 114 632 c 0,10,11
 178 744 178 744 354 744 c 0,12,13
 554 744 554 744 618 589 c 0,14,15
 653 502 653 502 653 365 c 0,16,17
 653 279 653 279 640 215 c 128,-1,18
 627 151 627 151 595 97 c 128,-1,0
 563 43 563 43 502.5 14.5 c 128,-1,1
354 96 m 0,19,20
 445 96 445 96 481 167 c 128,-1,21
 517 238 517 238 517 365 c 128,-1,22
 517 492 517 492 481 563 c 128,-1,23
 445 634 445 634 354 634 c 0,24,25
 258 634 258 634 223 556 c 0,26,27
 192 485 192 485 192 365 c 0,28,29
 192 165 192 165 273 116 c 0,30,31
 306 96 306 96 354 96 c 0,19,20
244 784 m 1,32,-1
 196 832 l 1,33,-1
 324 979 l 1,34,-1
 385 979 l 1,35,-1
 513 832 l 1,36,-1
 465 784 l 1,37,-1
 354 868 l 1,38,-1
 244 784 l 1,32,-1
EndSplineSet
EndChar

StartChar: Otilde
Encoding: 213 213 150
Width: 709
GlyphClass: 2
Flags: W
LayerCount: 2
Fore
SplineSet
502.5 14.5 m 128,-1,1
 442 -14 442 -14 362.5 -14 c 128,-1,2
 283 -14 283 -14 230 5.5 c 128,-1,3
 177 25 177 25 144 57.5 c 128,-1,4
 111 90 111 90 91 140 c 0,5,6
 56 228 56 228 56 365 c 0,7,8
 56 450 56 450 69 514 c 128,-1,9
 82 578 82 578 114 632 c 0,10,11
 178 744 178 744 354 744 c 0,12,13
 554 744 554 744 618 589 c 0,14,15
 653 502 653 502 653 365 c 0,16,17
 653 279 653 279 640 215 c 128,-1,18
 627 151 627 151 595 97 c 128,-1,0
 563 43 563 43 502.5 14.5 c 128,-1,1
354 96 m 0,19,20
 445 96 445 96 481 167 c 128,-1,21
 517 238 517 238 517 365 c 128,-1,22
 517 492 517 492 481 563 c 128,-1,23
 445 634 445 634 354 634 c 0,24,25
 258 634 258 634 223 556 c 0,26,27
 192 485 192 485 192 365 c 0,28,29
 192 165 192 165 273 116 c 0,30,31
 306 96 306 96 354 96 c 0,19,20
488.5 846 m 128,-1,33
 463 819 463 819 433 819 c 128,-1,34
 403 819 403 819 356 837 c 128,-1,35
 309 855 309 855 294 855 c 0,36,37
 265 855 265 855 252 811 c 1,38,-1
 177 835 l 1,39,40
 194 898 194 898 219.5 925 c 128,-1,41
 245 952 245 952 275 952 c 128,-1,42
 305 952 305 952 352.5 934 c 128,-1,43
 400 916 400 916 415 916 c 0,44,45
 444 916 444 916 457 960 c 1,46,-1
 531 936 l 1,47,32
 514 873 514 873 488.5 846 c 128,-1,33
EndSplineSet
EndChar

StartChar: Odieresis
Encoding: 214 214 151
Width: 709
GlyphClass: 2
Flags: W
LayerCount: 2
Fore
SplineSet
502.5 14.5 m 128,-1,1
 442 -14 442 -14 362.5 -14 c 128,-1,2
 283 -14 283 -14 230 5.5 c 128,-1,3
 177 25 177 25 144 57.5 c 128,-1,4
 111 90 111 90 91 140 c 0,5,6
 56 228 56 228 56 365 c 0,7,8
 56 450 56 450 69 514 c 128,-1,9
 82 578 82 578 114 632 c 0,10,11
 178 744 178 744 354 744 c 0,12,13
 554 744 554 744 618 589 c 0,14,15
 653 502 653 502 653 365 c 0,16,17
 653 279 653 279 640 215 c 128,-1,18
 627 151 627 151 595 97 c 128,-1,0
 563 43 563 43 502.5 14.5 c 128,-1,1
354 96 m 0,19,20
 445 96 445 96 481 167 c 128,-1,21
 517 238 517 238 517 365 c 128,-1,22
 517 492 517 492 481 563 c 128,-1,23
 445 634 445 634 354 634 c 0,24,25
 258 634 258 634 223 556 c 0,26,27
 192 485 192 485 192 365 c 0,28,29
 192 165 192 165 273 116 c 0,30,31
 306 96 306 96 354 96 c 0,19,20
244 801 m 128,-1,33
 221 801 221 801 207 807 c 128,-1,34
 193 813 193 813 187 825 c 0,35,36
 177 845 177 845 177 868 c 128,-1,37
 177 891 177 891 179 901.5 c 128,-1,38
 181 912 181 912 187 924 c 0,39,40
 199 950 199 950 244 950 c 0,41,42
 291 950 291 950 303 924 c 0,43,44
 313 904 313 904 313 881 c 128,-1,45
 313 858 313 858 311 847.5 c 128,-1,46
 309 837 309 837 303 825 c 128,-1,47
 297 813 297 813 282 807 c 128,-1,32
 267 801 267 801 244 801 c 128,-1,33
462 801 m 128,-1,49
 439 801 439 801 425 807 c 128,-1,50
 411 813 411 813 405 825 c 0,51,52
 395 845 395 845 395 868 c 128,-1,53
 395 891 395 891 397 901.5 c 128,-1,54
 399 912 399 912 405 924 c 0,55,56
 417 950 417 950 462 950 c 0,57,58
 509 950 509 950 521 924 c 0,59,60
 531 904 531 904 531 881 c 128,-1,61
 531 858 531 858 529 847.5 c 128,-1,62
 527 837 527 837 521 825 c 128,-1,63
 515 813 515 813 500 807 c 128,-1,48
 485 801 485 801 462 801 c 128,-1,49
EndSplineSet
EndChar

StartChar: multiply
Encoding: 215 215 152
Width: 580
GlyphClass: 2
Flags: W
LayerCount: 2
Fore
SplineSet
161 123 m 1,0,-1
 95 189 l 1,1,-1
 225 318 l 1,2,-1
 95 447 l 1,3,-1
 161 513 l 1,4,-1
 290 383 l 1,5,-1
 419 513 l 1,6,-1
 485 447 l 1,7,-1
 355 318 l 1,8,-1
 485 189 l 1,9,-1
 419 123 l 1,10,-1
 290 253 l 1,11,-1
 161 123 l 1,0,-1
EndSplineSet
EndChar

StartChar: Oslash
Encoding: 216 216 153
Width: 709
GlyphClass: 2
Flags: W
LayerCount: 2
Fore
SplineSet
56 374 m 0,0,1
 56 450 56 450 69 514 c 128,-1,2
 82 578 82 578 114 632 c 0,3,4
 178 744 178 744 354 744 c 0,5,6
 371 744 371 744 399 742 c 1,7,-1
 419 827 l 1,8,-1
 504 827 l 1,9,-1
 480 724 l 1,10,11
 575 688 575 688 614 596 c 128,-1,12
 653 504 653 504 653 365 c 0,13,14
 653 279 653 279 640 215 c 128,-1,15
 627 151 627 151 595 97 c 0,16,17
 529 -14 529 -14 354 -14 c 0,18,19
 329 -14 329 -14 308 -11 c 1,20,-1
 289 -94 l 1,21,-1
 205 -94 l 1,22,-1
 228 5 l 1,23,24
 129 41 129 41 90 140 c 1,25,26
 56 231 56 231 56 374 c 0,0,1
354 96 m 0,27,28
 445 96 445 96 481 167 c 128,-1,29
 517 238 517 238 517 365 c 0,30,31
 517 542 517 542 451 600 c 1,32,-1
 333 97 l 1,33,34
 340 96 340 96 354 96 c 0,27,28
374 633 m 1,35,-1
 354 634 l 1,36,37
 258 634 258 634 223 556 c 0,38,39
 192 485 192 485 192 365 c 0,40,41
 192 187 192 187 256 129 c 1,42,-1
 374 633 l 1,35,-1
EndSplineSet
EndChar

StartChar: Ugrave
Encoding: 217 217 154
Width: 703
GlyphClass: 2
Flags: W
LayerCount: 2
Fore
SplineSet
488 730 m 1,0,-1
 624 730 l 1,1,-1
 624 241 l 2,2,3
 624 174 624 174 607 126 c 128,-1,4
 590 78 590 78 565 51.5 c 128,-1,5
 540 25 540 25 501 9.5 c 128,-1,6
 462 -6 462 -6 428.5 -10 c 128,-1,7
 395 -14 395 -14 351 -14 c 128,-1,8
 307 -14 307 -14 273.5 -10 c 128,-1,9
 240 -6 240 -6 201 9.5 c 128,-1,10
 162 25 162 25 137.5 51.5 c 128,-1,11
 113 78 113 78 96 126 c 128,-1,12
 79 174 79 174 79 241 c 2,13,-1
 79 730 l 1,14,-1
 215 730 l 1,15,-1
 215 251 l 2,16,17
 215 158 215 158 251 127.5 c 128,-1,18
 287 97 287 97 351 97 c 0,19,20
 382 97 382 97 403 102 c 128,-1,21
 424 107 424 107 445 122 c 0,22,23
 488 153 488 153 488 251 c 2,24,-1
 488 730 l 1,0,-1
448 850 m 1,25,-1
 403 778 l 1,26,-1
 193 887 l 1,27,-1
 253 983 l 1,28,-1
 448 850 l 1,25,-1
EndSplineSet
EndChar

StartChar: Uacute
Encoding: 218 218 155
Width: 703
GlyphClass: 2
Flags: W
LayerCount: 2
Fore
SplineSet
488 730 m 1,0,-1
 624 730 l 1,1,-1
 624 241 l 2,2,3
 624 174 624 174 607 126 c 128,-1,4
 590 78 590 78 565 51.5 c 128,-1,5
 540 25 540 25 501 9.5 c 128,-1,6
 462 -6 462 -6 428.5 -10 c 128,-1,7
 395 -14 395 -14 351 -14 c 128,-1,8
 307 -14 307 -14 273.5 -10 c 128,-1,9
 240 -6 240 -6 201 9.5 c 128,-1,10
 162 25 162 25 137.5 51.5 c 128,-1,11
 113 78 113 78 96 126 c 128,-1,12
 79 174 79 174 79 241 c 2,13,-1
 79 730 l 1,14,-1
 215 730 l 1,15,-1
 215 251 l 2,16,17
 215 158 215 158 251 127.5 c 128,-1,18
 287 97 287 97 351 97 c 0,19,20
 382 97 382 97 403 102 c 128,-1,21
 424 107 424 107 445 122 c 0,22,23
 488 153 488 153 488 251 c 2,24,-1
 488 730 l 1,0,-1
328 778 m 1,25,-1
 283 850 l 1,26,-1
 478 983 l 1,27,-1
 538 887 l 1,28,-1
 328 778 l 1,25,-1
EndSplineSet
EndChar

StartChar: Ucircumflex
Encoding: 219 219 156
Width: 703
GlyphClass: 2
Flags: W
LayerCount: 2
Fore
SplineSet
488 730 m 1,0,-1
 624 730 l 1,1,-1
 624 241 l 2,2,3
 624 174 624 174 607 126 c 128,-1,4
 590 78 590 78 565 51.5 c 128,-1,5
 540 25 540 25 501 9.5 c 128,-1,6
 462 -6 462 -6 428.5 -10 c 128,-1,7
 395 -14 395 -14 351 -14 c 128,-1,8
 307 -14 307 -14 273.5 -10 c 128,-1,9
 240 -6 240 -6 201 9.5 c 128,-1,10
 162 25 162 25 137.5 51.5 c 128,-1,11
 113 78 113 78 96 126 c 128,-1,12
 79 174 79 174 79 241 c 2,13,-1
 79 730 l 1,14,-1
 215 730 l 1,15,-1
 215 251 l 2,16,17
 215 158 215 158 251 127.5 c 128,-1,18
 287 97 287 97 351 97 c 0,19,20
 382 97 382 97 403 102 c 128,-1,21
 424 107 424 107 445 122 c 0,22,23
 488 153 488 153 488 251 c 2,24,-1
 488 730 l 1,0,-1
244 784 m 1,25,-1
 196 832 l 1,26,-1
 324 979 l 1,27,-1
 385 979 l 1,28,-1
 513 832 l 1,29,-1
 465 784 l 1,30,-1
 354 868 l 1,31,-1
 244 784 l 1,25,-1
EndSplineSet
EndChar

StartChar: Udieresis
Encoding: 220 220 157
Width: 703
GlyphClass: 2
Flags: W
LayerCount: 2
Fore
SplineSet
488 730 m 1,0,-1
 624 730 l 1,1,-1
 624 241 l 2,2,3
 624 174 624 174 607 126 c 128,-1,4
 590 78 590 78 565 51.5 c 128,-1,5
 540 25 540 25 501 9.5 c 128,-1,6
 462 -6 462 -6 428.5 -10 c 128,-1,7
 395 -14 395 -14 351 -14 c 128,-1,8
 307 -14 307 -14 273.5 -10 c 128,-1,9
 240 -6 240 -6 201 9.5 c 128,-1,10
 162 25 162 25 137.5 51.5 c 128,-1,11
 113 78 113 78 96 126 c 128,-1,12
 79 174 79 174 79 241 c 2,13,-1
 79 730 l 1,14,-1
 215 730 l 1,15,-1
 215 251 l 2,16,17
 215 158 215 158 251 127.5 c 128,-1,18
 287 97 287 97 351 97 c 0,19,20
 382 97 382 97 403 102 c 128,-1,21
 424 107 424 107 445 122 c 0,22,23
 488 153 488 153 488 251 c 2,24,-1
 488 730 l 1,0,-1
245 801 m 128,-1,26
 222 801 222 801 208 807 c 128,-1,27
 194 813 194 813 188 825 c 0,28,29
 178 845 178 845 178 868 c 128,-1,30
 178 891 178 891 180 901.5 c 128,-1,31
 182 912 182 912 188 924 c 0,32,33
 200 950 200 950 245 950 c 0,34,35
 292 950 292 950 304 924 c 0,36,37
 314 904 314 904 314 881 c 128,-1,38
 314 858 314 858 312 847.5 c 128,-1,39
 310 837 310 837 304 825 c 128,-1,40
 298 813 298 813 283 807 c 128,-1,25
 268 801 268 801 245 801 c 128,-1,26
463 801 m 128,-1,42
 440 801 440 801 426 807 c 128,-1,43
 412 813 412 813 406 825 c 0,44,45
 396 845 396 845 396 868 c 128,-1,46
 396 891 396 891 398 901.5 c 128,-1,47
 400 912 400 912 406 924 c 0,48,49
 418 950 418 950 463 950 c 0,50,51
 510 950 510 950 522 924 c 0,52,53
 532 904 532 904 532 881 c 128,-1,54
 532 858 532 858 530 847.5 c 128,-1,55
 528 837 528 837 522 825 c 128,-1,56
 516 813 516 813 501 807 c 128,-1,41
 486 801 486 801 463 801 c 128,-1,42
EndSplineSet
EndChar

StartChar: Yacute
Encoding: 221 221 158
Width: 574
GlyphClass: 2
Flags: W
LayerCount: 2
Fore
SplineSet
355 0 m 1,0,-1
 219 0 l 1,1,-1
 219 254 l 1,2,-1
 -6 730 l 1,3,-1
 130 730 l 1,4,-1
 287 381 l 1,5,-1
 444 730 l 1,6,-1
 580 730 l 1,7,-1
 355 254 l 1,8,-1
 355 0 l 1,0,-1
225 778 m 1,9,-1
 180 850 l 1,10,-1
 375 983 l 1,11,-1
 435 887 l 1,12,-1
 225 778 l 1,9,-1
EndSplineSet
EndChar

StartChar: Thorn
Encoding: 222 222 159
Width: 587
GlyphClass: 2
Flags: W
LayerCount: 2
Fore
SplineSet
342 137 m 2,0,-1
 230 137 l 1,1,-1
 230 0 l 1,2,-1
 94 0 l 1,3,-1
 94 730 l 1,4,-1
 230 730 l 1,5,-1
 230 592 l 1,6,-1
 342 592 l 2,7,8
 465 592 465 592 517 528.5 c 128,-1,9
 569 465 569 465 569 364.5 c 128,-1,10
 569 264 569 264 517 200.5 c 128,-1,11
 465 137 465 137 342 137 c 2,0,-1
230 247 m 1,12,-1
 320 247 l 2,13,14
 383 247 383 247 408 278 c 128,-1,15
 433 309 433 309 433 364.5 c 128,-1,16
 433 420 433 420 408 451 c 128,-1,17
 383 482 383 482 320 482 c 2,18,-1
 230 482 l 1,19,-1
 230 247 l 1,12,-1
EndSplineSet
EndChar

StartChar: germandbls
Encoding: 223 223 160
Width: 660
GlyphClass: 2
Flags: W
LayerCount: 2
Fore
SplineSet
607 320 m 128,-1,1
 646 270 646 270 646 185 c 128,-1,2
 646 100 646 100 597.5 43 c 128,-1,3
 549 -14 549 -14 453.5 -14 c 128,-1,4
 358 -14 358 -14 316 35 c 128,-1,5
 274 84 274 84 274 195 c 1,6,-1
 383 195 l 1,7,8
 383 138 383 138 396.5 115 c 128,-1,9
 410 92 410 92 446 92 c 0,10,11
 512 92 512 92 512 207 c 0,12,13
 512 266 512 266 488 291.5 c 128,-1,14
 464 317 464 317 409 317 c 2,15,-1
 308 317 l 1,16,-1
 308 416 l 1,17,-1
 360 416 l 2,18,19
 403 416 403 416 424 447 c 128,-1,20
 445 478 445 478 445 528 c 0,21,22
 445 640 445 640 339 640 c 0,23,24
 238 640 238 640 238 528 c 2,25,-1
 238 0 l 1,26,-1
 104 0 l 1,27,-1
 104 528 l 2,28,29
 104 746 104 746 350 746 c 0,30,31
 461 746 461 746 520 691 c 128,-1,32
 579 636 579 636 579 542.5 c 128,-1,33
 579 449 579 449 496 385 c 1,34,0
 568 370 568 370 607 320 c 128,-1,1
EndSplineSet
EndChar

StartChar: agrave
Encoding: 224 224 161
Width: 597
GlyphClass: 2
Flags: W
LayerCount: 2
Fore
SplineSet
295 586 m 0,0,1
 513 586 513 586 513 387 c 2,2,-1
 513 0 l 1,3,-1
 426 0 l 1,4,-1
 388 70 l 1,5,6
 308 -14 308 -14 201 -14 c 0,7,8
 125 -14 125 -14 85.5 28.5 c 128,-1,9
 46 71 46 71 46 142.5 c 128,-1,10
 46 214 46 214 91 258 c 128,-1,11
 136 302 136 302 259 320 c 2,12,-1
 379 338 l 1,13,-1
 379 386 l 2,14,15
 379 483 379 483 287 483 c 0,16,17
 200 483 200 483 184 395 c 1,18,-1
 80 426 l 1,19,20
 118 586 118 586 295 586 c 0,0,1
244 84 m 0,21,22
 312 84 312 84 379 151 c 1,23,-1
 379 254 l 1,24,-1
 283 237 l 2,25,26
 218 226 218 226 197 202 c 128,-1,27
 176 178 176 178 176 148 c 128,-1,28
 176 118 176 118 194 101 c 128,-1,29
 212 84 212 84 244 84 c 0,21,22
412 692 m 1,30,-1
 367 620 l 1,31,-1
 157 729 l 1,32,-1
 217 825 l 1,33,-1
 412 692 l 1,30,-1
EndSplineSet
EndChar

StartChar: aacute
Encoding: 225 225 162
Width: 597
GlyphClass: 2
Flags: W
LayerCount: 2
Fore
SplineSet
295 586 m 0,0,1
 513 586 513 586 513 387 c 2,2,-1
 513 0 l 1,3,-1
 426 0 l 1,4,-1
 388 70 l 1,5,6
 308 -14 308 -14 201 -14 c 0,7,8
 125 -14 125 -14 85.5 28.5 c 128,-1,9
 46 71 46 71 46 142.5 c 128,-1,10
 46 214 46 214 91 258 c 128,-1,11
 136 302 136 302 259 320 c 2,12,-1
 379 338 l 1,13,-1
 379 386 l 2,14,15
 379 483 379 483 287 483 c 0,16,17
 200 483 200 483 184 395 c 1,18,-1
 80 426 l 1,19,20
 118 586 118 586 295 586 c 0,0,1
244 84 m 0,21,22
 312 84 312 84 379 151 c 1,23,-1
 379 254 l 1,24,-1
 283 237 l 2,25,26
 218 226 218 226 197 202 c 128,-1,27
 176 178 176 178 176 148 c 128,-1,28
 176 118 176 118 194 101 c 128,-1,29
 212 84 212 84 244 84 c 0,21,22
258 620 m 1,30,-1
 213 692 l 1,31,-1
 408 825 l 1,32,-1
 468 729 l 1,33,-1
 258 620 l 1,30,-1
EndSplineSet
EndChar

StartChar: acircumflex
Encoding: 226 226 163
Width: 597
GlyphClass: 2
Flags: W
LayerCount: 2
Fore
SplineSet
295 586 m 0,0,1
 513 586 513 586 513 387 c 2,2,-1
 513 0 l 1,3,-1
 426 0 l 1,4,-1
 388 70 l 1,5,6
 308 -14 308 -14 201 -14 c 0,7,8
 125 -14 125 -14 85.5 28.5 c 128,-1,9
 46 71 46 71 46 142.5 c 128,-1,10
 46 214 46 214 91 258 c 128,-1,11
 136 302 136 302 259 320 c 2,12,-1
 379 338 l 1,13,-1
 379 386 l 2,14,15
 379 483 379 483 287 483 c 0,16,17
 200 483 200 483 184 395 c 1,18,-1
 80 426 l 1,19,20
 118 586 118 586 295 586 c 0,0,1
244 84 m 0,21,22
 312 84 312 84 379 151 c 1,23,-1
 379 254 l 1,24,-1
 283 237 l 2,25,26
 218 226 218 226 197 202 c 128,-1,27
 176 178 176 178 176 148 c 128,-1,28
 176 118 176 118 194 101 c 128,-1,29
 212 84 212 84 244 84 c 0,21,22
179 626 m 1,30,-1
 131 674 l 1,31,-1
 259 821 l 1,32,-1
 320 821 l 1,33,-1
 448 674 l 1,34,-1
 400 626 l 1,35,-1
 289 710 l 1,36,-1
 179 626 l 1,30,-1
EndSplineSet
EndChar

StartChar: atilde
Encoding: 227 227 164
Width: 597
GlyphClass: 2
Flags: W
LayerCount: 2
Fore
SplineSet
295 586 m 0,0,1
 513 586 513 586 513 387 c 2,2,-1
 513 0 l 1,3,-1
 426 0 l 1,4,-1
 388 70 l 1,5,6
 308 -14 308 -14 201 -14 c 0,7,8
 125 -14 125 -14 85.5 28.5 c 128,-1,9
 46 71 46 71 46 142.5 c 128,-1,10
 46 214 46 214 91 258 c 128,-1,11
 136 302 136 302 259 320 c 2,12,-1
 379 338 l 1,13,-1
 379 386 l 2,14,15
 379 483 379 483 287 483 c 0,16,17
 200 483 200 483 184 395 c 1,18,-1
 80 426 l 1,19,20
 118 586 118 586 295 586 c 0,0,1
244 84 m 0,21,22
 312 84 312 84 379 151 c 1,23,-1
 379 254 l 1,24,-1
 283 237 l 2,25,26
 218 226 218 226 197 202 c 128,-1,27
 176 178 176 178 176 148 c 128,-1,28
 176 118 176 118 194 101 c 128,-1,29
 212 84 212 84 244 84 c 0,21,22
423.5 688 m 128,-1,31
 398 661 398 661 368 661 c 128,-1,32
 338 661 338 661 291 679 c 128,-1,33
 244 697 244 697 229 697 c 0,34,35
 200 697 200 697 187 653 c 1,36,-1
 112 677 l 1,37,38
 129 740 129 740 154.5 767 c 128,-1,39
 180 794 180 794 210 794 c 128,-1,40
 240 794 240 794 287.5 776 c 128,-1,41
 335 758 335 758 350 758 c 0,42,43
 379 758 379 758 392 802 c 1,44,-1
 466 778 l 1,45,30
 449 715 449 715 423.5 688 c 128,-1,31
EndSplineSet
EndChar

StartChar: adieresis
Encoding: 228 228 165
Width: 597
GlyphClass: 2
Flags: W
LayerCount: 2
Fore
SplineSet
295 586 m 0,0,1
 513 586 513 586 513 387 c 2,2,-1
 513 0 l 1,3,-1
 426 0 l 1,4,-1
 388 70 l 1,5,6
 308 -14 308 -14 201 -14 c 0,7,8
 125 -14 125 -14 85.5 28.5 c 128,-1,9
 46 71 46 71 46 142.5 c 128,-1,10
 46 214 46 214 91 258 c 128,-1,11
 136 302 136 302 259 320 c 2,12,-1
 379 338 l 1,13,-1
 379 386 l 2,14,15
 379 483 379 483 287 483 c 0,16,17
 200 483 200 483 184 395 c 1,18,-1
 80 426 l 1,19,20
 118 586 118 586 295 586 c 0,0,1
244 84 m 0,21,22
 312 84 312 84 379 151 c 1,23,-1
 379 254 l 1,24,-1
 283 237 l 2,25,26
 218 226 218 226 197 202 c 128,-1,27
 176 178 176 178 176 148 c 128,-1,28
 176 118 176 118 194 101 c 128,-1,29
 212 84 212 84 244 84 c 0,21,22
196 643 m 128,-1,31
 173 643 173 643 159 649 c 128,-1,32
 145 655 145 655 139 667 c 0,33,34
 129 687 129 687 129 710 c 128,-1,35
 129 733 129 733 131 743.5 c 128,-1,36
 133 754 133 754 139 766 c 0,37,38
 151 792 151 792 196 792 c 0,39,40
 243 792 243 792 255 766 c 0,41,42
 265 746 265 746 265 723 c 128,-1,43
 265 700 265 700 263 689.5 c 128,-1,44
 261 679 261 679 255 667 c 128,-1,45
 249 655 249 655 234 649 c 128,-1,30
 219 643 219 643 196 643 c 128,-1,31
414 643 m 128,-1,47
 391 643 391 643 377 649 c 128,-1,48
 363 655 363 655 357 667 c 0,49,50
 347 687 347 687 347 710 c 128,-1,51
 347 733 347 733 349 743.5 c 128,-1,52
 351 754 351 754 357 766 c 0,53,54
 369 792 369 792 414 792 c 0,55,56
 461 792 461 792 473 766 c 0,57,58
 483 746 483 746 483 723 c 128,-1,59
 483 700 483 700 481 689.5 c 128,-1,60
 479 679 479 679 473 667 c 128,-1,61
 467 655 467 655 452 649 c 128,-1,46
 437 643 437 643 414 643 c 128,-1,47
EndSplineSet
EndChar

StartChar: aring
Encoding: 229 229 166
Width: 597
GlyphClass: 2
Flags: W
LayerCount: 2
Fore
SplineSet
295 586 m 0,0,1
 513 586 513 586 513 387 c 2,2,-1
 513 0 l 1,3,-1
 426 0 l 1,4,-1
 388 70 l 1,5,6
 308 -14 308 -14 201 -14 c 0,7,8
 125 -14 125 -14 85.5 28.5 c 128,-1,9
 46 71 46 71 46 142.5 c 128,-1,10
 46 214 46 214 91 258 c 128,-1,11
 136 302 136 302 259 320 c 2,12,-1
 379 338 l 1,13,-1
 379 386 l 2,14,15
 379 483 379 483 287 483 c 0,16,17
 200 483 200 483 184 395 c 1,18,-1
 80 426 l 1,19,20
 118 586 118 586 295 586 c 0,0,1
244 84 m 0,21,22
 312 84 312 84 379 151 c 1,23,-1
 379 254 l 1,24,-1
 283 237 l 2,25,26
 218 226 218 226 197 202 c 128,-1,27
 176 178 176 178 176 148 c 128,-1,28
 176 118 176 118 194 101 c 128,-1,29
 212 84 212 84 244 84 c 0,21,22
308 676 m 0,30,31
 349 676 349 676 349 725 c 128,-1,32
 349 774 349 774 308 774 c 0,33,34
 271 774 271 774 271 725 c 128,-1,35
 271 676 271 676 308 676 c 0,30,31
308 612 m 0,36,37
 197 612 197 612 197 724.5 c 128,-1,38
 197 837 197 837 308 837 c 0,39,40
 373 837 373 837 398 803.5 c 128,-1,41
 423 770 423 770 423 724 c 128,-1,42
 423 678 423 678 398 645 c 128,-1,43
 373 612 373 612 308 612 c 0,36,37
EndSplineSet
EndChar

StartChar: ae
Encoding: 230 230 167
Width: 902
GlyphClass: 2
Flags: W
LayerCount: 2
Fore
SplineSet
631 -14 m 0,0,1
 474 -14 474 -14 417 84 c 1,2,3
 319 -14 319 -14 197 -14 c 0,4,5
 123 -14 123 -14 84 28.5 c 128,-1,6
 45 71 45 71 45 142 c 128,-1,7
 45 213 45 213 89 257.5 c 128,-1,8
 133 302 133 302 255 322 c 2,9,-1
 371 341 l 1,10,-1
 371 386 l 2,11,12
 371 483 371 483 284 483 c 128,-1,13
 197 483 197 483 181 395 c 1,14,-1
 76 423 l 1,15,16
 114 586 114 586 291 586 c 0,17,18
 403 586 403 586 457 531 c 1,19,20
 518 586 518 586 627 586 c 0,21,22
 772 586 772 586 826 496 c 1,23,24
 871 419 871 419 871 296 c 2,25,-1
 871 260 l 1,26,-1
 505 260 l 1,27,28
 506 166 506 166 536 127.5 c 128,-1,29
 566 89 566 89 635 89 c 0,30,31
 746 89 746 89 753 169 c 1,32,-1
 863 165 l 1,33,34
 847 -14 847 -14 631 -14 c 0,0,1
240 81 m 0,35,36
 323 81 323 81 389 149 c 1,37,38
 376 208 376 208 375 250 c 1,39,-1
 279 232 l 2,40,41
 215 220 215 220 194.5 197 c 128,-1,42
 174 174 174 174 174 144.5 c 128,-1,43
 174 115 174 115 191.5 98 c 128,-1,44
 209 81 209 81 240 81 c 0,35,36
626 483 m 128,-1,46
 569 483 569 483 542.5 451.5 c 128,-1,47
 516 420 516 420 508 351 c 1,48,-1
 739 351 l 1,49,50
 733 418 733 418 708 450.5 c 128,-1,45
 683 483 683 483 626 483 c 128,-1,46
EndSplineSet
EndChar

StartChar: ccedilla
Encoding: 231 231 168
Width: 536
GlyphClass: 2
Flags: W
LayerCount: 2
Fore
SplineSet
170 286 m 128,-1,1
 170 185 170 185 195.5 137 c 128,-1,2
 221 89 221 89 284.5 89 c 128,-1,3
 348 89 348 89 375.5 115 c 128,-1,4
 403 141 403 141 405 197 c 1,5,-1
 510 192 l 1,6,7
 504 90 504 90 450.5 38 c 128,-1,8
 397 -14 397 -14 275 -14 c 0,9,10
 132 -14 132 -14 80 79 c 0,11,12
 55 124 55 124 45.5 173 c 128,-1,13
 36 222 36 222 36 286.5 c 128,-1,14
 36 351 36 351 45.5 400.5 c 128,-1,15
 55 450 55 450 80 494 c 0,16,17
 131 586 131 586 275 586 c 0,18,19
 396 586 396 586 449 536.5 c 128,-1,20
 502 487 502 487 509 389 c 1,21,-1
 405 375 l 1,22,23
 403 431 403 431 375.5 457 c 128,-1,24
 348 483 348 483 284.5 483 c 128,-1,25
 221 483 221 483 195.5 435 c 128,-1,0
 170 387 170 387 170 286 c 128,-1,1
149 -130 m 1,26,-1
 233 -130 l 1,27,28
 233 -167 233 -167 265 -167 c 0,29,30
 279 -167 279 -167 287 -160.5 c 128,-1,31
 295 -154 295 -154 296.5 -147 c 128,-1,32
 298 -140 298 -140 298 -129 c 0,33,34
 298 -98 298 -98 262 -92 c 2,35,-1
 209 -83 l 1,36,-1
 218 -35 l 1,37,-1
 262 -35 l 2,38,39
 319 -35 319 -35 349.5 -55.5 c 128,-1,40
 380 -76 380 -76 380 -131 c 128,-1,41
 380 -186 380 -186 354.5 -213.5 c 128,-1,42
 329 -241 329 -241 264 -241 c 0,43,44
 149 -241 149 -241 149 -130 c 1,26,-1
EndSplineSet
EndChar

StartChar: egrave
Encoding: 232 232 169
Width: 563
GlyphClass: 2
Flags: W
LayerCount: 2
Fore
SplineSet
292 -14 m 0,0,1
 154 -14 154 -14 95 60.5 c 128,-1,2
 36 135 36 135 36 286 c 0,3,4
 36 586 36 586 288 586 c 0,5,6
 433 586 433 586 486 496 c 0,7,8
 532 419 532 419 532 296 c 2,9,-1
 532 260 l 1,10,-1
 166 260 l 1,11,12
 167 166 167 166 197 127.5 c 128,-1,13
 227 89 227 89 296 89 c 0,14,15
 407 89 407 89 414 169 c 1,16,-1
 524 165 l 1,17,18
 508 -14 508 -14 292 -14 c 0,0,1
287 483 m 128,-1,20
 230 483 230 483 203.5 451.5 c 128,-1,21
 177 420 177 420 169 351 c 1,22,-1
 400 351 l 1,23,24
 394 418 394 418 369 450.5 c 128,-1,19
 344 483 344 483 287 483 c 128,-1,20
408 692 m 1,25,-1
 363 620 l 1,26,-1
 153 729 l 1,27,-1
 213 825 l 1,28,-1
 408 692 l 1,25,-1
EndSplineSet
EndChar

StartChar: eacute
Encoding: 233 233 170
Width: 563
GlyphClass: 2
Flags: W
LayerCount: 2
Fore
SplineSet
292 -14 m 0,0,1
 154 -14 154 -14 95 60.5 c 128,-1,2
 36 135 36 135 36 286 c 0,3,4
 36 586 36 586 288 586 c 0,5,6
 433 586 433 586 486 496 c 0,7,8
 532 419 532 419 532 296 c 2,9,-1
 532 260 l 1,10,-1
 166 260 l 1,11,12
 167 166 167 166 197 127.5 c 128,-1,13
 227 89 227 89 296 89 c 0,14,15
 407 89 407 89 414 169 c 1,16,-1
 524 165 l 1,17,18
 508 -14 508 -14 292 -14 c 0,0,1
287 483 m 128,-1,20
 230 483 230 483 203.5 451.5 c 128,-1,21
 177 420 177 420 169 351 c 1,22,-1
 400 351 l 1,23,24
 394 418 394 418 369 450.5 c 128,-1,19
 344 483 344 483 287 483 c 128,-1,20
246 620 m 1,25,-1
 201 692 l 1,26,-1
 396 825 l 1,27,-1
 456 729 l 1,28,-1
 246 620 l 1,25,-1
EndSplineSet
EndChar

StartChar: ecircumflex
Encoding: 234 234 171
Width: 563
GlyphClass: 2
Flags: W
LayerCount: 2
Fore
SplineSet
292 -14 m 0,0,1
 154 -14 154 -14 95 60.5 c 128,-1,2
 36 135 36 135 36 286 c 0,3,4
 36 586 36 586 288 586 c 0,5,6
 433 586 433 586 486 496 c 0,7,8
 532 419 532 419 532 296 c 2,9,-1
 532 260 l 1,10,-1
 166 260 l 1,11,12
 167 166 167 166 197 127.5 c 128,-1,13
 227 89 227 89 296 89 c 0,14,15
 407 89 407 89 414 169 c 1,16,-1
 524 165 l 1,17,18
 508 -14 508 -14 292 -14 c 0,0,1
287 483 m 128,-1,20
 230 483 230 483 203.5 451.5 c 128,-1,21
 177 420 177 420 169 351 c 1,22,-1
 400 351 l 1,23,24
 394 418 394 418 369 450.5 c 128,-1,19
 344 483 344 483 287 483 c 128,-1,20
175 626 m 1,25,-1
 127 674 l 1,26,-1
 255 821 l 1,27,-1
 316 821 l 1,28,-1
 444 674 l 1,29,-1
 396 626 l 1,30,-1
 285 710 l 1,31,-1
 175 626 l 1,25,-1
EndSplineSet
EndChar

StartChar: edieresis
Encoding: 235 235 172
Width: 561
GlyphClass: 2
Flags: W
LayerCount: 2
Fore
SplineSet
290 -14 m 0,0,1
 152 -14 152 -14 93 60.5 c 128,-1,2
 34 135 34 135 34 286 c 0,3,4
 34 586 34 586 286 586 c 0,5,6
 431 586 431 586 484 496 c 0,7,8
 530 419 530 419 530 296 c 2,9,-1
 530 260 l 1,10,-1
 164 260 l 1,11,12
 165 166 165 166 195 127.5 c 128,-1,13
 225 89 225 89 294 89 c 0,14,15
 405 89 405 89 412 169 c 1,16,-1
 522 165 l 1,17,18
 506 -14 506 -14 290 -14 c 0,0,1
285 483 m 128,-1,20
 228 483 228 483 201.5 451.5 c 128,-1,21
 175 420 175 420 167 351 c 1,22,-1
 398 351 l 1,23,24
 392 418 392 418 367 450.5 c 128,-1,19
 342 483 342 483 285 483 c 128,-1,20
173 643 m 128,-1,26
 150 643 150 643 136 649 c 128,-1,27
 122 655 122 655 116 667 c 0,28,29
 106 687 106 687 106 710 c 128,-1,30
 106 733 106 733 108 743.5 c 128,-1,31
 110 754 110 754 116 766 c 0,32,33
 128 792 128 792 173 792 c 0,34,35
 220 792 220 792 232 766 c 0,36,37
 242 746 242 746 242 723 c 128,-1,38
 242 700 242 700 240 689.5 c 128,-1,39
 238 679 238 679 232 667 c 128,-1,40
 226 655 226 655 211 649 c 128,-1,25
 196 643 196 643 173 643 c 128,-1,26
391 643 m 128,-1,42
 368 643 368 643 354 649 c 128,-1,43
 340 655 340 655 334 667 c 0,44,45
 324 687 324 687 324 710 c 128,-1,46
 324 733 324 733 326 743.5 c 128,-1,47
 328 754 328 754 334 766 c 0,48,49
 346 792 346 792 391 792 c 0,50,51
 438 792 438 792 450 766 c 0,52,53
 460 746 460 746 460 723 c 128,-1,54
 460 700 460 700 458 689.5 c 128,-1,55
 456 679 456 679 450 667 c 128,-1,56
 444 655 444 655 429 649 c 128,-1,41
 414 643 414 643 391 643 c 128,-1,42
EndSplineSet
EndChar

StartChar: igrave
Encoding: 236 236 173
Width: 322
GlyphClass: 2
Flags: W
LayerCount: 2
Fore
SplineSet
94 572 m 1,0,-1
 228 572 l 1,1,-1
 228 0 l 1,2,-1
 94 0 l 1,3,-1
 94 572 l 1,0,-1
274 692 m 1,4,-1
 229 620 l 1,5,-1
 19 729 l 1,6,-1
 79 825 l 1,7,-1
 274 692 l 1,4,-1
EndSplineSet
EndChar

StartChar: iacute
Encoding: 237 237 174
Width: 322
GlyphClass: 2
Flags: W
LayerCount: 2
Fore
SplineSet
94 572 m 1,0,-1
 228 572 l 1,1,-1
 228 0 l 1,2,-1
 94 0 l 1,3,-1
 94 572 l 1,0,-1
99 620 m 1,4,-1
 54 692 l 1,5,-1
 249 825 l 1,6,-1
 309 729 l 1,7,-1
 99 620 l 1,4,-1
EndSplineSet
EndChar

StartChar: icircumflex
Encoding: 238 238 175
Width: 322
GlyphClass: 2
Flags: W
LayerCount: 2
Fore
SplineSet
94 572 m 1,0,-1
 228 572 l 1,1,-1
 228 0 l 1,2,-1
 94 0 l 1,3,-1
 94 572 l 1,0,-1
41 626 m 1,4,-1
 -7 674 l 1,5,-1
 121 821 l 1,6,-1
 182 821 l 1,7,-1
 310 674 l 1,8,-1
 262 626 l 1,9,-1
 151 710 l 1,10,-1
 41 626 l 1,4,-1
EndSplineSet
EndChar

StartChar: idieresis
Encoding: 239 239 176
Width: 322
GlyphClass: 2
Flags: W
LayerCount: 2
Fore
SplineSet
94 572 m 1,0,-1
 228 572 l 1,1,-1
 228 0 l 1,2,-1
 94 0 l 1,3,-1
 94 572 l 1,0,-1
51 643 m 128,-1,5
 28 643 28 643 14 649 c 128,-1,6
 0 655 0 655 -6 667 c 0,7,8
 -16 687 -16 687 -16 710 c 128,-1,9
 -16 733 -16 733 -14 743.5 c 128,-1,10
 -12 754 -12 754 -6 766 c 0,11,12
 6 792 6 792 51 792 c 0,13,14
 98 792 98 792 110 766 c 0,15,16
 120 746 120 746 120 723 c 128,-1,17
 120 700 120 700 118 689.5 c 128,-1,18
 116 679 116 679 110 667 c 128,-1,19
 104 655 104 655 89 649 c 128,-1,4
 74 643 74 643 51 643 c 128,-1,5
269 643 m 128,-1,21
 246 643 246 643 232 649 c 128,-1,22
 218 655 218 655 212 667 c 0,23,24
 202 687 202 687 202 710 c 128,-1,25
 202 733 202 733 204 743.5 c 128,-1,26
 206 754 206 754 212 766 c 0,27,28
 224 792 224 792 269 792 c 0,29,30
 316 792 316 792 328 766 c 0,31,32
 338 746 338 746 338 723 c 128,-1,33
 338 700 338 700 336 689.5 c 128,-1,34
 334 679 334 679 328 667 c 128,-1,35
 322 655 322 655 307 649 c 128,-1,20
 292 643 292 643 269 643 c 128,-1,21
EndSplineSet
EndChar

StartChar: eth
Encoding: 240 240 177
Width: 592
GlyphClass: 2
Flags: W
LayerCount: 2
Fore
SplineSet
556 267 m 2,0,-1
 556 246 l 2,1,2
 556 52 556 52 404 2 c 0,3,4
 357 -14 357 -14 296 -14 c 128,-1,5
 235 -14 235 -14 188 1.5 c 128,-1,6
 141 17 141 17 113 42 c 128,-1,7
 85 67 85 67 67 102 c 0,8,9
 36 162 36 162 36 246 c 0,10,11
 36 347 36 347 86 420 c 0,12,13
 113 460 113 460 167 483 c 128,-1,14
 221 506 221 506 286.5 506 c 128,-1,15
 352 506 352 506 400 472 c 1,16,17
 382 530 382 530 349 583 c 1,18,-1
 252 544 l 1,19,-1
 252 631 l 1,20,-1
 299 650 l 1,21,-1
 262 689 l 1,22,-1
 325 764 l 1,23,24
 367 728 367 728 400 690 c 1,25,-1
 534 743 l 1,26,-1
 534 656 l 1,27,-1
 450 623 l 1,28,29
 556 463 556 463 556 267 c 2,0,-1
296 85 m 128,-1,31
 422 85 422 85 422 246 c 128,-1,32
 422 407 422 407 296 407 c 128,-1,33
 170 407 170 407 170 246 c 128,-1,30
 170 85 170 85 296 85 c 128,-1,31
EndSplineSet
EndChar

StartChar: ntilde
Encoding: 241 241 178
Width: 663
GlyphClass: 2
Flags: W
LayerCount: 2
Fore
SplineSet
200 520 m 1,0,1
 294 586 294 586 392.5 586 c 128,-1,2
 491 586 491 586 535 537.5 c 128,-1,3
 579 489 579 489 579 404 c 2,4,-1
 579 0 l 1,5,-1
 445 0 l 1,6,-1
 445 390 l 2,7,8
 445 441 445 441 426.5 462 c 128,-1,9
 408 483 408 483 362 483 c 0,10,11
 290 483 290 483 228 438 c 1,12,-1
 228 0 l 1,13,-1
 94 0 l 1,14,-1
 94 572 l 1,15,-1
 157 572 l 1,16,-1
 200 520 l 1,0,1
485.5 688 m 128,-1,18
 460 661 460 661 430 661 c 128,-1,19
 400 661 400 661 353 679 c 128,-1,20
 306 697 306 697 291 697 c 0,21,22
 262 697 262 697 249 653 c 1,23,-1
 174 677 l 1,24,25
 191 740 191 740 216.5 767 c 128,-1,26
 242 794 242 794 272 794 c 128,-1,27
 302 794 302 794 349.5 776 c 128,-1,28
 397 758 397 758 412 758 c 0,29,30
 441 758 441 758 454 802 c 1,31,-1
 528 778 l 1,32,17
 511 715 511 715 485.5 688 c 128,-1,18
EndSplineSet
EndChar

StartChar: ograve
Encoding: 242 242 179
Width: 592
GlyphClass: 2
Flags: W
LayerCount: 2
Fore
SplineSet
296 89 m 128,-1,1
 370 89 370 89 396 139 c 128,-1,2
 422 189 422 189 422 286 c 128,-1,3
 422 383 422 383 396 433 c 128,-1,4
 370 483 370 483 296 483 c 128,-1,5
 222 483 222 483 196 433 c 128,-1,6
 170 383 170 383 170 286 c 128,-1,7
 170 189 170 189 196 139 c 128,-1,0
 222 89 222 89 296 89 c 128,-1,1
296 -14 m 128,-1,9
 36 -14 36 -14 36 286 c 128,-1,10
 36 586 36 586 296 586 c 128,-1,11
 556 586 556 586 556 286 c 128,-1,8
 556 -14 556 -14 296 -14 c 128,-1,9
419 692 m 1,12,-1
 374 620 l 1,13,-1
 164 729 l 1,14,-1
 224 825 l 1,15,-1
 419 692 l 1,12,-1
EndSplineSet
EndChar

StartChar: oacute
Encoding: 243 243 180
Width: 592
GlyphClass: 2
Flags: W
LayerCount: 2
Fore
SplineSet
296 89 m 128,-1,1
 370 89 370 89 396 139 c 128,-1,2
 422 189 422 189 422 286 c 128,-1,3
 422 383 422 383 396 433 c 128,-1,4
 370 483 370 483 296 483 c 128,-1,5
 222 483 222 483 196 433 c 128,-1,6
 170 383 170 383 170 286 c 128,-1,7
 170 189 170 189 196 139 c 128,-1,0
 222 89 222 89 296 89 c 128,-1,1
296 -14 m 128,-1,9
 36 -14 36 -14 36 286 c 128,-1,10
 36 586 36 586 296 586 c 128,-1,11
 556 586 556 586 556 286 c 128,-1,8
 556 -14 556 -14 296 -14 c 128,-1,9
256 620 m 1,12,-1
 211 692 l 1,13,-1
 406 825 l 1,14,-1
 466 729 l 1,15,-1
 256 620 l 1,12,-1
EndSplineSet
EndChar

StartChar: ocircumflex
Encoding: 244 244 181
Width: 592
GlyphClass: 2
Flags: W
LayerCount: 2
Fore
SplineSet
296 89 m 128,-1,1
 370 89 370 89 396 139 c 128,-1,2
 422 189 422 189 422 286 c 128,-1,3
 422 383 422 383 396 433 c 128,-1,4
 370 483 370 483 296 483 c 128,-1,5
 222 483 222 483 196 433 c 128,-1,6
 170 383 170 383 170 286 c 128,-1,7
 170 189 170 189 196 139 c 128,-1,0
 222 89 222 89 296 89 c 128,-1,1
296 -14 m 128,-1,9
 36 -14 36 -14 36 286 c 128,-1,10
 36 586 36 586 296 586 c 128,-1,11
 556 586 556 586 556 286 c 128,-1,8
 556 -14 556 -14 296 -14 c 128,-1,9
185 626 m 1,12,-1
 137 674 l 1,13,-1
 265 821 l 1,14,-1
 326 821 l 1,15,-1
 454 674 l 1,16,-1
 406 626 l 1,17,-1
 295 710 l 1,18,-1
 185 626 l 1,12,-1
EndSplineSet
EndChar

StartChar: otilde
Encoding: 245 245 182
Width: 592
GlyphClass: 2
Flags: W
LayerCount: 2
Fore
SplineSet
296 89 m 128,-1,1
 370 89 370 89 396 139 c 128,-1,2
 422 189 422 189 422 286 c 128,-1,3
 422 383 422 383 396 433 c 128,-1,4
 370 483 370 483 296 483 c 128,-1,5
 222 483 222 483 196 433 c 128,-1,6
 170 383 170 383 170 286 c 128,-1,7
 170 189 170 189 196 139 c 128,-1,0
 222 89 222 89 296 89 c 128,-1,1
296 -14 m 128,-1,9
 36 -14 36 -14 36 286 c 128,-1,10
 36 586 36 586 296 586 c 128,-1,11
 556 586 556 586 556 286 c 128,-1,8
 556 -14 556 -14 296 -14 c 128,-1,9
430.5 688 m 128,-1,13
 405 661 405 661 375 661 c 128,-1,14
 345 661 345 661 298 679 c 128,-1,15
 251 697 251 697 236 697 c 0,16,17
 207 697 207 697 194 653 c 1,18,-1
 119 677 l 1,19,20
 136 740 136 740 161.5 767 c 128,-1,21
 187 794 187 794 217 794 c 128,-1,22
 247 794 247 794 294.5 776 c 128,-1,23
 342 758 342 758 357 758 c 0,24,25
 386 758 386 758 399 802 c 1,26,-1
 473 778 l 1,27,12
 456 715 456 715 430.5 688 c 128,-1,13
EndSplineSet
EndChar

StartChar: odieresis
Encoding: 246 246 183
Width: 592
GlyphClass: 2
Flags: W
LayerCount: 2
Fore
SplineSet
296 89 m 128,-1,1
 370 89 370 89 396 139 c 128,-1,2
 422 189 422 189 422 286 c 128,-1,3
 422 383 422 383 396 433 c 128,-1,4
 370 483 370 483 296 483 c 128,-1,5
 222 483 222 483 196 433 c 128,-1,6
 170 383 170 383 170 286 c 128,-1,7
 170 189 170 189 196 139 c 128,-1,0
 222 89 222 89 296 89 c 128,-1,1
296 -14 m 128,-1,9
 36 -14 36 -14 36 286 c 128,-1,10
 36 586 36 586 296 586 c 128,-1,11
 556 586 556 586 556 286 c 128,-1,8
 556 -14 556 -14 296 -14 c 128,-1,9
186 643 m 128,-1,13
 163 643 163 643 149 649 c 128,-1,14
 135 655 135 655 129 667 c 0,15,16
 119 687 119 687 119 710 c 128,-1,17
 119 733 119 733 121 743.5 c 128,-1,18
 123 754 123 754 129 766 c 0,19,20
 141 792 141 792 186 792 c 0,21,22
 233 792 233 792 245 766 c 0,23,24
 255 746 255 746 255 723 c 128,-1,25
 255 700 255 700 253 689.5 c 128,-1,26
 251 679 251 679 245 667 c 128,-1,27
 239 655 239 655 224 649 c 128,-1,12
 209 643 209 643 186 643 c 128,-1,13
404 643 m 128,-1,29
 381 643 381 643 367 649 c 128,-1,30
 353 655 353 655 347 667 c 0,31,32
 337 687 337 687 337 710 c 128,-1,33
 337 733 337 733 339 743.5 c 128,-1,34
 341 754 341 754 347 766 c 0,35,36
 359 792 359 792 404 792 c 0,37,38
 451 792 451 792 463 766 c 0,39,40
 473 746 473 746 473 723 c 128,-1,41
 473 700 473 700 471 689.5 c 128,-1,42
 469 679 469 679 463 667 c 128,-1,43
 457 655 457 655 442 649 c 128,-1,28
 427 643 427 643 404 643 c 128,-1,29
EndSplineSet
EndChar

StartChar: divide
Encoding: 247 247 184
Width: 580
GlyphClass: 2
Flags: W
LayerCount: 2
Fore
SplineSet
86 272 m 1,0,-1
 86 364 l 1,1,-1
 494 364 l 1,2,-1
 494 272 l 1,3,-1
 86 272 l 1,0,-1
325 65.5 m 128,-1,5
 311 59 311 59 289.5 59 c 128,-1,6
 268 59 268 59 254.5 65.5 c 128,-1,7
 241 72 241 72 235 84 c 128,-1,8
 229 96 229 96 227.5 106.5 c 128,-1,9
 226 117 226 117 226 133 c 128,-1,10
 226 149 226 149 227.5 160 c 128,-1,11
 229 171 229 171 235 183 c 0,12,13
 248 208 248 208 289 208 c 0,14,15
 333 208 333 208 344 183 c 0,16,17
 354 162 354 162 354 139.5 c 128,-1,18
 354 117 354 117 352 106.5 c 128,-1,19
 350 96 350 96 344.5 84 c 128,-1,4
 339 72 339 72 325 65.5 c 128,-1,5
325 424.5 m 128,-1,21
 311 418 311 418 289.5 418 c 128,-1,22
 268 418 268 418 254.5 424.5 c 128,-1,23
 241 431 241 431 235 443 c 128,-1,24
 229 455 229 455 227.5 465.5 c 128,-1,25
 226 476 226 476 226 492 c 128,-1,26
 226 508 226 508 227.5 519 c 128,-1,27
 229 530 229 530 235 542 c 0,28,29
 248 567 248 567 289 567 c 0,30,31
 333 567 333 567 344 542 c 0,32,33
 354 521 354 521 354 498.5 c 128,-1,34
 354 476 354 476 352 465.5 c 128,-1,35
 350 455 350 455 344.5 443 c 128,-1,20
 339 431 339 431 325 424.5 c 128,-1,21
EndSplineSet
EndChar

StartChar: oslash
Encoding: 248 248 185
Width: 592
GlyphClass: 2
Flags: W
LayerCount: 2
Fore
SplineSet
36 286 m 0,0,1
 36 586 36 586 296 586 c 0,2,3
 309 586 309 586 333 584 c 1,4,-1
 361 686 l 1,5,-1
 446 686 l 1,6,-1
 414 566 l 1,7,8
 556 509 556 509 556 286 c 0,9,10
 556 -14 556 -14 296 -14 c 0,11,12
 282 -14 282 -14 258 -12 c 1,13,-1
 231 -115 l 1,14,-1
 147 -115 l 1,15,-1
 179 5 l 1,16,17
 36 62 36 62 36 286 c 0,0,1
196 433 m 128,-1,19
 170 383 170 383 170 272.5 c 128,-1,20
 170 162 170 162 210 120 c 1,21,-1
 306 483 l 1,22,-1
 296 483 l 2,23,18
 222 483 222 483 196 433 c 128,-1,19
296 89 m 2,24,25
 370 89 370 89 396 139 c 128,-1,26
 422 189 422 189 422 298 c 128,-1,27
 422 407 422 407 383 450 c 1,28,-1
 286 89 l 1,29,-1
 296 89 l 2,24,25
EndSplineSet
EndChar

StartChar: ugrave
Encoding: 249 249 186
Width: 664
GlyphClass: 2
Flags: W
LayerCount: 2
Fore
SplineSet
260 -14 m 0,0,1
 84 -14 84 -14 84 168 c 2,2,-1
 84 572 l 1,3,-1
 218 572 l 1,4,-1
 218 190 l 2,5,6
 218 138 218 138 238.5 113.5 c 128,-1,7
 259 89 259 89 307 89 c 0,8,9
 375 89 375 89 436 153 c 1,10,-1
 436 572 l 1,11,-1
 570 572 l 1,12,-1
 570 0 l 1,13,-1
 483 0 l 1,14,-1
 445 69 l 1,15,16
 367 -14 367 -14 260 -14 c 0,0,1
428 692 m 1,17,-1
 383 620 l 1,18,-1
 173 729 l 1,19,-1
 233 825 l 1,20,-1
 428 692 l 1,17,-1
EndSplineSet
EndChar

StartChar: uacute
Encoding: 250 250 187
Width: 664
GlyphClass: 2
Flags: W
LayerCount: 2
Fore
SplineSet
260 -14 m 0,0,1
 84 -14 84 -14 84 168 c 2,2,-1
 84 572 l 1,3,-1
 218 572 l 1,4,-1
 218 190 l 2,5,6
 218 138 218 138 238.5 113.5 c 128,-1,7
 259 89 259 89 307 89 c 0,8,9
 375 89 375 89 436 153 c 1,10,-1
 436 572 l 1,11,-1
 570 572 l 1,12,-1
 570 0 l 1,13,-1
 483 0 l 1,14,-1
 445 69 l 1,15,16
 367 -14 367 -14 260 -14 c 0,0,1
299 620 m 1,17,-1
 254 692 l 1,18,-1
 449 825 l 1,19,-1
 509 729 l 1,20,-1
 299 620 l 1,17,-1
EndSplineSet
EndChar

StartChar: ucircumflex
Encoding: 251 251 188
Width: 664
GlyphClass: 2
Flags: W
LayerCount: 2
Fore
SplineSet
260 -14 m 0,0,1
 84 -14 84 -14 84 168 c 2,2,-1
 84 572 l 1,3,-1
 218 572 l 1,4,-1
 218 190 l 2,5,6
 218 138 218 138 238.5 113.5 c 128,-1,7
 259 89 259 89 307 89 c 0,8,9
 375 89 375 89 436 153 c 1,10,-1
 436 572 l 1,11,-1
 570 572 l 1,12,-1
 570 0 l 1,13,-1
 483 0 l 1,14,-1
 445 69 l 1,15,16
 367 -14 367 -14 260 -14 c 0,0,1
225 626 m 1,17,-1
 177 674 l 1,18,-1
 305 821 l 1,19,-1
 366 821 l 1,20,-1
 494 674 l 1,21,-1
 446 626 l 1,22,-1
 335 710 l 1,23,-1
 225 626 l 1,17,-1
EndSplineSet
EndChar

StartChar: udieresis
Encoding: 252 252 189
Width: 664
GlyphClass: 2
Flags: W
LayerCount: 2
Fore
SplineSet
260 -14 m 0,0,1
 84 -14 84 -14 84 168 c 2,2,-1
 84 572 l 1,3,-1
 218 572 l 1,4,-1
 218 190 l 2,5,6
 218 138 218 138 238.5 113.5 c 128,-1,7
 259 89 259 89 307 89 c 0,8,9
 375 89 375 89 436 153 c 1,10,-1
 436 572 l 1,11,-1
 570 572 l 1,12,-1
 570 0 l 1,13,-1
 483 0 l 1,14,-1
 445 69 l 1,15,16
 367 -14 367 -14 260 -14 c 0,0,1
225 643 m 128,-1,18
 202 643 202 643 188 649 c 128,-1,19
 174 655 174 655 168 667 c 0,20,21
 158 687 158 687 158 710 c 128,-1,22
 158 733 158 733 160 743.5 c 128,-1,23
 162 754 162 754 168 766 c 0,24,25
 180 792 180 792 225 792 c 0,26,27
 272 792 272 792 284 766 c 0,28,29
 294 746 294 746 294 723 c 128,-1,30
 294 700 294 700 292 689.5 c 128,-1,31
 290 679 290 679 284 667 c 128,-1,32
 278 655 278 655 263 649 c 128,-1,17
 248 643 248 643 225 643 c 128,-1,18
443 643 m 128,-1,34
 420 643 420 643 406 649 c 128,-1,35
 392 655 392 655 386 667 c 0,36,37
 376 687 376 687 376 710 c 128,-1,38
 376 733 376 733 378 743.5 c 128,-1,39
 380 754 380 754 386 766 c 0,40,41
 398 792 398 792 443 792 c 0,42,43
 490 792 490 792 502 766 c 0,44,45
 512 746 512 746 512 723 c 128,-1,46
 512 700 512 700 510 689.5 c 128,-1,47
 508 679 508 679 502 667 c 128,-1,48
 496 655 496 655 481 649 c 128,-1,33
 466 643 466 643 443 643 c 128,-1,34
EndSplineSet
EndChar

StartChar: yacute
Encoding: 253 253 190
Width: 542
GlyphClass: 2
Flags: W
LayerCount: 2
Fore
SplineSet
251 -237 m 1,0,-1
 132 -219 l 1,1,-1
 213 -8 l 1,2,-1
 4 572 l 1,3,-1
 139 572 l 1,4,-1
 276 174 l 1,5,-1
 400 572 l 1,6,-1
 537 572 l 1,7,-1
 251 -237 l 1,0,-1
222 620 m 1,8,-1
 177 692 l 1,9,-1
 372 825 l 1,10,-1
 432 729 l 1,11,-1
 222 620 l 1,8,-1
EndSplineSet
EndChar

StartChar: thorn
Encoding: 254 254 191
Width: 634
GlyphClass: 2
Flags: W
LayerCount: 2
Fore
SplineSet
370 586 m 0,0,1
 598 586 598 586 598 286 c 128,-1,2
 598 -14 598 -14 369 -14 c 0,3,4
 303 -14 303 -14 228 11 c 1,5,-1
 228 -205 l 1,6,-1
 94 -205 l 1,7,-1
 94 730 l 1,8,-1
 228 742 l 1,9,-1
 228 542 l 1,10,11
 298 586 298 586 370 586 c 0,0,1
336 482 m 0,12,13
 279 482 279 482 228 443 c 1,14,-1
 228 109 l 1,15,16
 282 90 282 90 344 90 c 0,17,18
 464 90 464 90 464 286 c 128,-1,19
 464 482 464 482 336 482 c 0,12,13
EndSplineSet
EndChar

StartChar: ydieresis
Encoding: 255 255 192
Width: 542
GlyphClass: 2
Flags: W
LayerCount: 2
Fore
SplineSet
251 -237 m 1,0,-1
 132 -219 l 1,1,-1
 213 -8 l 1,2,-1
 4 572 l 1,3,-1
 139 572 l 1,4,-1
 276 174 l 1,5,-1
 400 572 l 1,6,-1
 537 572 l 1,7,-1
 251 -237 l 1,0,-1
184 643 m 128,-1,9
 161 643 161 643 147 649 c 128,-1,10
 133 655 133 655 127 667 c 0,11,12
 117 687 117 687 117 710 c 128,-1,13
 117 733 117 733 119 743.5 c 128,-1,14
 121 754 121 754 127 766 c 0,15,16
 139 792 139 792 184 792 c 0,17,18
 231 792 231 792 243 766 c 0,19,20
 253 746 253 746 253 723 c 128,-1,21
 253 700 253 700 251 689.5 c 128,-1,22
 249 679 249 679 243 667 c 128,-1,23
 237 655 237 655 222 649 c 128,-1,8
 207 643 207 643 184 643 c 128,-1,9
402 643 m 128,-1,25
 379 643 379 643 365 649 c 128,-1,26
 351 655 351 655 345 667 c 0,27,28
 335 687 335 687 335 710 c 128,-1,29
 335 733 335 733 337 743.5 c 128,-1,30
 339 754 339 754 345 766 c 0,31,32
 357 792 357 792 402 792 c 0,33,34
 449 792 449 792 461 766 c 0,35,36
 471 746 471 746 471 723 c 128,-1,37
 471 700 471 700 469 689.5 c 128,-1,38
 467 679 467 679 461 667 c 128,-1,39
 455 655 455 655 440 649 c 128,-1,24
 425 643 425 643 402 643 c 128,-1,25
EndSplineSet
EndChar

StartChar: dotlessi
Encoding: 305 305 193
Width: 322
GlyphClass: 2
Flags: W
LayerCount: 2
Fore
SplineSet
94 572 m 1,0,-1
 228 572 l 1,1,-1
 228 0 l 1,2,-1
 94 0 l 1,3,-1
 94 572 l 1,0,-1
EndSplineSet
EndChar

StartChar: Lslash
Encoding: 321 321 194
Width: 483
GlyphClass: 2
Flags: W
LayerCount: 2
Fore
SplineSet
94 730 m 1,0,-1
 230 730 l 1,1,-1
 230 449 l 1,2,-1
 305 479 l 1,3,-1
 305 392 l 1,4,-1
 230 362 l 1,5,-1
 230 105 l 1,6,-1
 479 105 l 1,7,-1
 479 0 l 1,8,-1
 94 0 l 1,9,-1
 94 308 l 1,10,-1
 23 280 l 1,11,-1
 23 367 l 1,12,-1
 94 395 l 1,13,-1
 94 730 l 1,0,-1
EndSplineSet
EndChar

StartChar: lslash
Encoding: 322 322 195
Width: 322
GlyphClass: 2
Flags: W
LayerCount: 2
Fore
SplineSet
228 0 m 1,0,-1
 94 0 l 1,1,-1
 94 309 l 1,2,-1
 20 280 l 1,3,-1
 20 367 l 1,4,-1
 94 396 l 1,5,-1
 94 752 l 1,6,-1
 228 770 l 1,7,-1
 228 449 l 1,8,-1
 302 479 l 1,9,-1
 302 392 l 1,10,-1
 228 362 l 1,11,-1
 228 0 l 1,0,-1
EndSplineSet
EndChar

StartChar: OE
Encoding: 338 338 196
Width: 949
GlyphClass: 2
Flags: W
LayerCount: 2
Fore
SplineSet
349 0 m 2,0,1
 176 0 176 0 113 104 c 0,2,3
 56 199 56 199 56 365 c 0,4,5
 56 449 56 449 69 511 c 128,-1,6
 82 573 82 573 113 624 c 0,7,8
 177 730 177 730 349 730 c 2,9,-1
 895 730 l 1,10,-1
 895 625 l 1,11,-1
 586 625 l 1,12,13
 633 554 633 554 641 423 c 1,14,-1
 870 423 l 1,15,-1
 870 319 l 1,16,-1
 642 319 l 1,17,18
 635 178 635 178 586 105 c 1,19,-1
 915 105 l 1,20,-1
 915 0 l 1,21,-1
 349 0 l 2,0,1
349 109 m 128,-1,23
 438 109 438 109 472.5 175.5 c 128,-1,24
 507 242 507 242 507 365 c 128,-1,25
 507 488 507 488 472.5 554.5 c 128,-1,26
 438 621 438 621 349 621 c 128,-1,27
 260 621 260 621 226 554.5 c 128,-1,28
 192 488 192 488 192 365 c 128,-1,29
 192 242 192 242 226 175.5 c 128,-1,22
 260 109 260 109 349 109 c 128,-1,23
EndSplineSet
EndChar

StartChar: oe
Encoding: 339 339 197
Width: 953
GlyphClass: 2
Flags: W
LayerCount: 2
Fore
SplineSet
682 -14 m 0,0,1
 547 -14 547 -14 488 59 c 1,2,3
 425 -14 425 -14 296 -14 c 0,4,5
 36 -14 36 -14 36 286 c 128,-1,6
 36 586 36 586 296 586 c 0,7,8
 426 586 426 586 490 511 c 1,9,10
 552 586 552 586 678 586 c 0,11,12
 823 586 823 586 876 496 c 0,13,14
 922 419 922 419 922 296 c 2,15,-1
 922 260 l 1,16,-1
 556 260 l 1,17,18
 558 166 558 166 587.5 127.5 c 128,-1,19
 617 89 617 89 686 89 c 0,20,21
 797 89 797 89 804 169 c 1,22,-1
 914 165 l 1,23,24
 898 -14 898 -14 682 -14 c 0,0,1
422 287.5 m 128,-1,26
 422 382 422 382 396.5 432.5 c 128,-1,27
 371 483 371 483 296.5 483 c 128,-1,28
 222 483 222 483 196 433 c 128,-1,29
 170 383 170 383 170 286 c 128,-1,30
 170 189 170 189 196 139 c 128,-1,31
 222 89 222 89 297.5 89 c 128,-1,32
 373 89 373 89 397.5 141 c 128,-1,25
 422 193 422 193 422 287.5 c 128,-1,26
759 450.5 m 128,-1,34
 734 483 734 483 677.5 483 c 128,-1,35
 621 483 621 483 594 451 c 128,-1,36
 567 419 567 419 560 351 c 1,37,-1
 790 351 l 1,38,33
 784 418 784 418 759 450.5 c 128,-1,34
EndSplineSet
EndChar

StartChar: Scaron
Encoding: 352 352 198
Width: 603
GlyphClass: 2
Flags: W
LayerCount: 2
Fore
SplineSet
515 341 m 128,-1,1
 559 293 559 293 559 197 c 128,-1,2
 559 101 559 101 493 43.5 c 128,-1,3
 427 -14 427 -14 299 -14 c 128,-1,4
 171 -14 171 -14 114 40.5 c 128,-1,5
 57 95 57 95 44 199 c 1,6,-1
 153 216 l 1,7,8
 159 157 159 157 193.5 124.5 c 128,-1,9
 228 92 228 92 290 92 c 0,10,11
 423 92 423 92 423 193 c 0,12,13
 423 236 423 236 398 258 c 128,-1,14
 373 280 373 280 302 298 c 2,15,-1
 245 312 l 2,16,17
 145 337 145 337 102 386 c 128,-1,18
 59 435 59 435 59 532.5 c 128,-1,19
 59 630 59 630 122 687 c 128,-1,20
 185 744 185 744 308.5 744 c 128,-1,21
 432 744 432 744 486.5 689.5 c 128,-1,22
 541 635 541 635 554 531 c 1,23,-1
 446 514 l 1,24,25
 433 638 433 638 318 638 c 0,26,27
 255 638 255 638 225 610.5 c 128,-1,28
 195 583 195 583 195 538 c 128,-1,29
 195 493 195 493 218 471 c 128,-1,30
 241 449 241 449 306 432 c 2,31,-1
 369 415 l 1,32,0
 471 389 471 389 515 341 c 128,-1,1
421 983 m 1,33,-1
 469 935 l 1,34,-1
 341 788 l 1,35,-1
 280 788 l 1,36,-1
 152 935 l 1,37,-1
 200 983 l 1,38,-1
 311 899 l 1,39,-1
 421 983 l 1,33,-1
EndSplineSet
EndChar

StartChar: scaron
Encoding: 353 353 199
Width: 548
GlyphClass: 2
Flags: W
LayerCount: 2
Fore
SplineSet
504 160 m 0,0,1
 504 -11 504 -11 264 -11 c 0,2,3
 159 -11 159 -11 108 34.5 c 128,-1,4
 57 80 57 80 44 167 c 1,5,-1
 148 183 l 1,6,7
 159 87 159 87 267.5 87 c 128,-1,8
 376 87 376 87 376 155 c 0,9,10
 376 183 376 183 354.5 197 c 128,-1,11
 333 211 333 211 268 226 c 2,12,-1
 222 237 l 2,13,14
 133 258 133 258 94.5 298.5 c 128,-1,15
 56 339 56 339 56 416 c 0,16,17
 56 586 56 586 288 586 c 0,18,19
 388 586 388 586 437.5 540.5 c 128,-1,20
 487 495 487 495 499 408 c 1,21,-1
 395 393 l 1,22,23
 384 488 384 488 284.5 488 c 128,-1,24
 185 488 185 488 185 420 c 0,25,26
 185 392 185 392 204.5 377.5 c 128,-1,27
 224 363 224 363 284 349 c 2,28,-1
 336 336 l 2,29,30
 425 314 425 314 464.5 274.5 c 128,-1,31
 504 235 504 235 504 160 c 0,0,1
397 825 m 1,32,-1
 445 777 l 1,33,-1
 317 630 l 1,34,-1
 256 630 l 1,35,-1
 128 777 l 1,36,-1
 176 825 l 1,37,-1
 287 741 l 1,38,-1
 397 825 l 1,32,-1
EndSplineSet
EndChar

StartChar: Ydieresis
Encoding: 376 376 200
Width: 574
GlyphClass: 2
Flags: W
LayerCount: 2
Fore
SplineSet
355 0 m 1,0,-1
 219 0 l 1,1,-1
 219 254 l 1,2,-1
 -6 730 l 1,3,-1
 130 730 l 1,4,-1
 287 381 l 1,5,-1
 444 730 l 1,6,-1
 580 730 l 1,7,-1
 355 254 l 1,8,-1
 355 0 l 1,0,-1
177 801 m 128,-1,10
 154 801 154 801 140 807 c 128,-1,11
 126 813 126 813 120 825 c 0,12,13
 110 845 110 845 110 868 c 128,-1,14
 110 891 110 891 112 901.5 c 128,-1,15
 114 912 114 912 120 924 c 0,16,17
 132 950 132 950 177 950 c 0,18,19
 224 950 224 950 236 924 c 0,20,21
 246 904 246 904 246 881 c 128,-1,22
 246 858 246 858 244 847.5 c 128,-1,23
 242 837 242 837 236 825 c 128,-1,24
 230 813 230 813 215 807 c 128,-1,9
 200 801 200 801 177 801 c 128,-1,10
395 801 m 128,-1,26
 372 801 372 801 358 807 c 128,-1,27
 344 813 344 813 338 825 c 0,28,29
 328 845 328 845 328 868 c 128,-1,30
 328 891 328 891 330 901.5 c 128,-1,31
 332 912 332 912 338 924 c 0,32,33
 350 950 350 950 395 950 c 0,34,35
 442 950 442 950 454 924 c 0,36,37
 464 904 464 904 464 881 c 128,-1,38
 464 858 464 858 462 847.5 c 128,-1,39
 460 837 460 837 454 825 c 128,-1,40
 448 813 448 813 433 807 c 128,-1,25
 418 801 418 801 395 801 c 128,-1,26
EndSplineSet
EndChar

StartChar: Zcaron
Encoding: 381 381 201
Width: 562
GlyphClass: 2
Flags: W
LayerCount: 2
Fore
SplineSet
42 625 m 1,0,-1
 42 730 l 1,1,-1
 530 730 l 1,2,-1
 530 644 l 1,3,-1
 185 105 l 1,4,-1
 540 105 l 1,5,-1
 540 0 l 1,6,-1
 22 0 l 1,7,-1
 22 86 l 1,8,-1
 367 625 l 1,9,-1
 42 625 l 1,0,-1
401 983 m 1,10,-1
 449 935 l 1,11,-1
 321 788 l 1,12,-1
 260 788 l 1,13,-1
 132 935 l 1,14,-1
 180 983 l 1,15,-1
 291 899 l 1,16,-1
 401 983 l 1,10,-1
EndSplineSet
EndChar

StartChar: zcaron
Encoding: 382 382 202
Width: 509
GlyphClass: 2
Flags: W
LayerCount: 2
Fore
SplineSet
43 478 m 1,0,-1
 43 572 l 1,1,-1
 467 572 l 1,2,-1
 467 490 l 1,3,-1
 193 94 l 1,4,-1
 476 94 l 1,5,-1
 476 0 l 1,6,-1
 33 0 l 1,7,-1
 33 82 l 1,8,-1
 309 478 l 1,9,-1
 43 478 l 1,0,-1
389 825 m 1,10,-1
 437 777 l 1,11,-1
 309 630 l 1,12,-1
 248 630 l 1,13,-1
 120 777 l 1,14,-1
 168 825 l 1,15,-1
 279 741 l 1,16,-1
 389 825 l 1,10,-1
EndSplineSet
EndChar

StartChar: florin
Encoding: 402 402 203
Width: 630
GlyphClass: 2
Flags: W
LayerCount: 2
Fore
SplineSet
449 638 m 0,0,1
 356 638 356 638 356 515 c 2,2,-1
 356 389 l 1,3,-1
 513 389 l 1,4,-1
 513 299 l 1,5,-1
 356 299 l 1,6,-1
 356 20 l 2,7,8
 356 -46 356 -46 346.5 -88 c 128,-1,9
 337 -130 337 -130 310.5 -161 c 128,-1,10
 284 -192 284 -192 236 -205 c 128,-1,11
 188 -218 188 -218 113 -218 c 1,12,-1
 104 -101 l 1,13,14
 175 -101 175 -101 197.5 -75.5 c 128,-1,15
 220 -50 220 -50 220 22 c 2,16,-1
 220 299 l 1,17,-1
 113 299 l 1,18,-1
 113 389 l 1,19,-1
 220 389 l 1,20,-1
 220 515 l 2,21,22
 220 631 220 631 271 687.5 c 128,-1,23
 322 744 322 744 432 744 c 0,24,25
 514 744 514 744 573 707 c 1,26,-1
 535 613 l 1,27,28
 496 638 496 638 449 638 c 0,0,1
EndSplineSet
EndChar

StartChar: circumflex
Encoding: 710 710 204
Width: 385
GlyphClass: 2
Flags: W
LayerCount: 2
Fore
SplineSet
82 626 m 1,0,-1
 34 674 l 1,1,-1
 162 821 l 1,2,-1
 223 821 l 1,3,-1
 351 674 l 1,4,-1
 303 626 l 1,5,-1
 192 710 l 1,6,-1
 82 626 l 1,0,-1
EndSplineSet
EndChar

StartChar: caron
Encoding: 711 711 205
Width: 355
GlyphClass: 2
Flags: W
LayerCount: 2
Fore
SplineSet
288 825 m 1,0,-1
 336 777 l 1,1,-1
 208 630 l 1,2,-1
 147 630 l 1,3,-1
 19 777 l 1,4,-1
 67 825 l 1,5,-1
 178 741 l 1,6,-1
 288 825 l 1,0,-1
EndSplineSet
EndChar

StartChar: breve
Encoding: 728 728 206
Width: 409
GlyphClass: 2
Flags: W
LayerCount: 2
Fore
SplineSet
268 787 m 1,0,-1
 342 787 l 1,1,2
 342 723 342 723 320 684 c 0,3,4
 292 636 292 636 204 636 c 0,5,6
 117 636 117 636 90 684 c 0,7,8
 67 723 67 723 67 787 c 1,9,-1
 140 787 l 1,10,11
 140 752 140 752 152.5 734.5 c 128,-1,12
 165 717 165 717 204 717 c 128,-1,13
 243 717 243 717 255.5 734.5 c 128,-1,14
 268 752 268 752 268 787 c 1,0,-1
EndSplineSet
EndChar

StartChar: dotaccent
Encoding: 729 729 207
Width: 258
GlyphClass: 2
Flags: W
LayerCount: 2
Fore
SplineSet
188 651 m 128,-1,1
 170 636 170 636 136.5 636 c 128,-1,2
 103 636 103 636 85.5 651 c 128,-1,3
 68 666 68 666 64.5 682.5 c 128,-1,4
 61 699 61 699 61 725 c 128,-1,5
 61 751 61 751 64.5 768 c 128,-1,6
 68 785 68 785 85.5 800 c 128,-1,7
 103 815 103 815 136.5 815 c 128,-1,8
 170 815 170 815 188 800 c 128,-1,9
 206 785 206 785 209.5 768 c 128,-1,10
 213 751 213 751 213 725 c 128,-1,11
 213 699 213 699 209.5 682.5 c 128,-1,0
 206 666 206 666 188 651 c 128,-1,1
EndSplineSet
EndChar

StartChar: ring
Encoding: 730 730 208
Width: 258
GlyphClass: 2
Flags: W
LayerCount: 2
Fore
SplineSet
127 676 m 0,0,1
 168 676 168 676 168 725 c 128,-1,2
 168 774 168 774 127 774 c 0,3,4
 90 774 90 774 90 725 c 128,-1,5
 90 676 90 676 127 676 c 0,0,1
127 612 m 0,6,7
 16 612 16 612 16 724.5 c 128,-1,8
 16 837 16 837 127 837 c 0,9,10
 192 837 192 837 217 803.5 c 128,-1,11
 242 770 242 770 242 724 c 128,-1,12
 242 678 242 678 217 645 c 128,-1,13
 192 612 192 612 127 612 c 0,6,7
EndSplineSet
EndChar

StartChar: ogonek
Encoding: 731 731 209
Width: 316
GlyphClass: 2
Flags: W
LayerCount: 2
Fore
SplineSet
141 -232 m 0,0,1
 84 -232 84 -232 55 -206.5 c 128,-1,2
 26 -181 26 -181 26 -136.5 c 128,-1,3
 26 -92 26 -92 51 -65 c 128,-1,4
 76 -38 76 -38 132 -3 c 2,5,-1
 218 49 l 1,6,-1
 247 6 l 1,7,-1
 162 -47 l 2,8,9
 129 -67 129 -67 117 -82.5 c 128,-1,10
 105 -98 105 -98 105 -117 c 0,11,12
 105 -161 105 -161 150.5 -161 c 128,-1,13
 196 -161 196 -161 230 -102 c 1,14,-1
 283 -137 l 1,15,16
 231 -232 231 -232 141 -232 c 0,0,1
EndSplineSet
EndChar

StartChar: tilde
Encoding: 732 732 210
Width: 394
GlyphClass: 2
Flags: W
LayerCount: 2
Fore
SplineSet
331.5 688 m 128,-1,1
 306 661 306 661 276 661 c 128,-1,2
 246 661 246 661 199 679 c 128,-1,3
 152 697 152 697 137 697 c 0,4,5
 108 697 108 697 95 653 c 1,6,-1
 20 677 l 1,7,8
 37 740 37 740 62.5 767 c 128,-1,9
 88 794 88 794 118 794 c 128,-1,10
 148 794 148 794 195.5 776 c 128,-1,11
 243 758 243 758 258 758 c 0,12,13
 287 758 287 758 300 802 c 1,14,-1
 374 778 l 1,15,0
 357 715 357 715 331.5 688 c 128,-1,1
EndSplineSet
EndChar

StartChar: hungarumlaut
Encoding: 733 733 211
Width: 532
GlyphClass: 2
Flags: W
LayerCount: 2
Fore
SplineSet
47 620 m 1,0,-1
 2 692 l 1,1,-1
 197 825 l 1,2,-1
 257 729 l 1,3,-1
 47 620 l 1,0,-1
320 620 m 1,4,-1
 275 692 l 1,5,-1
 470 825 l 1,6,-1
 530 729 l 1,7,-1
 320 620 l 1,4,-1
EndSplineSet
EndChar

StartChar: pi
Encoding: 960 960 212
Width: 652
GlyphClass: 2
Flags: W
LayerCount: 2
Fore
SplineSet
46 485 m 1,0,-1
 46 572 l 1,1,-1
 606 572 l 1,2,-1
 606 485 l 1,3,-1
 545 485 l 1,4,-1
 545 0 l 1,5,-1
 411 0 l 1,6,-1
 411 485 l 1,7,-1
 240 485 l 1,8,-1
 240 0 l 1,9,-1
 106 0 l 1,10,-1
 106 485 l 1,11,-1
 46 485 l 1,0,-1
EndSplineSet
EndChar

StartChar: endash
Encoding: 8211 8211 213
Width: 564
GlyphClass: 2
Flags: W
LayerCount: 2
Fore
SplineSet
62 272 m 1,0,-1
 62 364 l 1,1,-1
 502 364 l 1,2,-1
 502 272 l 1,3,-1
 62 272 l 1,0,-1
EndSplineSet
EndChar

StartChar: emdash
Encoding: 8212 8212 214
Width: 897
GlyphClass: 2
Flags: W
LayerCount: 2
Fore
SplineSet
62 272 m 1,0,-1
 62 364 l 1,1,-1
 835 364 l 1,2,-1
 835 272 l 1,3,-1
 62 272 l 1,0,-1
EndSplineSet
EndChar

StartChar: quoteleft
Encoding: 8216 8216 215
Width: 274
GlyphClass: 2
Flags: W
LayerCount: 2
Fore
SplineSet
182 622 m 128,-1,1
 192 592 192 592 192 571 c 128,-1,2
 192 550 192 550 190 538.5 c 128,-1,3
 188 527 188 527 182 514 c 0,4,5
 171 489 171 489 127 489 c 0,6,7
 56 489 56 489 56 567 c 0,8,9
 56 689 56 689 183 783 c 1,10,-1
 218 742 l 1,11,12
 172 708 172 708 172 663 c 0,13,0
 172 652 172 652 182 622 c 128,-1,1
EndSplineSet
EndChar

StartChar: quoteright
Encoding: 8217 8217 216
Width: 250
GlyphClass: 2
Flags: W
LayerCount: 2
Fore
SplineSet
92 649.5 m 128,-1,1
 82 679 82 679 82 700.5 c 128,-1,2
 82 722 82 722 84 733.5 c 128,-1,3
 86 745 86 745 92 758 c 0,4,5
 103 783 103 783 147 783 c 0,6,7
 218 783 218 783 218 705 c 0,8,9
 218 583 218 583 91 489 c 1,10,-1
 56 529 l 1,11,12
 102 563 102 563 102 608 c 0,13,0
 102 620 102 620 92 649.5 c 128,-1,1
EndSplineSet
EndChar

StartChar: quotesinglbase
Encoding: 8218 8218 217
Width: 226
GlyphClass: 2
Flags: W
LayerCount: 2
Fore
SplineSet
55 24.5 m 128,-1,1
 45 54 45 54 45 72 c 128,-1,2
 45 90 45 90 47 101 c 128,-1,3
 49 112 49 112 55 124 c 0,4,5
 68 149 68 149 105 149 c 128,-1,6
 142 149 142 149 158.5 136.5 c 128,-1,7
 175 124 175 124 178 110 c 128,-1,8
 181 96 181 96 181 74 c 0,9,10
 181 -37 181 -37 54 -138 c 1,11,-1
 19 -97 l 1,12,13
 65 -53 65 -53 65 -18 c 0,14,0
 65 -5 65 -5 55 24.5 c 128,-1,1
EndSplineSet
EndChar

StartChar: quotedblleft
Encoding: 8220 8220 218
Width: 455
GlyphClass: 2
Flags: W
LayerCount: 2
Fore
SplineSet
182 622 m 128,-1,1
 192 592 192 592 192 568 c 128,-1,2
 192 544 192 544 188.5 529 c 128,-1,3
 185 514 185 514 169.5 501.5 c 128,-1,4
 154 489 154 489 119 489 c 128,-1,5
 84 489 84 489 70 510.5 c 128,-1,6
 56 532 56 532 56 567 c 0,7,8
 56 689 56 689 183 783 c 1,9,-1
 218 742 l 1,10,11
 172 701 172 701 172 663 c 0,12,0
 172 652 172 652 182 622 c 128,-1,1
363 622 m 128,-1,14
 373 592 373 592 373 571 c 128,-1,15
 373 550 373 550 371 538.5 c 128,-1,16
 369 527 369 527 364 514 c 1,17,18
 352 489 352 489 308 489 c 0,19,20
 237 489 237 489 237 567 c 0,21,22
 237 689 237 689 364 783 c 1,23,-1
 399 742 l 1,24,25
 353 708 353 708 353 663 c 0,26,13
 353 652 353 652 363 622 c 128,-1,14
EndSplineSet
EndChar

StartChar: quotedblright
Encoding: 8221 8221 219
Width: 455
GlyphClass: 2
Flags: W
LayerCount: 2
Fore
SplineSet
273 649.5 m 128,-1,1
 263 679 263 679 263 703.5 c 128,-1,2
 263 728 263 728 266.5 743 c 128,-1,3
 270 758 270 758 285.5 770.5 c 128,-1,4
 301 783 301 783 336 783 c 128,-1,5
 371 783 371 783 385 761.5 c 128,-1,6
 399 740 399 740 399 705 c 0,7,8
 399 583 399 583 272 489 c 1,9,-1
 237 529 l 1,10,11
 283 570 283 570 283 608 c 0,12,0
 283 620 283 620 273 649.5 c 128,-1,1
92 649.5 m 128,-1,14
 82 679 82 679 82 700.5 c 128,-1,15
 82 722 82 722 84 733.5 c 128,-1,16
 86 745 86 745 92 758 c 0,17,18
 103 783 103 783 147 783 c 0,19,20
 218 783 218 783 218 705 c 0,21,22
 218 583 218 583 91 489 c 1,23,-1
 56 529 l 1,24,25
 102 563 102 563 102 608 c 0,26,13
 102 620 102 620 92 649.5 c 128,-1,14
EndSplineSet
EndChar

StartChar: quotedblbase
Encoding: 8222 8222 220
Width: 407
GlyphClass: 2
Flags: W
LayerCount: 2
Fore
SplineSet
236 22.5 m 128,-1,1
 226 52 226 52 226 76.5 c 128,-1,2
 226 101 226 101 229.5 116 c 128,-1,3
 233 131 233 131 248.5 143.5 c 128,-1,4
 264 156 264 156 299 156 c 128,-1,5
 334 156 334 156 348 134.5 c 128,-1,6
 362 113 362 113 362 78 c 0,7,8
 362 -44 362 -44 235 -138 c 1,9,-1
 200 -98 l 1,10,11
 246 -57 246 -57 246 -19 c 0,12,0
 246 -7 246 -7 236 22.5 c 128,-1,1
55 22.5 m 128,-1,14
 45 52 45 52 45 73.5 c 128,-1,15
 45 95 45 95 47 106.5 c 128,-1,16
 49 118 49 118 54 130 c 0,17,18
 66 156 66 156 110 156 c 0,19,20
 181 156 181 156 181 78 c 0,21,22
 181 -44 181 -44 54 -138 c 1,23,-1
 19 -98 l 1,24,25
 65 -64 65 -64 65 -19 c 0,26,13
 65 -7 65 -7 55 22.5 c 128,-1,14
EndSplineSet
EndChar

StartChar: dagger
Encoding: 8224 8224 221
Width: 472
GlyphClass: 2
Flags: W
LayerCount: 2
Fore
SplineSet
460 572 m 1,0,-1
 460 466 l 1,1,-1
 406 466 l 1,2,-1
 301 477 l 1,3,-1
 284 0 l 1,4,-1
 188 0 l 1,5,-1
 171 477 l 1,6,-1
 66 466 l 1,7,-1
 12 466 l 1,8,-1
 12 572 l 1,9,-1
 66 572 l 1,10,-1
 168 561 l 1,11,-1
 162 730 l 1,12,-1
 310 730 l 1,13,-1
 304 561 l 1,14,-1
 406 572 l 1,15,-1
 460 572 l 1,0,-1
EndSplineSet
EndChar

StartChar: daggerdbl
Encoding: 8225 8225 222
Width: 472
GlyphClass: 2
Flags: W
LayerCount: 2
Fore
SplineSet
12 158 m 1,0,-1
 12 264 l 1,1,-1
 66 264 l 1,2,-1
 180 252 l 1,3,-1
 188 365 l 1,4,-1
 180 477 l 1,5,-1
 66 466 l 1,6,-1
 12 466 l 1,7,-1
 12 572 l 1,8,-1
 66 572 l 1,9,-1
 174 561 l 1,10,-1
 162 730 l 1,11,-1
 310 730 l 1,12,-1
 298 561 l 1,13,-1
 406 572 l 1,14,-1
 460 572 l 1,15,-1
 460 466 l 1,16,-1
 406 466 l 1,17,-1
 292 477 l 1,18,-1
 284 365 l 1,19,-1
 292 252 l 1,20,-1
 406 264 l 1,21,-1
 460 264 l 1,22,-1
 460 158 l 1,23,-1
 406 158 l 1,24,-1
 298 169 l 1,25,-1
 310 0 l 1,26,-1
 162 0 l 1,27,-1
 174 169 l 1,28,-1
 66 158 l 1,29,-1
 12 158 l 1,0,-1
EndSplineSet
EndChar

StartChar: bullet
Encoding: 8226 8226 223
Width: 272
GlyphClass: 2
Flags: W
LayerCount: 2
Fore
SplineSet
191.5 224 m 128,-1,1
 168 214 168 214 132 214 c 128,-1,2
 96 214 96 214 73 224 c 128,-1,3
 50 234 50 234 40 253 c 0,4,5
 24 283 24 283 24 320 c 128,-1,6
 24 357 24 357 27 374.5 c 128,-1,7
 30 392 30 392 40 411 c 0,8,9
 60 449 60 449 131 449 c 0,10,11
 206 449 206 449 224 410 c 1,12,13
 240 379 240 379 240 342.5 c 128,-1,14
 240 306 240 306 237 289 c 128,-1,15
 234 272 234 272 224.5 253 c 128,-1,0
 215 234 215 234 191.5 224 c 128,-1,1
EndSplineSet
EndChar

StartChar: ellipsis
Encoding: 8230 8230 224
Width: 734
GlyphClass: 2
Flags: W
LayerCount: 2
Fore
SplineSet
156.5 -1.5 m 128,-1,1
 141 -8 141 -8 113 -8 c 128,-1,2
 85 -8 85 -8 68.5 5 c 128,-1,3
 52 18 52 18 48.5 32.5 c 128,-1,4
 45 47 45 47 45 67 c 128,-1,5
 45 87 45 87 47 98.5 c 128,-1,6
 49 110 49 110 56 123 c 0,7,8
 68 149 68 149 116 149 c 0,9,10
 166 149 166 149 178 123 c 1,11,12
 189 102 189 102 189 77.5 c 128,-1,13
 189 53 189 53 187 42 c 128,-1,14
 185 31 185 31 178.5 18 c 128,-1,0
 172 5 172 5 156.5 -1.5 c 128,-1,1
406.5 -1.5 m 128,-1,16
 391 -8 391 -8 363 -8 c 128,-1,17
 335 -8 335 -8 318.5 5 c 128,-1,18
 302 18 302 18 298.5 32.5 c 128,-1,19
 295 47 295 47 295 67 c 128,-1,20
 295 87 295 87 297 98.5 c 128,-1,21
 299 110 299 110 306 123 c 0,22,23
 318 149 318 149 366 149 c 0,24,25
 416 149 416 149 428 123 c 1,26,27
 439 102 439 102 439 77.5 c 128,-1,28
 439 53 439 53 437 42 c 128,-1,29
 435 31 435 31 428.5 18 c 128,-1,15
 422 5 422 5 406.5 -1.5 c 128,-1,16
656.5 -1.5 m 128,-1,31
 641 -8 641 -8 613 -8 c 128,-1,32
 585 -8 585 -8 568.5 5 c 128,-1,33
 552 18 552 18 548.5 32.5 c 128,-1,34
 545 47 545 47 545 67 c 128,-1,35
 545 87 545 87 547 98.5 c 128,-1,36
 549 110 549 110 556 123 c 0,37,38
 568 149 568 149 616 149 c 0,39,40
 666 149 666 149 678 123 c 1,41,42
 689 102 689 102 689 77.5 c 128,-1,43
 689 53 689 53 687 42 c 128,-1,44
 685 31 685 31 678.5 18 c 128,-1,30
 672 5 672 5 656.5 -1.5 c 128,-1,31
EndSplineSet
EndChar

StartChar: perthousand
Encoding: 8240 8240 225
Width: 1367
GlyphClass: 2
Flags: W
LayerCount: 2
Fore
SplineSet
320 -66 m 1,0,-1
 534 735 l 1,1,-1
 619 735 l 1,2,-1
 404 -66 l 1,3,-1
 320 -66 l 1,0,-1
1150 -8 m 128,-1,5
 1056 -8 1056 -8 1020.5 46.5 c 128,-1,6
 985 101 985 101 985 202 c 128,-1,7
 985 303 985 303 1020.5 358.5 c 128,-1,8
 1056 414 1056 414 1150 414 c 128,-1,9
 1244 414 1244 414 1280 358.5 c 128,-1,10
 1316 303 1316 303 1316 202 c 128,-1,11
 1316 101 1316 101 1280 46.5 c 128,-1,4
 1244 -8 1244 -8 1150 -8 c 128,-1,5
1110 105 m 128,-1,13
 1120 77 1120 77 1150.5 77 c 128,-1,14
 1181 77 1181 77 1191 105 c 128,-1,15
 1201 133 1201 133 1201 203 c 128,-1,16
 1201 273 1201 273 1191 300.5 c 128,-1,17
 1181 328 1181 328 1150.5 328 c 128,-1,18
 1120 328 1120 328 1110 300.5 c 128,-1,19
 1100 273 1100 273 1100 203 c 128,-1,12
 1100 133 1100 133 1110 105 c 128,-1,13
199 318 m 128,-1,21
 105 318 105 318 69.5 372.5 c 128,-1,22
 34 427 34 427 34 528 c 128,-1,23
 34 629 34 629 69.5 684.5 c 128,-1,24
 105 740 105 740 199 740 c 128,-1,25
 293 740 293 740 329 684.5 c 128,-1,26
 365 629 365 629 365 528 c 128,-1,27
 365 427 365 427 329 372.5 c 128,-1,20
 293 318 293 318 199 318 c 128,-1,21
159 431 m 128,-1,29
 169 403 169 403 199.5 403 c 128,-1,30
 230 403 230 403 240 431 c 128,-1,31
 250 459 250 459 250 529 c 128,-1,32
 250 599 250 599 240 626.5 c 128,-1,33
 230 654 230 654 199.5 654 c 128,-1,34
 169 654 169 654 159 626.5 c 128,-1,35
 149 599 149 599 149 529 c 128,-1,28
 149 459 149 459 159 431 c 128,-1,29
750 -8 m 128,-1,37
 656 -8 656 -8 620.5 46.5 c 128,-1,38
 585 101 585 101 585 202 c 128,-1,39
 585 303 585 303 620.5 358.5 c 128,-1,40
 656 414 656 414 750 414 c 128,-1,41
 844 414 844 414 880 358.5 c 128,-1,42
 916 303 916 303 916 202 c 128,-1,43
 916 101 916 101 880 46.5 c 128,-1,36
 844 -8 844 -8 750 -8 c 128,-1,37
710 105 m 128,-1,45
 720 77 720 77 750.5 77 c 128,-1,46
 781 77 781 77 791 105 c 128,-1,47
 801 133 801 133 801 203 c 128,-1,48
 801 273 801 273 791 300.5 c 128,-1,49
 781 328 781 328 750.5 328 c 128,-1,50
 720 328 720 328 710 300.5 c 128,-1,51
 700 273 700 273 700 203 c 128,-1,44
 700 133 700 133 710 105 c 128,-1,45
EndSplineSet
EndChar

StartChar: guilsinglleft
Encoding: 8249 8249 226
Width: 305
GlyphClass: 2
Flags: W
LayerCount: 2
Fore
SplineSet
267 466 m 1,0,-1
 153 315 l 1,1,-1
 267 164 l 1,2,-1
 202 100 l 1,3,-1
 22 291 l 1,4,-1
 22 339 l 1,5,-1
 202 530 l 1,6,-1
 267 466 l 1,0,-1
EndSplineSet
EndChar

StartChar: guilsinglright
Encoding: 8250 8250 227
Width: 305
GlyphClass: 2
Flags: W
LayerCount: 2
Fore
SplineSet
38 164 m 1,0,-1
 152 315 l 1,1,-1
 38 466 l 1,2,-1
 103 530 l 1,3,-1
 283 339 l 1,4,-1
 283 291 l 1,5,-1
 103 100 l 1,6,-1
 38 164 l 1,0,-1
EndSplineSet
EndChar

StartChar: fraction
Encoding: 8260 8260 228
Width: 283
GlyphClass: 2
Flags: W
LayerCount: 2
Fore
SplineSet
-8 -66 m 1,0,-1
 206 735 l 1,1,-1
 291 735 l 1,2,-1
 76 -66 l 1,3,-1
 -8 -66 l 1,0,-1
EndSplineSet
EndChar

StartChar: Euro
Encoding: 8364 8364 229
Width: 630
GlyphClass: 2
Flags: W
LayerCount: 2
Fore
SplineSet
29 401 m 1,0,-1
 29 492 l 1,1,-1
 100 492 l 1,2,3
 138 744 138 744 364 744 c 0,4,5
 484 744 484 744 543.5 693.5 c 128,-1,6
 603 643 603 643 605 550 c 1,7,-1
 487 542 l 1,8,9
 487 588 487 588 452.5 613 c 128,-1,10
 418 638 418 638 361.5 638 c 128,-1,11
 305 638 305 638 274.5 600.5 c 128,-1,12
 244 563 244 563 233 492 c 1,13,-1
 419 492 l 1,14,-1
 419 401 l 1,15,-1
 226 401 l 1,16,-1
 226 329 l 1,17,-1
 419 329 l 1,18,-1
 419 238 l 1,19,-1
 233 238 l 1,20,21
 244 166 244 166 274.5 128.5 c 128,-1,22
 305 91 305 91 362 91 c 128,-1,23
 419 91 419 91 453.5 117 c 128,-1,24
 488 143 488 143 488 190 c 1,25,-1
 606 182 l 1,26,27
 604 88 604 88 544 37 c 128,-1,28
 484 -14 484 -14 362.5 -14 c 128,-1,29
 241 -14 241 -14 179.5 52.5 c 128,-1,30
 118 119 118 119 100 238 c 1,31,-1
 29 238 l 1,32,-1
 29 329 l 1,33,-1
 92 329 l 1,34,-1
 92 401 l 1,35,-1
 29 401 l 1,0,-1
EndSplineSet
EndChar

StartChar: trademark
Encoding: 8482 8482 230
Width: 1005
GlyphClass: 2
Flags: W
LayerCount: 2
Fore
SplineSet
910 730 m 1,0,-1
 910 288 l 1,1,-1
 805 288 l 1,2,-1
 805 585 l 1,3,-1
 723 353 l 1,4,-1
 627 353 l 1,5,-1
 554 575 l 1,6,-1
 554 288 l 1,7,-1
 448 288 l 1,8,-1
 448 730 l 1,9,-1
 601 730 l 1,10,-1
 676 488 l 1,11,-1
 759 730 l 1,12,-1
 910 730 l 1,0,-1
55 643 m 1,13,-1
 55 730 l 1,14,-1
 375 730 l 1,15,-1
 375 643 l 1,16,-1
 268 643 l 1,17,-1
 268 288 l 1,18,-1
 162 288 l 1,19,-1
 162 643 l 1,20,-1
 55 643 l 1,13,-1
EndSplineSet
EndChar

StartChar: Omega
Encoding: 8486 8486 231
Width: 797
GlyphClass: 2
Flags: W
LayerCount: 2
Fore
SplineSet
563.5 584 m 128,-1,1
 520 636 520 636 398.5 636 c 128,-1,2
 277 636 277 636 233.5 584 c 128,-1,3
 190 532 190 532 190 422 c 0,4,5
 190 339 190 339 220 292.5 c 128,-1,6
 250 246 250 246 318 227 c 1,7,-1
 318 0 l 1,8,-1
 76 0 l 1,9,-1
 76 88 l 1,10,-1
 202 88 l 1,11,-1
 202 168 l 1,12,13
 54 241 54 241 54 427 c 0,14,15
 54 583 54 583 133.5 664 c 128,-1,16
 213 745 213 745 398 745 c 128,-1,17
 583 745 583 745 663 664 c 128,-1,18
 743 583 743 583 743 427 c 0,19,20
 743 242 743 242 595 168 c 1,21,-1
 595 88 l 1,22,-1
 721 88 l 1,23,-1
 721 0 l 1,24,-1
 479 0 l 1,25,-1
 479 227 l 1,26,27
 547 246 547 246 577 292.5 c 128,-1,28
 607 339 607 339 607 422 c 0,29,0
 607 532 607 532 563.5 584 c 128,-1,1
EndSplineSet
EndChar

StartChar: partialdiff
Encoding: 8706 8706 232
Width: 598
GlyphClass: 2
Flags: W
LayerCount: 2
Fore
SplineSet
562 371 m 0,0,1
 562 171 562 171 491 78.5 c 128,-1,2
 420 -14 420 -14 253 -14 c 0,3,4
 132 -14 132 -14 84 35.5 c 128,-1,5
 36 85 36 85 36 169 c 0,6,7
 36 336 36 336 106 421 c 128,-1,8
 176 506 176 506 340 506 c 0,9,10
 396 506 396 506 428 474 c 1,11,12
 413 593 413 593 335 689 c 1,13,-1
 410 764 l 1,14,15
 562 604 562 604 562 371 c 0,0,1
271 85 m 0,16,17
 351 85 351 85 386 140.5 c 128,-1,18
 421 196 421 196 421 301.5 c 128,-1,19
 421 407 421 407 323 407 c 0,20,21
 243 407 243 407 207.5 351 c 128,-1,22
 172 295 172 295 172 190 c 128,-1,23
 172 85 172 85 271 85 c 0,16,17
EndSplineSet
EndChar

StartChar: Delta
Encoding: 8710 8710 233
Width: 606
GlyphClass: 2
Flags: W
LayerCount: 2
Fore
SplineSet
229 730 m 1,0,-1
 377 730 l 1,1,-1
 636 0 l 1,2,-1
 -30 0 l 1,3,-1
 229 730 l 1,0,-1
303 580 m 1,4,-1
 135 88 l 1,5,-1
 471 88 l 1,6,-1
 303 580 l 1,4,-1
EndSplineSet
EndChar

StartChar: product
Encoding: 8719 8719 234
Width: 760
GlyphClass: 2
Flags: W
LayerCount: 2
Fore
SplineSet
54 642 m 1,0,-1
 54 730 l 1,1,-1
 706 730 l 1,2,-1
 706 642 l 1,3,-1
 640 642 l 1,4,-1
 640 -173 l 1,5,-1
 506 -173 l 1,6,-1
 506 642 l 1,7,-1
 253 642 l 1,8,-1
 253 -173 l 1,9,-1
 119 -173 l 1,10,-1
 119 642 l 1,11,-1
 54 642 l 1,0,-1
EndSplineSet
EndChar

StartChar: summation
Encoding: 8721 8721 235
Width: 596
GlyphClass: 2
Flags: W
LayerCount: 2
Fore
SplineSet
39 730 m 1,0,-1
 568 730 l 1,1,-1
 568 642 l 1,2,-1
 179 642 l 1,3,-1
 422 271 l 1,4,-1
 184 -86 l 1,5,-1
 568 -86 l 1,6,-1
 568 -173 l 1,7,-1
 39 -173 l 1,8,-1
 39 -86 l 1,9,-1
 277 271 l 1,10,-1
 39 642 l 1,11,-1
 39 730 l 1,0,-1
EndSplineSet
EndChar

StartChar: minus
Encoding: 8722 8722 236
Width: 580
GlyphClass: 2
Flags: W
LayerCount: 2
Fore
SplineSet
86 272 m 1,0,-1
 86 364 l 1,1,-1
 494 364 l 1,2,-1
 494 272 l 1,3,-1
 86 272 l 1,0,-1
EndSplineSet
EndChar

StartChar: radical
Encoding: 8730 8730 237
Width: 571
GlyphClass: 2
Flags: W
LayerCount: 2
Fore
SplineSet
629 730 m 1,0,-1
 629 643 l 1,1,-1
 491 643 l 1,2,-1
 299 0 l 1,3,-1
 151 0 l 1,4,-1
 -8 437 l 1,5,-1
 127 437 l 1,6,-1
 220 163 l 1,7,-1
 382 730 l 1,8,-1
 629 730 l 1,0,-1
EndSplineSet
EndChar

StartChar: infinity
Encoding: 8734 8734 238
Width: 606
GlyphClass: 2
Flags: W
LayerCount: 2
Fore
SplineSet
63 467.5 m 128,-1,1
 102 509 102 509 183.5 509 c 128,-1,2
 265 509 265 509 301 455 c 1,3,4
 336 509 336 509 420 509 c 128,-1,5
 504 509 504 509 543 467.5 c 128,-1,6
 582 426 582 426 582 318.5 c 128,-1,7
 582 211 582 211 543 169.5 c 128,-1,8
 504 128 504 128 422 128 c 128,-1,9
 340 128 340 128 304 182 c 1,10,11
 268 128 268 128 185 128 c 128,-1,12
 102 128 102 128 63 169.5 c 128,-1,13
 24 211 24 211 24 318.5 c 128,-1,0
 24 426 24 426 63 467.5 c 128,-1,1
414 232 m 0,14,15
 450 232 450 232 467 250 c 128,-1,16
 484 268 484 268 484 318 c 128,-1,17
 484 368 484 368 467 386 c 128,-1,18
 450 404 450 404 417.5 404 c 128,-1,19
 385 404 385 404 369.5 384 c 128,-1,20
 354 364 354 364 347 326 c 2,21,-1
 340 290 l 1,22,23
 361 232 361 232 414 232 c 0,14,15
237.5 387 m 128,-1,25
 218 404 218 404 187 404 c 128,-1,26
 156 404 156 404 139 386 c 128,-1,27
 122 368 122 368 122 318 c 128,-1,28
 122 268 122 268 139 250 c 128,-1,29
 156 232 156 232 189 232 c 128,-1,30
 222 232 222 232 237 252.5 c 128,-1,31
 252 273 252 273 259 312 c 2,32,-1
 265 345 l 1,33,24
 257 370 257 370 237.5 387 c 128,-1,25
EndSplineSet
EndChar

StartChar: integral
Encoding: 8747 8747 239
Width: 476
GlyphClass: 2
Flags: W
LayerCount: 2
Fore
SplineSet
174 -33 m 2,0,-1
 174 515 l 2,1,2
 174 631 174 631 225 687.5 c 128,-1,3
 276 744 276 744 386 744 c 0,4,5
 469 744 469 744 528 707 c 1,6,-1
 489 613 l 1,7,8
 450 638 450 638 403 638 c 0,9,10
 310 638 310 638 310 515 c 2,11,-1
 310 -33 l 2,12,13
 310 -149 310 -149 259.5 -205 c 128,-1,14
 209 -261 209 -261 99 -261 c 0,15,16
 18 -261 18 -261 -43 -224 c 1,17,-1
 -4 -130 l 1,18,19
 33 -155 33 -155 83 -155 c 0,20,21
 174 -155 174 -155 174 -33 c 2,0,-1
EndSplineSet
EndChar

StartChar: approxequal
Encoding: 8776 8776 240
Width: 580
GlyphClass: 2
Flags: W
LayerCount: 2
Fore
SplineSet
86 464 m 1,0,1
 120 440 120 440 166.5 440 c 128,-1,2
 213 440 213 440 289.5 461.5 c 128,-1,3
 366 483 366 483 411.5 483 c 128,-1,4
 457 483 457 483 494 464 c 1,5,-1
 494 372 l 1,6,7
 456 393 456 393 411 393 c 128,-1,8
 366 393 366 393 289.5 371.5 c 128,-1,9
 213 350 213 350 168 350 c 128,-1,10
 123 350 123 350 86 372 c 1,11,-1
 86 464 l 1,0,1
86 264 m 1,12,13
 120 240 120 240 166.5 240 c 128,-1,14
 213 240 213 240 289.5 261.5 c 128,-1,15
 366 283 366 283 411.5 283 c 128,-1,16
 457 283 457 283 494 264 c 1,17,-1
 494 172 l 1,18,19
 456 193 456 193 411 193 c 128,-1,20
 366 193 366 193 289.5 171.5 c 128,-1,21
 213 150 213 150 168 150 c 128,-1,22
 123 150 123 150 86 172 c 1,23,-1
 86 264 l 1,12,13
EndSplineSet
EndChar

StartChar: notequal
Encoding: 8800 8800 241
Width: 580
GlyphClass: 2
Flags: W
LayerCount: 2
Fore
SplineSet
84 380 m 1,0,-1
 84 472 l 1,1,-1
 284 472 l 1,2,-1
 355 735 l 1,3,-1
 440 735 l 1,4,-1
 369 472 l 1,5,-1
 492 472 l 1,6,-1
 492 380 l 1,7,-1
 344 380 l 1,8,-1
 311 256 l 1,9,-1
 492 256 l 1,10,-1
 492 164 l 1,11,-1
 286 164 l 1,12,-1
 225 -66 l 1,13,-1
 141 -66 l 1,14,-1
 202 164 l 1,15,-1
 84 164 l 1,16,-1
 84 256 l 1,17,-1
 227 256 l 1,18,-1
 260 380 l 1,19,-1
 84 380 l 1,0,-1
EndSplineSet
EndChar

StartChar: lessequal
Encoding: 8804 8804 242
Width: 580
GlyphClass: 2
Flags: W
LayerCount: 2
Fore
SplineSet
89 329 m 1,0,-1
 89 445 l 1,1,-1
 491 617 l 1,2,-1
 491 515 l 1,3,-1
 173 387 l 1,4,-1
 491 259 l 1,5,-1
 491 157 l 1,6,-1
 89 329 l 1,0,-1
86 0 m 1,7,-1
 86 92 l 1,8,-1
 494 92 l 1,9,-1
 494 0 l 1,10,-1
 86 0 l 1,7,-1
EndSplineSet
EndChar

StartChar: greaterequal
Encoding: 8805 8805 243
Width: 580
GlyphClass: 2
Flags: W
LayerCount: 2
Fore
SplineSet
491 445 m 1,0,-1
 491 329 l 1,1,-1
 89 157 l 1,2,-1
 89 259 l 1,3,-1
 406 387 l 1,4,-1
 89 515 l 1,5,-1
 89 617 l 1,6,-1
 491 445 l 1,0,-1
86 0 m 1,7,-1
 86 92 l 1,8,-1
 494 92 l 1,9,-1
 494 0 l 1,10,-1
 86 0 l 1,7,-1
EndSplineSet
EndChar

StartChar: lozenge
Encoding: 9674 9674 244
Width: 556
GlyphClass: 2
Flags: W
LayerCount: 2
Fore
SplineSet
204 770 m 1,0,-1
 352 770 l 1,1,-1
 538 335 l 1,2,-1
 352 -100 l 1,3,-1
 204 -100 l 1,4,-1
 18 335 l 1,5,-1
 204 770 l 1,0,-1
278 26 m 1,6,-1
 403 335 l 1,7,-1
 278 644 l 1,8,-1
 153 335 l 1,9,-1
 278 26 l 1,6,-1
EndSplineSet
EndChar

StartChar: apple
Encoding: 63743 63743 245
Width: 907
GlyphClass: 2
Flags: W
LayerCount: 2
Fore
SplineSet
581 -89 m 2,0,-1
 558 -88 l 2,1,2
 544 -88 544 -88 526.5 -100 c 128,-1,3
 509 -112 509 -112 500 -112 c 1,4,-1
 454 -102 l 1,5,6
 446 -102 446 -102 430.5 -108 c 128,-1,7
 415 -114 415 -114 406.5 -114 c 128,-1,8
 398 -114 398 -114 382 -101.5 c 128,-1,9
 366 -89 366 -89 353 -89 c 1,10,-1
 329 -91 l 1,11,12
 314 -91 314 -91 296 -74 c 1,13,-1
 278 -55 l 1,14,15
 266 -49 266 -49 253 -48 c 128,-1,16
 240 -47 240 -47 231 -41.5 c 128,-1,17
 222 -36 222 -36 215 -18.5 c 128,-1,18
 208 -1 208 -1 202.5 3.5 c 128,-1,19
 197 8 197 8 183 13.5 c 128,-1,20
 169 19 169 19 163 28 c 0,21,22
 158 37 158 37 156 51.5 c 128,-1,23
 154 66 154 66 150 72.5 c 128,-1,24
 146 79 146 79 136 86 c 0,25,26
 114 104 114 104 114 124 c 1,27,-1
 117 149 l 1,28,29
 117 158 117 158 104.5 175.5 c 128,-1,30
 92 193 92 193 92 202 c 128,-1,31
 92 211 92 211 98 225.5 c 128,-1,32
 104 240 104 240 104 248.5 c 128,-1,33
 104 257 104 257 98 270 c 128,-1,34
 92 283 92 283 92 292 c 128,-1,35
 92 301 92 301 104.5 321.5 c 128,-1,36
 117 342 117 342 117 351 c 2,37,-1
 116 376 l 2,38,39
 116 391 116 391 132.5 405.5 c 128,-1,40
 149 420 149 420 151.5 425 c 128,-1,41
 154 430 154 430 156 446 c 128,-1,42
 158 462 158 462 162 468 c 128,-1,43
 166 474 166 474 181.5 480 c 128,-1,44
 197 486 197 486 202 491 c 128,-1,45
 207 496 207 496 214 511.5 c 128,-1,46
 221 527 221 527 227.5 532.5 c 128,-1,47
 234 538 234 538 253 542 c 128,-1,48
 272 546 272 546 277.5 549 c 128,-1,49
 283 552 283 552 298 569 c 128,-1,50
 313 586 313 586 327 587 c 1,51,-1
 353 585 l 2,52,53
 366 585 366 585 381.5 596.5 c 128,-1,54
 397 608 397 608 408 608 c 1,55,-1
 452 596 l 1,56,-1
 497 608 l 1,57,58
 510 608 510 608 526 595.5 c 128,-1,59
 542 583 542 583 554 583 c 1,60,-1
 582 586 l 1,61,62
 598 586 598 586 611 569.5 c 128,-1,63
 624 553 624 553 630.5 549.5 c 128,-1,64
 637 546 637 546 652 543 c 128,-1,65
 667 540 667 540 674.5 535 c 128,-1,66
 682 530 682 530 687 516 c 128,-1,67
 692 502 692 502 697.5 497 c 128,-1,68
 703 492 703 492 723 481.5 c 128,-1,69
 743 471 743 471 747.5 463 c 128,-1,70
 752 455 752 455 752.5 439 c 128,-1,71
 753 423 753 423 755.5 418.5 c 128,-1,72
 758 414 758 414 775 399.5 c 128,-1,73
 792 385 792 385 792 369 c 2,74,-1
 791 344 l 2,75,76
 791 331 791 331 803 312.5 c 128,-1,77
 815 294 815 294 815 285 c 128,-1,78
 815 276 815 276 809.5 263 c 128,-1,79
 804 250 804 250 804 243 c 128,-1,80
 804 236 804 236 809.5 221.5 c 128,-1,81
 815 207 815 207 814.5 199 c 128,-1,82
 814 191 814 191 802 178.5 c 128,-1,83
 790 166 790 166 790 152 c 2,84,-1
 792 120 l 2,85,86
 792 104 792 104 776 91 c 128,-1,87
 760 78 760 78 757.5 73 c 128,-1,88
 755 68 755 68 750.5 49 c 128,-1,89
 746 30 746 30 740.5 23.5 c 128,-1,90
 735 17 735 17 722.5 11.5 c 128,-1,91
 710 6 710 6 705 1 c 128,-1,92
 700 -4 700 -4 691 -20.5 c 128,-1,93
 682 -37 682 -37 675 -42 c 128,-1,94
 668 -47 668 -47 650.5 -51.5 c 128,-1,95
 633 -56 633 -56 628 -59 c 128,-1,96
 623 -62 623 -62 609.5 -75.5 c 128,-1,97
 596 -89 596 -89 581 -89 c 2,0,-1
454 -6 m 1,98,-1
 487 -13 l 1,99,100
 493 -13 493 -13 504 -6 c 0,101,102
 519 4 519 4 531 4 c 2,103,-1
 546 3 l 2,104,105
 558 3 558 3 567 13 c 128,-1,106
 576 23 576 23 579.5 25 c 128,-1,107
 583 27 583 27 596 30.5 c 128,-1,108
 609 34 609 34 614.5 38 c 128,-1,109
 620 42 620 42 626.5 53.5 c 128,-1,110
 633 65 633 65 636.5 68.5 c 128,-1,111
 640 72 640 72 649 76 c 128,-1,112
 658 80 658 80 662 84.5 c 128,-1,113
 666 89 666 89 669 103 c 128,-1,114
 672 117 672 117 674.5 121 c 128,-1,115
 677 125 677 125 688 134 c 128,-1,116
 699 143 699 143 699 157 c 2,117,-1
 698 177 l 2,118,119
 698 188 698 188 706.5 197.5 c 128,-1,120
 715 207 715 207 716 213 c 1,121,-1
 708 245 l 1,122,-1
 716 273 l 1,123,124
 716 281 716 281 707 295 c 128,-1,125
 698 309 698 309 698 318 c 2,126,-1
 699 335 l 2,127,128
 699 347 699 347 687 357 c 128,-1,129
 675 367 675 367 673 371 c 128,-1,130
 671 375 671 375 670.5 386.5 c 128,-1,131
 670 398 670 398 667 403.5 c 128,-1,132
 664 409 664 409 649.5 416.5 c 128,-1,133
 635 424 635 424 631 428 c 128,-1,134
 627 432 627 432 623 442 c 128,-1,135
 619 452 619 452 614 456 c 128,-1,136
 609 460 609 460 598 462 c 128,-1,137
 587 464 587 464 582 466.5 c 128,-1,138
 577 469 577 469 568 481 c 128,-1,139
 559 493 559 493 547 493 c 1,140,-1
 527 491 l 2,141,142
 518 491 518 491 507 500 c 128,-1,143
 496 509 496 509 486 509 c 1,144,-1
 453 500 l 1,145,-1
 421 509 l 1,146,147
 413 509 413 509 401 500.5 c 128,-1,148
 389 492 389 492 379 492 c 2,149,-1
 362 493 l 2,150,151
 351 493 351 493 340.5 480.5 c 128,-1,152
 330 468 330 468 325.5 465.5 c 128,-1,153
 321 463 321 463 308 460.5 c 128,-1,154
 295 458 295 458 290 454 c 128,-1,155
 285 450 285 450 280 439 c 128,-1,156
 275 428 275 428 271 424 c 128,-1,157
 267 420 267 420 256.5 416 c 128,-1,158
 246 412 246 412 242 407 c 0,159,160
 240 403 240 403 238 391.5 c 128,-1,161
 236 380 236 380 234 376 c 128,-1,162
 232 372 232 372 220 361.5 c 128,-1,163
 208 351 208 351 208 340 c 2,164,-1
 209 324 l 2,165,166
 209 316 209 316 200.5 301 c 128,-1,167
 192 286 192 286 192 278 c 1,168,-1
 200 248 l 1,169,-1
 192 215 l 1,170,171
 192 207 192 207 200.5 194.5 c 128,-1,172
 209 182 209 182 209 174 c 2,173,-1
 207 158 l 1,174,175
 207 147 207 147 219.5 135.5 c 128,-1,176
 232 124 232 124 234 120 c 128,-1,177
 236 116 236 116 237.5 105.5 c 128,-1,178
 239 95 239 95 243 88.5 c 128,-1,179
 247 82 247 82 257 78 c 128,-1,180
 267 74 267 74 271 70.5 c 128,-1,181
 275 67 275 67 280.5 54 c 128,-1,182
 286 41 286 41 292 37 c 128,-1,183
 298 33 298 33 307.5 33 c 128,-1,184
 317 33 317 33 323 30 c 128,-1,185
 329 27 329 27 340.5 14.5 c 128,-1,186
 352 2 352 2 363 2 c 2,187,-1
 378 3 l 2,188,189
 388 3 388 3 400 -5.5 c 128,-1,190
 412 -14 412 -14 418 -15 c 1,191,-1
 454 -6 l 1,98,-1
454 417 m 128,-1,193
 524 417 524 417 574 367.5 c 128,-1,194
 624 318 624 318 624 247 c 128,-1,195
 624 176 624 176 574 126.5 c 128,-1,196
 524 77 524 77 454 77 c 128,-1,197
 384 77 384 77 334 126.5 c 128,-1,198
 284 176 284 176 284 247 c 128,-1,199
 284 318 284 318 334 367.5 c 128,-1,192
 384 417 384 417 454 417 c 128,-1,193
497 292 m 1,200,-1
 549 292 l 1,201,-1
 549 360 l 1,202,-1
 358 360 l 1,203,-1
 358 292 l 1,204,-1
 412 292 l 1,205,-1
 412 117 l 1,206,-1
 497 117 l 1,207,-1
 497 292 l 1,200,-1
EndSplineSet
EndChar

StartChar: fi
Encoding: 64257 64257 246
Width: 689
GlyphClass: 3
Flags: W
LayerCount: 2
Fore
SplineSet
293 670 m 0,0,1
 240 670 240 670 240 611 c 2,2,-1
 240 572 l 1,3,-1
 348 572 l 1,4,-1
 348 485 l 1,5,-1
 240 485 l 1,6,-1
 240 0 l 1,7,-1
 106 0 l 1,8,-1
 106 485 l 1,9,-1
 44 485 l 1,10,-1
 44 572 l 1,11,-1
 106 572 l 1,12,-1
 106 611 l 2,13,14
 106 775 106 775 279 775 c 0,15,16
 344 775 344 775 393 757 c 1,17,-1
 360 656 l 1,18,19
 326 670 326 670 293 670 c 0,0,1
461 572 m 1,20,-1
 595 572 l 1,21,-1
 595 0 l 1,22,-1
 461 0 l 1,23,-1
 461 572 l 1,20,-1
528 640 m 0,24,25
 453 640 453 640 453 717.5 c 128,-1,26
 453 795 453 795 528 795 c 0,27,28
 605 795 605 795 605 717.5 c 128,-1,29
 605 640 605 640 528 640 c 0,24,25
EndSplineSet
Ligature2: "'liga' Standard Ligatures lookup 0 subtable" f i
EndChar

StartChar: fl
Encoding: 64258 64258 247
Width: 689
GlyphClass: 3
Flags: W
LayerCount: 2
Fore
SplineSet
293 670 m 0,0,1
 240 670 240 670 240 611 c 2,2,-1
 240 572 l 1,3,-1
 348 572 l 1,4,-1
 348 485 l 1,5,-1
 240 485 l 1,6,-1
 240 0 l 1,7,-1
 106 0 l 1,8,-1
 106 485 l 1,9,-1
 44 485 l 1,10,-1
 44 572 l 1,11,-1
 106 572 l 1,12,-1
 106 611 l 2,13,14
 106 775 106 775 279 775 c 0,15,16
 344 775 344 775 393 757 c 1,17,-1
 360 656 l 1,18,19
 326 670 326 670 293 670 c 0,0,1
595 0 m 1,20,-1
 461 0 l 1,21,-1
 461 752 l 1,22,-1
 595 770 l 1,23,-1
 595 0 l 1,20,-1
EndSplineSet
Ligature2: "'liga' Standard Ligatures lookup 0 subtable" f l
EndChar
